<svg width="919" height="864" viewBox="0 0 919 864" fill="none" xmlns="http://www.w3.org/2000/svg">
<path d="M-541.691 811.197C-134.591 786.797 19.3093 788.497 426.409 764.097C1115.71 722.697 1064.11 -294.403 375.909 -253.203C-31.1907 -228.803 -185.091 -230.503 -592.191 -206.103C-1281.49 -164.703 -1229.99 852.497 -541.691 811.197Z" fill="#FCEEF4"/>
<path d="M404.999 595.631L405.084 595.784L405.175 595.933C412.093 607.221 421.426 615.319 433.154 619.809C444.901 624.306 457.023 624.402 469.199 620.248L469.226 620.239L469.252 620.23C483.47 615.26 492.969 603.97 498.219 588.057C504.538 569.7 514.415 556.054 527.668 546.646C542.836 536.128 559.749 526.962 578.432 519.166C598.151 511.478 619.005 503.834 640.997 496.235C663.682 488.397 684.661 477.912 703.91 464.773C724.132 451.689 741.504 434.397 756.047 413.018C771.629 391.365 781.834 363.292 787.033 329.22L787.04 329.168L787.048 329.117C794.194 277.515 786.57 231.209 763.818 190.568C741.958 149.449 707.955 120.11 662.232 102.606C639.377 93.8563 615.112 88.9294 589.478 87.7915C564.72 86.2389 540.352 88.7938 516.409 95.4508C492.656 101.457 470.168 111.499 448.968 125.529L448.946 125.543L448.924 125.558C428.603 139.212 411.193 156.693 396.691 177.919C394.071 180.779 391.815 183.53 389.968 186.168L389.439 186.925L389.108 187.788C388.3 189.9 387.435 191.36 386.625 192.347C384.819 194.546 383.364 196.952 382.306 199.559C374.025 214.893 372.444 230.035 379.374 244.018C385.801 256.987 395.705 266.199 408.918 271.257C419.72 275.393 430.728 276.034 441.715 273.078L441.921 273.023L442.124 272.955C454.118 268.984 463.251 259.965 469.839 247.207C469.863 247.181 469.89 247.153 469.921 247.121C470.04 246.998 470.199 246.843 470.404 246.656C472.038 245.16 474.387 242.461 477.219 239.012L477.27 238.949L477.32 238.886C495.939 215.19 517.862 199.748 543.099 192.139L543.17 192.117L543.241 192.094C568.584 183.901 595.113 184.978 623.137 195.707C645.596 204.305 662.715 219.024 674.711 240.08L674.752 240.151L674.793 240.22C686.821 260.306 691.117 285.078 686.988 315.096C683.654 337.087 675.836 353.245 664.115 364.358L664.062 364.409L664.01 364.46C652.463 375.844 638.023 385.208 620.54 392.472L620.451 392.509L620.363 392.548C603.147 400.225 583.894 407.18 562.582 413.4C541.453 419.42 520.719 427.536 500.382 437.735C479.672 448.121 460.412 462.178 442.597 479.827L442.556 479.867L442.516 479.908C425.069 497.729 411.76 522.35 402.27 553.277C397.321 568.48 397.948 582.824 404.999 595.631ZM339.473 693.222C333.279 709.401 332.899 724.876 339.238 739.066C345.577 753.255 357.358 763.304 373.545 769.501C389.167 775.481 404.294 775.662 418.401 769.372C432.596 763.043 442.647 751.271 448.841 735.092C455.035 718.912 455.415 703.438 449.075 689.248C442.776 675.146 431.395 665.178 415.773 659.198C399.586 653.001 384.106 652.613 369.912 658.942C355.718 665.271 345.667 677.043 339.473 693.222Z" fill="#D23C50" stroke="#D23C50" stroke-width="15"/>
<path d="M254.3 534.4C269.9 534.4 282.6 521.6 282.6 505.7C282.6 489.9 269.9 477 254.3 477C238.7 477 226 489.9 226 505.8C226 521.6 238.7 534.4 254.3 534.4Z" fill="#D23C50"/>
<path d="M166.818 224.141C157.128 224.595 148.573 225.125 141.305 225.731C138.579 225.731 136.233 224.974 134.34 223.535C132.447 222.097 131.463 219.825 131.463 216.797C131.463 214.677 132.144 212.633 133.507 210.741C134.87 208.848 136.99 207.712 139.942 207.409C149.557 206.652 159.172 206.047 168.711 205.668C178.25 205.29 188.017 205.062 197.934 205.062C219.132 205.062 241.542 205.971 265.087 207.788C268.115 207.939 270.386 208.999 271.749 210.968C273.112 212.936 273.718 215.056 273.566 217.251C273.415 219.447 272.582 221.491 271.068 223.308C269.554 225.125 267.434 226.034 264.633 226.034H263.724C253.958 225.276 243.283 224.595 231.776 224.065C220.268 223.535 208.76 223.232 197.253 223.232C186.654 223.459 176.509 223.687 166.818 224.141ZM195.663 360.717C193.77 359.203 192.786 356.932 192.786 353.828V266.764H152.888C152.737 269.338 152.661 271.837 152.661 274.108C152.661 276.379 152.661 278.802 152.661 281.3C152.661 283.798 152.661 286.6 152.812 289.628C152.888 292.656 152.964 296.366 152.964 300.606C152.964 304.391 153.04 308.631 153.191 313.173C153.342 317.791 153.494 322.409 153.645 327.028C153.797 331.721 154.024 336.188 154.327 340.428C154.629 344.743 154.857 348.529 155.008 351.86C155.311 354.888 154.554 357.538 152.737 359.658C150.92 361.777 148.421 362.837 145.393 362.837C142.97 362.837 140.851 362.004 139.109 360.415C137.368 358.825 136.384 356.705 136.233 354.131C136.081 350.497 135.854 346.409 135.551 341.866C135.248 337.399 135.021 332.706 134.87 327.86C134.718 323.015 134.567 318.245 134.416 313.552C134.264 308.782 134.188 304.467 134.188 300.454C134.188 297.426 134.188 293.64 134.188 289.098C134.188 284.556 134.188 280.165 134.34 275.773C134.416 271.382 134.491 267.521 134.491 263.963C134.491 260.481 134.491 258.134 134.491 257.074C134.491 254.5 135.097 252.304 136.233 250.639C137.368 248.973 139.639 248.14 142.97 248.14H266.45C268.267 248.14 269.629 248.519 270.538 249.276C271.446 250.033 272.128 250.79 272.582 251.547C273.036 252.607 273.263 253.818 273.263 255.181V353.222C273.263 356.251 272.279 358.598 270.386 360.187C268.494 361.777 266.298 362.61 263.876 362.61C261.604 362.61 259.409 361.777 257.44 360.187C255.472 358.598 254.488 356.251 254.488 353.222V266.764H211.183V353.828C211.183 356.856 210.199 359.203 208.306 360.717C206.413 362.232 204.294 362.989 202.022 362.989C199.751 362.989 197.556 362.232 195.663 360.717Z" fill="#FFC124"/>
<path d="M263.876 372.452C259.409 372.452 255.17 370.863 251.536 367.91C248.583 365.487 245.025 361.096 245.025 353.525V276.228H220.647V353.828C220.647 361.399 217.165 365.79 214.212 368.061C210.654 370.938 206.414 372.452 202.023 372.452C197.632 372.452 193.392 370.938 189.834 368.061C186.881 365.714 183.399 361.323 183.399 353.828V276.228H162.201V281.3C162.201 283.799 162.201 286.524 162.276 289.401C162.352 292.581 162.428 296.366 162.428 300.682C162.428 304.391 162.504 308.555 162.655 312.946L163.109 326.801C163.261 331.343 163.488 335.734 163.791 339.822C164.093 344.062 164.321 347.923 164.472 351.33C164.926 356.857 163.412 361.929 159.93 365.941C156.296 370.181 151.299 372.452 145.394 372.452C140.624 372.452 136.233 370.787 132.675 367.531C129.117 364.276 127.072 359.885 126.77 354.812V354.661C126.618 351.103 126.391 347.09 126.088 342.624C125.785 338.005 125.558 333.236 125.407 328.315L124.953 314.006C124.801 309.236 124.725 304.77 124.725 300.682V289.325C124.725 284.632 124.801 280.089 124.877 275.849C124.953 271.534 124.953 267.597 124.953 264.19V257.301C124.953 252.759 126.088 248.822 128.284 245.566C130.328 242.538 134.567 238.904 142.895 238.904H266.374C270.463 238.904 273.87 240.04 276.519 242.235C278.261 243.674 279.623 245.264 280.608 246.929L280.91 247.459L281.137 248.065C282.122 250.336 282.576 252.834 282.576 255.484V353.525C282.576 360.945 279.169 365.336 276.368 367.758C272.885 370.863 268.494 372.452 263.876 372.452ZM143.804 257.907V260.329L143.955 257.907H143.804ZM264.558 225.807H262.892C253.277 225.05 242.678 224.444 231.246 223.914C209.442 222.93 187.109 222.854 167.273 223.763C157.81 224.217 149.33 224.747 142.063 225.352H141.305C136.46 225.352 132.145 223.99 128.587 221.264C125.558 218.993 122 214.678 122 206.955C122 202.791 123.287 198.93 125.861 195.372C127.905 192.495 131.918 188.937 138.959 188.18H139.186C148.876 187.423 158.718 186.817 168.333 186.439C178.024 186.06 187.941 185.833 197.935 185.833C219.284 185.833 242.072 186.742 265.693 188.634C273.264 189.088 277.352 192.798 279.472 195.902C282.046 199.612 283.257 203.927 282.954 208.242C282.652 212.482 281.062 216.343 278.261 219.75C275.838 222.476 271.598 225.807 264.558 225.807Z" fill="#FFC124"/>
<path d="M244.65 625.68C244.275 594.625 219.576 568.958 187.721 564.978C172.302 563.02 171.959 586.326 187.403 588.186C205.946 590.463 220.342 607.054 220.579 624.718C220.715 639.662 244.857 640.747 244.65 625.68Z" fill="#FFC124"/>
<path d="M659.8 762C655.8 762 652.7 760.7 650.6 758.2C648.5 755.7 647.4 752.9 647.4 749.9C647.4 746.9 648.4 744.1 650.4 741.6C652.4 739.1 655.4 737.8 659.5 737.8H699.8C699.8 727.3 700.3 717.2 701.2 707.5C702.1 697.8 703.5 689.2 705.3 681.8C706.1 678.4 707.6 675.9 709.7 674.5C711.8 673.1 714.2 672.4 716.8 672.4C720.2 672.4 723.4 673.7 726.2 676.3C729 678.9 729.9 682.6 728.9 687.2C727.3 693.7 726.1 701.3 725.4 710.1C724.7 718.9 724.2 728.1 724 737.8H775.5C779.5 737.8 782.6 739.1 784.7 741.6C786.8 744.1 787.9 746.9 787.9 749.9C787.9 752.9 786.9 755.7 784.9 758.2C782.9 760.7 779.9 762 775.8 762H724.3C724.7 771.7 725.4 780.9 726.4 789.5C727.4 798.2 728.7 805.7 730.3 812.2C731.3 816.8 730.4 820.5 727.6 823.1C724.8 825.7 721.6 827 718.2 827C715.6 827 713.2 826.3 711.1 824.9C709 823.5 707.5 821.1 706.7 817.6C705.1 810.3 703.7 801.9 702.5 792.2C701.3 782.5 700.5 772.4 700.1 761.9H659.8V762Z" fill="#FFC124"/>
<path d="M718.2 839.6C713.1 839.6 708.4 838.2 704.2 835.4C700.9 833.2 696.5 828.8 694.6 820.6V820.5C692.9 812.9 691.4 804 690.2 793.9C689.4 787.6 688.8 781.2 688.3 774.6H659.9C650.1 774.6 644.2 770.1 641.1 766.4C637.1 761.7 635 756 635 750C635 744.2 637 738.6 640.8 733.9C643.9 730 649.7 725.4 659.6 725.4H687.6C687.8 718.9 688.2 712.6 688.8 706.5C689.8 696.3 691.2 687 693.2 679C695.1 670.8 699.5 666.5 702.8 664.2C707 661.4 711.7 660 716.9 660C723.5 660 729.6 662.5 734.8 667.3C740.9 673 743.2 681 741.2 690L741.1 690.4C739.7 696.2 738.6 703.2 738 711.2C737.6 715.8 737.3 720.5 737.1 725.4H775.6C785.4 725.4 791.2 729.9 794.4 733.6C798.4 738.4 800.5 744 800.5 750C800.5 755.8 798.5 761.4 794.7 766.1C791.6 770 785.8 774.6 775.9 774.6H737.5C737.9 779.3 738.3 783.8 738.8 788.2C739.7 796.3 741 803.4 742.4 809.3L742.5 809.7C744.4 818.7 742.2 826.7 736.1 832.4C731 837.1 724.8 839.6 718.2 839.6Z" fill="#FFC124"/>
</svg>
