<svg width="23" height="20" viewBox="0 0 23 20" fill="none" xmlns="http://www.w3.org/2000/svg">
<path d="M11.5 4.75C11.5 4.33578 11.8358 4 12.25 4H21.25C21.6642 4 21.9999 4.33578 21.9999 4.75C21.9999 5.16421 21.6642 5.49999 21.25 5.49999H12.25C11.8358 5.49999 11.5 5.16421 11.5 4.75Z" fill="#D23C50" stroke="#D23C50" stroke-width="0.6"/>
<path d="M11.5 15.25C11.5 14.8358 11.8358 14.5 12.25 14.5H21.25C21.6642 14.5 21.9999 14.8358 21.9999 15.25C21.9999 15.6642 21.6642 16 21.25 16H12.25C11.8358 16 11.5 15.6642 11.5 15.25Z" fill="#D23C50" stroke="#D23C50" stroke-width="0.6"/>
<path d="M6.99997 8.49996H2.49999C2.10229 8.49957 1.72099 8.3414 1.43978 8.06019C1.15856 7.77897 1.0004 7.39767 1 6.99997V2.49999C1.0004 2.10229 1.15856 1.72099 1.43978 1.43978C1.72099 1.15856 2.10229 1.0004 2.49999 1H6.99997C7.39767 1.0004 7.77897 1.15856 8.06019 1.43978C8.3414 1.72099 8.49957 2.10229 8.49996 2.49999V6.99997C8.49957 7.39767 8.3414 7.77897 8.06019 8.06019C7.77897 8.3414 7.39767 8.49957 6.99997 8.49996ZM2.49999 2.49999V6.99997H7.00072L6.99997 2.49999H2.49999Z" fill="#D23C50" stroke="#D23C50" stroke-width="0.6"/>
<path d="M6.99997 19H2.49999C2.10229 18.9996 1.72099 18.8414 1.43978 18.5602C1.15856 18.279 1.0004 17.8977 1 17.5V13C1.0004 12.6023 1.15856 12.221 1.43978 11.9398C1.72099 11.6586 2.10229 11.5004 2.49999 11.5H6.99997C7.39767 11.5004 7.77897 11.6586 8.06019 11.9398C8.3414 12.221 8.49957 12.6023 8.49996 13V17.5C8.49957 17.8977 8.3414 18.279 8.06019 18.5602C7.77897 18.8414 7.39767 18.9996 6.99997 19ZM2.49999 13V17.5H7.00072L6.99997 13H2.49999Z" fill="#D23C50" stroke="#D23C50" stroke-width="0.6"/>
</svg>
