<svg width="80" height="80" viewBox="0 0 80 80" fill="none" xmlns="http://www.w3.org/2000/svg">
    <rect width="79.9995" height="79.9995" rx="18" fill="#FCEEF4"/>
    <path d="M31.6775 26.3538C30.9017 26.3705 30.1457 26.5831 29.5017 26.9687C28.2135 27.7401 27.3308 29.1983 27.294 30.8631C27.2939 30.8736 27.2939 30.8842 27.294 30.8947V50.0513C27.2939 50.0617 27.2939 50.0721 27.294 50.0826C27.3308 51.7473 28.2152 53.1856 29.5017 53.9612C30.7881 54.7367 32.5046 54.8319 33.9804 54.0243C33.9964 54.0193 34.0123 54.0141 34.0281 54.0086L50.4503 44.3909C51.7874 43.6072 52.7056 42.1314 52.7056 40.4649C52.7056 38.7985 51.7874 37.3385 50.4503 36.5548L34.0122 26.9528C34.0018 26.9422 33.9912 26.9317 33.9804 26.9213C33.2437 26.5181 32.4534 26.3372 31.6775 26.3538Z" fill="#D23C50"/>
</svg>
