<svg viewBox="0 0 333 405" fill="none" xmlns="http://www.w3.org/2000/svg">
    <rect x="19.8497" y="108.523" width="246.167" height="278.856" rx="26.6848" transform="rotate(3.57527 19.8497 108.523)" stroke="#ECF0F8" stroke-width="4.00272"/>
    <path d="M148.906 188.082L148.907 188.108L148.909 188.134C150.215 206.742 152.498 228.425 155.754 253.175L155.757 253.191L155.759 253.208C156.801 260.505 159.474 266.333 164.124 270.207L164.183 270.256L164.244 270.303C168.626 273.589 173.476 275.292 178.725 275.292C184.84 275.292 190.15 272.772 194.545 268.03C199.589 262.957 201.283 255.918 200.235 247.534L200.233 247.516L200.23 247.498C197.961 230.967 196.344 216.077 195.374 202.824C194.507 190.683 193.768 179.445 193.159 169.111C198.885 170.003 205.131 170.444 211.886 170.444C225.169 170.444 238.441 168.617 251.696 164.972L251.729 164.963L251.762 164.953C263.176 161.529 273.867 157.115 283.829 151.705C283.436 163.326 282.679 176.294 281.556 190.615L281.553 190.644L281.552 190.674C280.581 207.176 278.8 226.13 276.204 247.541C275.163 255.879 276.669 262.897 281.367 267.987L281.408 268.031L281.45 268.073C286.149 272.771 291.597 275.292 297.715 275.292C302.964 275.292 307.814 273.589 312.196 270.303L312.257 270.256L312.317 270.207C316.966 266.333 319.639 260.505 320.682 253.208L320.684 253.191L320.686 253.175C323.943 228.425 326.065 206.733 327.046 188.108C328.35 169.521 329.002 151.579 329.002 134.281C329.002 116.974 328.349 99.5069 327.043 81.8787C325.737 64.2412 323.615 45.4747 320.68 25.5808L320.678 25.5736C319.633 18.6012 316.947 13.0694 312.258 9.52213C307.899 5.90812 303.028 3.99796 297.715 3.99796C291.323 3.99796 285.701 6.47807 280.963 11.2169C275.847 16.3328 274.193 23.7435 275.227 32.7027L275.231 32.743L275.237 32.7831C278.415 55.0294 280.813 75.862 282.432 95.2829C278.869 99.5602 274.614 103.453 269.65 106.957C264.288 110.742 258.442 114.062 252.106 116.913C245.807 119.748 239.187 121.957 232.242 123.539C225.614 124.798 218.992 125.427 212.374 125.427C208.31 125.427 204.419 125.115 200.698 124.496C197.982 124.002 195.265 123.411 192.546 122.724C193.601 96.7419 196.484 66.7614 201.205 32.7716L201.21 32.7372L201.214 32.7027C202.248 23.7435 200.594 16.3328 195.478 11.2169C190.739 6.47808 185.117 3.99796 178.725 3.99796C173.413 3.99796 168.541 5.90814 164.182 9.52209C159.494 13.0693 156.808 18.6011 155.762 25.5736L155.761 25.5808C152.826 45.4747 150.704 64.2412 149.397 81.8787C148.091 99.5069 147.438 116.974 147.438 134.281C147.438 151.568 147.928 169.502 148.906 188.082Z" fill="#FADDEA" stroke="#FADDEA" stroke-width="6.00408"/>
</svg>
