<svg viewBox="0 0 166 56" fill="none" xmlns="http://www.w3.org/2000/svg">
    <path d="M14.568 25.192C11.56 25.192 9 25.8 6.888 27.016C4.776 28.168 3.176 29.608 2.088 31.336C1 33.064 0.424 34.984 0.36 37.096C0.296 39.144 0.744 41.032 1.704 42.76C2.728 44.488 4.296 45.96 6.408 47.176C8.52 48.328 11.176 48.904 14.376 48.904C17.704 48.904 20.872 48.264 23.88 46.984C26.952 45.704 29.832 44.04 32.52 41.992C35.336 43.656 38.248 45.032 41.256 46.12C44.328 47.144 47.528 47.656 50.856 47.656C52.136 47.656 53.064 47.272 53.64 46.504C54.28 45.672 54.6 44.808 54.6 43.912C54.6 42.952 54.28 42.088 53.64 41.32C53.064 40.488 52.136 40.072 50.856 40.072C48.488 40.072 46.248 39.752 44.136 39.112C42.088 38.408 40.104 37.512 38.184 36.424C40.68 33.352 42.664 30.12 44.136 26.728C45.608 23.336 46.344 20.072 46.344 16.936C46.344 11.496 45.224 7.496 42.984 4.936C40.808 2.312 37.704 1 33.672 1C31.112 1 28.904 1.544 27.048 2.632C25.256 3.72 23.784 5.032 22.632 6.568C21.48 8.104 20.648 9.736 20.136 11.464C19.624 13.192 19.368 14.728 19.368 16.072C19.368 17.352 19.752 18.312 20.52 18.952C21.288 19.528 22.12 19.816 23.016 19.816C23.912 19.816 24.744 19.528 25.512 18.952C26.344 18.312 26.824 17.352 26.952 16.072C27.08 14.152 27.656 12.424 28.68 10.888C29.768 9.352 31.432 8.584 33.672 8.584C35.016 8.584 36.04 8.936 36.744 9.64C37.512 10.28 38.024 11.048 38.28 11.944C38.6 12.84 38.76 13.768 38.76 14.728C38.824 15.688 38.824 16.424 38.76 16.936C38.504 19.56 37.8 22.248 36.648 25C35.496 27.752 33.928 30.28 31.944 32.584C30.536 31.688 29.128 30.792 27.72 29.896C26.376 29 25 28.2 23.592 27.496C22.184 26.792 20.712 26.248 19.176 25.864C17.704 25.416 16.168 25.192 14.568 25.192ZM14.376 41.32C11.944 41.32 10.184 40.872 9.096 39.976C8.072 39.08 7.624 38.12 7.752 37.096C7.88 36.008 8.552 35.016 9.768 34.12C10.984 33.224 12.584 32.776 14.568 32.776C16.424 32.776 18.376 33.32 20.424 34.408C22.472 35.496 24.232 36.584 25.704 37.672C25.832 37.8 25.928 37.864 25.992 37.864C24.328 38.952 22.536 39.816 20.616 40.456C18.696 41.032 16.616 41.32 14.376 41.32ZM56.505 26.728C56.505 23.848 56.889 21.224 57.657 18.856C58.489 16.488 59.609 14.472 61.017 12.808C62.489 11.08 64.217 9.768 66.201 8.872C68.185 7.912 70.393 7.432 72.825 7.432C75.193 7.432 77.369 7.912 79.353 8.872C81.337 9.768 83.033 11.08 84.441 12.808C85.849 14.472 86.937 16.488 87.705 18.856C88.537 21.224 88.953 23.848 88.953 26.728C88.953 29.608 88.537 32.232 87.705 34.6C86.937 36.968 85.849 39.016 84.441 40.744C83.033 42.472 81.337 43.816 79.353 44.776C77.369 45.672 75.193 46.12 72.825 46.12C70.393 46.12 68.185 45.672 66.201 44.776C64.217 43.816 62.489 42.472 61.017 40.744C59.609 39.016 58.489 36.968 57.657 34.6C56.889 32.232 56.505 29.608 56.505 26.728ZM64.185 26.728C64.185 30.184 64.985 33 66.585 35.176C68.185 37.352 70.265 38.44 72.825 38.44C76.089 38.44 78.425 37.352 79.833 35.176C81.241 33 81.945 30.184 81.945 26.728C81.945 23.208 81.145 20.392 79.545 18.28C78.009 16.168 75.769 15.112 72.825 15.112C70.265 15.112 68.185 16.2 66.585 18.376C64.985 20.488 64.185 23.272 64.185 26.728ZM96.099 13.096L113.475 1.864C114.947 0.967999 116.259 0.808 117.411 1.384C118.627 1.96 119.299 3.08 119.427 4.744C120.195 13.448 120.355 21.096 119.907 27.688C119.459 34.28 118.595 40.424 117.315 46.12C117.059 47.336 116.451 48.168 115.491 48.616C114.595 49.064 113.667 49.192 112.707 49C111.747 48.808 110.947 48.296 110.307 47.464C109.731 46.632 109.571 45.608 109.827 44.392C110.211 42.6 110.595 40.424 110.979 37.864C111.427 35.304 111.779 32.552 112.035 29.608C112.291 26.664 112.451 23.656 112.515 20.584C112.579 17.512 112.483 14.6 112.227 11.848L100.323 19.624C99.235 20.328 98.211 20.52 97.251 20.2C96.291 19.816 95.523 19.24 94.947 18.472C94.435 17.64 94.211 16.712 94.275 15.688C94.403 14.664 95.011 13.8 96.099 13.096ZM134.402 13.192C134.402 9.8 135.49 7.112 137.666 5.128C139.906 3.08 142.85 2.056 146.498 2.056C150.146 2.056 153.058 3.08 155.234 5.128C157.41 7.112 158.498 9.8 158.498 13.192C158.498 16.52 157.41 19.208 155.234 21.256C153.058 23.304 150.146 24.328 146.498 24.328C142.85 24.328 139.906 23.304 137.666 21.256C135.49 19.208 134.402 16.52 134.402 13.192ZM142.466 13.192C142.466 14.28 142.818 15.176 143.522 15.88C144.29 16.584 145.314 16.936 146.594 16.936C148.066 16.936 149.122 16.584 149.762 15.88C150.466 15.176 150.818 14.28 150.818 13.192C150.818 12.04 150.466 11.112 149.762 10.408C149.058 9.704 148.002 9.352 146.594 9.352C145.314 9.352 144.29 9.704 143.522 10.408C142.818 11.112 142.466 12.04 142.466 13.192ZM127.298 37C127.298 34.248 127.746 31.752 128.642 29.512C129.602 27.208 130.914 25.256 132.578 23.656C134.242 22.056 136.258 20.808 138.626 19.912C141.058 19.016 143.714 18.568 146.594 18.568C149.474 18.568 152.098 19.016 154.466 19.912C156.834 20.808 158.85 22.056 160.514 23.656C162.242 25.256 163.554 27.208 164.45 29.512C165.41 31.752 165.89 34.248 165.89 37C165.89 39.752 165.41 42.28 164.45 44.584C163.554 46.824 162.242 48.744 160.514 50.344C158.85 52.008 156.834 53.288 154.466 54.184C152.098 55.08 149.474 55.528 146.594 55.528C143.714 55.528 141.058 55.08 138.626 54.184C136.258 53.288 134.242 52.008 132.578 50.344C130.914 48.744 129.602 46.824 128.642 44.584C127.746 42.28 127.298 39.752 127.298 37ZM134.978 37C134.978 40.328 136.034 43.016 138.146 45.064C140.258 47.112 143.074 48.136 146.594 48.136C150.882 48.136 153.986 47.112 155.906 45.064C157.89 43.016 158.882 40.328 158.882 37C158.882 33.608 157.826 30.92 155.714 28.936C153.666 26.888 150.626 25.864 146.594 25.864C143.074 25.864 140.258 26.888 138.146 28.936C136.034 30.984 134.978 33.672 134.978 37Z" fill="#F27F94"/>
</svg>
