<svg viewBox="0 0 161 56" fill="none" xmlns="http://www.w3.org/2000/svg">
    <path d="M14.568 25.192C11.56 25.192 9 25.8 6.888 27.016C4.776 28.168 3.176 29.608 2.088 31.336C1 33.064 0.424 34.984 0.36 37.096C0.296 39.144 0.744 41.032 1.704 42.76C2.728 44.488 4.296 45.96 6.408 47.176C8.52 48.328 11.176 48.904 14.376 48.904C17.704 48.904 20.872 48.264 23.88 46.984C26.952 45.704 29.832 44.04 32.52 41.992C35.336 43.656 38.248 45.032 41.256 46.12C44.328 47.144 47.528 47.656 50.856 47.656C52.136 47.656 53.064 47.272 53.64 46.504C54.28 45.672 54.6 44.808 54.6 43.912C54.6 42.952 54.28 42.088 53.64 41.32C53.064 40.488 52.136 40.072 50.856 40.072C48.488 40.072 46.248 39.752 44.136 39.112C42.088 38.408 40.104 37.512 38.184 36.424C40.68 33.352 42.664 30.12 44.136 26.728C45.608 23.336 46.344 20.072 46.344 16.936C46.344 11.496 45.224 7.496 42.984 4.936C40.808 2.312 37.704 1 33.672 1C31.112 1 28.904 1.544 27.048 2.632C25.256 3.72 23.784 5.032 22.632 6.568C21.48 8.104 20.648 9.736 20.136 11.464C19.624 13.192 19.368 14.728 19.368 16.072C19.368 17.352 19.752 18.312 20.52 18.952C21.288 19.528 22.12 19.816 23.016 19.816C23.912 19.816 24.744 19.528 25.512 18.952C26.344 18.312 26.824 17.352 26.952 16.072C27.08 14.152 27.656 12.424 28.68 10.888C29.768 9.352 31.432 8.584 33.672 8.584C35.016 8.584 36.04 8.936 36.744 9.64C37.512 10.28 38.024 11.048 38.28 11.944C38.6 12.84 38.76 13.768 38.76 14.728C38.824 15.688 38.824 16.424 38.76 16.936C38.504 19.56 37.8 22.248 36.648 25C35.496 27.752 33.928 30.28 31.944 32.584C30.536 31.688 29.128 30.792 27.72 29.896C26.376 29 25 28.2 23.592 27.496C22.184 26.792 20.712 26.248 19.176 25.864C17.704 25.416 16.168 25.192 14.568 25.192ZM14.376 41.32C11.944 41.32 10.184 40.872 9.096 39.976C8.072 39.08 7.624 38.12 7.752 37.096C7.88 36.008 8.552 35.016 9.768 34.12C10.984 33.224 12.584 32.776 14.568 32.776C16.424 32.776 18.376 33.32 20.424 34.408C22.472 35.496 24.232 36.584 25.704 37.672C25.832 37.8 25.928 37.864 25.992 37.864C24.328 38.952 22.536 39.816 20.616 40.456C18.696 41.032 16.616 41.32 14.376 41.32ZM56.505 26.728C56.505 23.848 56.889 21.224 57.657 18.856C58.489 16.488 59.609 14.472 61.017 12.808C62.489 11.08 64.217 9.768 66.201 8.872C68.185 7.912 70.393 7.432 72.825 7.432C75.193 7.432 77.369 7.912 79.353 8.872C81.337 9.768 83.033 11.08 84.441 12.808C85.849 14.472 86.937 16.488 87.705 18.856C88.537 21.224 88.953 23.848 88.953 26.728C88.953 29.608 88.537 32.232 87.705 34.6C86.937 36.968 85.849 39.016 84.441 40.744C83.033 42.472 81.337 43.816 79.353 44.776C77.369 45.672 75.193 46.12 72.825 46.12C70.393 46.12 68.185 45.672 66.201 44.776C64.217 43.816 62.489 42.472 61.017 40.744C59.609 39.016 58.489 36.968 57.657 34.6C56.889 32.232 56.505 29.608 56.505 26.728ZM64.185 26.728C64.185 30.184 64.985 33 66.585 35.176C68.185 37.352 70.265 38.44 72.825 38.44C76.089 38.44 78.425 37.352 79.833 35.176C81.241 33 81.945 30.184 81.945 26.728C81.945 23.208 81.145 20.392 79.545 18.28C78.009 16.168 75.769 15.112 72.825 15.112C70.265 15.112 68.185 16.2 66.585 18.376C64.985 20.488 64.185 23.272 64.185 26.728ZM96.099 13.096L113.475 1.864C114.947 0.967999 116.259 0.808 117.411 1.384C118.627 1.96 119.299 3.08 119.427 4.744C120.195 13.448 120.355 21.096 119.907 27.688C119.459 34.28 118.595 40.424 117.315 46.12C117.059 47.336 116.451 48.168 115.491 48.616C114.595 49.064 113.667 49.192 112.707 49C111.747 48.808 110.947 48.296 110.307 47.464C109.731 46.632 109.571 45.608 109.827 44.392C110.211 42.6 110.595 40.424 110.979 37.864C111.427 35.304 111.779 32.552 112.035 29.608C112.291 26.664 112.451 23.656 112.515 20.584C112.579 17.512 112.483 14.6 112.227 11.848L100.323 19.624C99.235 20.328 98.211 20.52 97.251 20.2C96.291 19.816 95.523 19.24 94.947 18.472C94.435 17.64 94.211 16.712 94.275 15.688C94.403 14.664 95.011 13.8 96.099 13.096ZM132.77 55.72C137.826 55.72 142.114 54.6 145.634 52.36C149.218 50.184 152.098 47.336 154.274 43.816C156.45 40.232 157.954 36.2 158.786 31.72C159.618 27.176 159.778 22.6 159.266 17.992C158.626 12.168 156.994 7.88 154.37 5.128C151.81 2.376 148.034 1 143.042 1C140.802 1 138.722 1.384 136.802 2.152C134.882 2.92 133.218 3.976 131.81 5.32C130.402 6.664 129.282 8.264 128.45 10.12C127.682 11.912 127.298 13.864 127.298 15.976C127.298 18.216 127.682 20.296 128.45 22.216C129.282 24.072 130.402 25.704 131.81 27.112C133.218 28.456 134.882 29.512 136.802 30.28C138.722 31.048 140.802 31.432 143.042 31.432C144.706 31.432 146.274 31.176 147.746 30.664C149.218 30.088 150.562 29.32 151.778 28.36C151.33 31.304 150.658 33.992 149.762 36.424C148.866 38.792 147.65 40.808 146.114 42.472C144.578 44.136 142.722 45.416 140.546 46.312C138.37 47.208 135.778 47.656 132.77 47.656C131.554 47.656 130.626 48.104 129.986 49C129.41 49.832 129.122 50.728 129.122 51.688C129.122 52.648 129.41 53.544 129.986 54.376C130.626 55.272 131.554 55.72 132.77 55.72ZM134.594 15.688C134.53 13.384 135.266 11.528 136.802 10.12C138.338 8.712 140.354 8.008 142.85 8.008C145.346 8.008 147.362 8.712 148.898 10.12C150.434 11.528 151.202 13.384 151.202 15.688C151.202 18.184 150.434 20.168 148.898 21.64C147.426 23.112 145.474 23.848 143.042 23.848C140.482 23.848 138.434 23.112 136.898 21.64C135.426 20.168 134.658 18.184 134.594 15.688Z" fill="#FFC124"/>
</svg>
