<svg viewBox="0 0 184 48" fill="none" xmlns="http://www.w3.org/2000/svg">
    <path d="M14.568 24.192C11.56 24.192 9 24.8 6.888 26.016C4.776 27.168 3.176 28.608 2.088 30.336C1 32.064 0.424 33.984 0.36 36.096C0.296 38.144 0.744 40.032 1.704 41.76C2.728 43.488 4.296 44.96 6.408 46.176C8.52 47.328 11.176 47.904 14.376 47.904C17.704 47.904 20.872 47.264 23.88 45.984C26.952 44.704 29.832 43.04 32.52 40.992C35.336 42.656 38.248 44.032 41.256 45.12C44.328 46.144 47.528 46.656 50.856 46.656C52.136 46.656 53.064 46.272 53.64 45.504C54.28 44.672 54.6 43.808 54.6 42.912C54.6 41.952 54.28 41.088 53.64 40.32C53.064 39.488 52.136 39.072 50.856 39.072C48.488 39.072 46.248 38.752 44.136 38.112C42.088 37.408 40.104 36.512 38.184 35.424C40.68 32.352 42.664 29.12 44.136 25.728C45.608 22.336 46.344 19.072 46.344 15.936C46.344 10.496 45.224 6.496 42.984 3.936C40.808 1.312 37.704 0 33.672 0C31.112 0 28.904 0.544 27.048 1.632C25.256 2.72 23.784 4.032 22.632 5.568C21.48 7.104 20.648 8.736 20.136 10.464C19.624 12.192 19.368 13.728 19.368 15.072C19.368 16.352 19.752 17.312 20.52 17.952C21.288 18.528 22.12 18.816 23.016 18.816C23.912 18.816 24.744 18.528 25.512 17.952C26.344 17.312 26.824 16.352 26.952 15.072C27.08 13.152 27.656 11.424 28.68 9.888C29.768 8.352 31.432 7.584 33.672 7.584C35.016 7.584 36.04 7.936 36.744 8.64C37.512 9.28 38.024 10.048 38.28 10.944C38.6 11.84 38.76 12.768 38.76 13.728C38.824 14.688 38.824 15.424 38.76 15.936C38.504 18.56 37.8 21.248 36.648 24C35.496 26.752 33.928 29.28 31.944 31.584C30.536 30.688 29.128 29.792 27.72 28.896C26.376 28 25 27.2 23.592 26.496C22.184 25.792 20.712 25.248 19.176 24.864C17.704 24.416 16.168 24.192 14.568 24.192ZM14.376 40.32C11.944 40.32 10.184 39.872 9.096 38.976C8.072 38.08 7.624 37.12 7.752 36.096C7.88 35.008 8.552 34.016 9.768 33.12C10.984 32.224 12.584 31.776 14.568 31.776C16.424 31.776 18.376 32.32 20.424 33.408C22.472 34.496 24.232 35.584 25.704 36.672C25.832 36.8 25.928 36.864 25.992 36.864C24.328 37.952 22.536 38.816 20.616 39.456C18.696 40.032 16.616 40.32 14.376 40.32ZM56.505 25.728C56.505 22.848 56.889 20.224 57.657 17.856C58.489 15.488 59.609 13.472 61.017 11.808C62.489 10.08 64.217 8.768 66.201 7.872C68.185 6.912 70.393 6.432 72.825 6.432C75.193 6.432 77.369 6.912 79.353 7.872C81.337 8.768 83.033 10.08 84.441 11.808C85.849 13.472 86.937 15.488 87.705 17.856C88.537 20.224 88.953 22.848 88.953 25.728C88.953 28.608 88.537 31.232 87.705 33.6C86.937 35.968 85.849 38.016 84.441 39.744C83.033 41.472 81.337 42.816 79.353 43.776C77.369 44.672 75.193 45.12 72.825 45.12C70.393 45.12 68.185 44.672 66.201 43.776C64.217 42.816 62.489 41.472 61.017 39.744C59.609 38.016 58.489 35.968 57.657 33.6C56.889 31.232 56.505 28.608 56.505 25.728ZM64.185 25.728C64.185 29.184 64.985 32 66.585 34.176C68.185 36.352 70.265 37.44 72.825 37.44C76.089 37.44 78.425 36.352 79.833 34.176C81.241 32 81.945 29.184 81.945 25.728C81.945 22.208 81.145 19.392 79.545 17.28C78.009 15.168 75.769 14.112 72.825 14.112C70.265 14.112 68.185 15.2 66.585 17.376C64.985 19.488 64.185 22.272 64.185 25.728ZM109.443 24.192C106.435 24.192 103.875 24.8 101.763 26.016C99.651 27.168 98.051 28.608 96.963 30.336C95.875 32.064 95.299 33.984 95.235 36.096C95.171 38.144 95.619 40.032 96.579 41.76C97.603 43.488 99.171 44.96 101.283 46.176C103.395 47.328 106.051 47.904 109.251 47.904C112.579 47.904 115.747 47.264 118.755 45.984C121.827 44.704 124.707 43.04 127.395 40.992C130.211 42.656 133.123 44.032 136.131 45.12C139.203 46.144 142.403 46.656 145.731 46.656C147.011 46.656 147.939 46.272 148.515 45.504C149.155 44.672 149.475 43.808 149.475 42.912C149.475 41.952 149.155 41.088 148.515 40.32C147.939 39.488 147.011 39.072 145.731 39.072C143.363 39.072 141.123 38.752 139.011 38.112C136.963 37.408 134.979 36.512 133.059 35.424C135.555 32.352 137.539 29.12 139.011 25.728C140.483 22.336 141.219 19.072 141.219 15.936C141.219 10.496 140.099 6.496 137.859 3.936C135.683 1.312 132.579 0 128.547 0C125.987 0 123.779 0.544 121.923 1.632C120.131 2.72 118.659 4.032 117.507 5.568C116.355 7.104 115.523 8.736 115.011 10.464C114.499 12.192 114.243 13.728 114.243 15.072C114.243 16.352 114.627 17.312 115.395 17.952C116.163 18.528 116.995 18.816 117.891 18.816C118.787 18.816 119.619 18.528 120.387 17.952C121.219 17.312 121.699 16.352 121.827 15.072C121.955 13.152 122.531 11.424 123.555 9.888C124.643 8.352 126.307 7.584 128.547 7.584C129.891 7.584 130.915 7.936 131.619 8.64C132.387 9.28 132.899 10.048 133.155 10.944C133.475 11.84 133.635 12.768 133.635 13.728C133.699 14.688 133.699 15.424 133.635 15.936C133.379 18.56 132.675 21.248 131.523 24C130.371 26.752 128.803 29.28 126.819 31.584C125.411 30.688 124.003 29.792 122.595 28.896C121.251 28 119.875 27.2 118.467 26.496C117.059 25.792 115.587 25.248 114.051 24.864C112.579 24.416 111.043 24.192 109.443 24.192ZM109.251 40.32C106.819 40.32 105.059 39.872 103.971 38.976C102.947 38.08 102.499 37.12 102.627 36.096C102.755 35.008 103.427 34.016 104.643 33.12C105.859 32.224 107.459 31.776 109.443 31.776C111.299 31.776 113.251 32.32 115.299 33.408C117.347 34.496 119.107 35.584 120.579 36.672C120.707 36.8 120.803 36.864 120.867 36.864C119.203 37.952 117.411 38.816 115.491 39.456C113.571 40.032 111.491 40.32 109.251 40.32ZM151.38 25.728C151.38 22.848 151.764 20.224 152.532 17.856C153.364 15.488 154.484 13.472 155.892 11.808C157.364 10.08 159.092 8.768 161.076 7.872C163.06 6.912 165.268 6.432 167.7 6.432C170.068 6.432 172.244 6.912 174.228 7.872C176.212 8.768 177.908 10.08 179.316 11.808C180.724 13.472 181.812 15.488 182.58 17.856C183.412 20.224 183.828 22.848 183.828 25.728C183.828 28.608 183.412 31.232 182.58 33.6C181.812 35.968 180.724 38.016 179.316 39.744C177.908 41.472 176.212 42.816 174.228 43.776C172.244 44.672 170.068 45.12 167.7 45.12C165.268 45.12 163.06 44.672 161.076 43.776C159.092 42.816 157.364 41.472 155.892 39.744C154.484 38.016 153.364 35.968 152.532 33.6C151.764 31.232 151.38 28.608 151.38 25.728ZM159.06 25.728C159.06 29.184 159.86 32 161.46 34.176C163.06 36.352 165.14 37.44 167.7 37.44C170.964 37.44 173.3 36.352 174.708 34.176C176.116 32 176.82 29.184 176.82 25.728C176.82 22.208 176.02 19.392 174.42 17.28C172.884 15.168 170.644 14.112 167.7 14.112C165.14 14.112 163.06 15.2 161.46 17.376C159.86 19.488 159.06 22.272 159.06 25.728Z" fill="#5F73AA"/>
</svg>
