<svg width="1920" height="2520" viewBox="0 0 1920 2520" fill="none" xmlns="http://www.w3.org/2000/svg">
<path d="M1435.72 956.193L1437.12 956.14C1445.26 956.327 1454.27 956.38 1463.95 956.3C1482.42 956.14 1501.25 955.182 1517.94 953.505C1525.92 952.707 1533.05 951.881 1539.16 951.083L1539.82 951.03C1543.93 950.817 1547.6 951.748 1550.75 953.825C1553.38 955.555 1556.62 958.962 1556.97 965.243C1557.17 968.65 1556.26 971.898 1554.26 974.932C1552.64 977.381 1549.46 980.495 1543.54 981.427L1543.33 981.453C1535.16 982.518 1526.91 983.45 1518.82 984.195C1510.65 984.94 1502.27 985.552 1493.85 986.005C1475.85 986.963 1456.55 987.229 1436.51 986.803C1430.13 986.803 1426.48 983.902 1424.54 981.48C1422.18 978.525 1420.97 975.092 1421 971.525C1421.08 968.012 1422.23 964.764 1424.45 961.863C1426.32 959.441 1429.77 956.513 1435.72 956.193Z" fill="#FFEDC6"/>
<path d="M386 482L386 846C386 883.555 416.445 914 454 914L909.5 914C947.055 914 977.5 944.445 977.5 982L977.5 1222.25L977.5 1557.5C977.5 1595.06 947.055 1625.5 909.5 1625.5L453 1625.5C415.445 1625.5 385 1655.94 385 1693.5L385 2265C385 2302.56 415.445 2333 453 2333L890.499 2333C928.055 2333 958.499 2363.44 958.499 2401L958.499 2513.5" stroke="#FCEEF4" stroke-width="13" stroke-linecap="round" stroke-dasharray="32 35"/>
<rect x="1095.61" y="1772.47" width="355.856" height="423.468" rx="40" transform="rotate(-3.60695 1095.61 1772.47)" stroke="#ECF0F8" stroke-width="6"/>
<path d="M1310.7 470.438L1310.7 470.477L1310.7 470.516C1312.66 498.41 1316.08 530.912 1320.97 568.011L1320.97 568.036L1320.97 568.061C1322.53 578.998 1326.54 587.734 1333.51 593.542L1333.6 593.616L1333.69 593.685C1340.26 598.611 1347.53 601.164 1355.4 601.164C1364.56 601.164 1372.52 597.386 1379.11 590.278C1386.67 582.673 1389.21 572.123 1387.64 559.556L1387.64 559.529L1387.63 559.502C1384.23 534.722 1381.81 512.403 1380.35 492.539C1379.05 474.338 1377.95 457.492 1377.03 442C1385.62 443.339 1394.98 443.999 1405.11 443.999C1425.02 443.999 1444.91 441.261 1464.78 435.797L1464.83 435.783L1464.88 435.768C1481.99 430.636 1498.01 424.019 1512.95 415.91C1512.36 433.329 1511.22 452.769 1509.54 474.235L1509.54 474.279L1509.53 474.323C1508.08 499.059 1505.41 527.469 1501.52 559.563C1499.96 572.063 1502.21 582.583 1509.26 590.214L1509.32 590.28L1509.38 590.343C1516.42 597.386 1524.59 601.164 1533.76 601.164C1541.63 601.164 1548.9 598.611 1555.47 593.685L1555.56 593.616L1555.65 593.542C1562.62 587.734 1566.63 578.998 1568.19 568.061L1568.19 568.036L1568.19 568.011C1573.08 530.911 1576.26 498.395 1577.73 470.477C1579.68 442.616 1580.66 415.72 1580.66 389.791C1580.66 363.849 1579.68 337.666 1577.72 311.242C1575.77 284.803 1572.58 256.673 1568.18 226.852L1568.18 226.841C1566.62 216.39 1562.59 208.098 1555.56 202.781C1549.03 197.363 1541.73 194.5 1533.76 194.5C1524.18 194.5 1515.75 198.218 1508.65 205.321L1511.8 208.474L1508.65 205.321C1500.98 212.99 1498.5 224.098 1500.05 237.528L1500.06 237.588L1500.07 237.648C1504.83 270.995 1508.43 302.223 1510.85 331.334C1505.51 337.746 1499.13 343.582 1491.69 348.834C1483.66 354.507 1474.89 359.483 1465.39 363.757C1455.95 368.007 1446.03 371.318 1435.62 373.689C1425.68 375.577 1415.76 376.519 1405.84 376.519C1399.74 376.519 1393.91 376.051 1388.33 375.124C1384.26 374.383 1380.19 373.498 1376.12 372.468C1377.7 333.521 1382.02 288.581 1389.1 237.631L1389.1 237.58L1389.11 237.528C1390.66 224.098 1388.18 212.99 1380.51 205.321L1377.33 208.503L1380.51 205.321C1373.41 198.218 1364.98 194.5 1355.4 194.5C1347.44 194.5 1340.13 197.363 1333.6 202.781C1326.57 208.098 1322.54 216.39 1320.98 226.841L1320.98 226.852C1316.58 256.673 1313.39 284.803 1311.44 311.242C1309.48 337.666 1308.5 363.849 1308.5 389.791C1308.5 415.704 1309.23 442.587 1310.7 470.438Z" fill="#FADDEA" stroke="#FADDEA" stroke-width="9"/>
<rect x="400.183" y="1119.36" width="351.107" height="233.416" rx="40" transform="rotate(-3.60695 400.183 1119.36)" stroke="#ECF0F8" stroke-width="6"/>
<rect x="1121" y="423" width="358" height="410" rx="55" fill="#FCEEF4"/>
<rect x="511.749" y="1068.26" width="354.209" height="244.53" rx="43" transform="rotate(6.02847 511.749 1068.26)" fill="#FFEDC6"/>
<rect x="1117.25" y="351.181" width="369" height="418" rx="40" transform="rotate(3.57527 1117.25 351.181)" stroke="#ECF0F8" stroke-width="6"/>
<path d="M524.38 608.945C927.149 482.255 1225.44 822.737 1119.15 1209.16C1014.92 1589.47 1613.11 1707.2 1717.33 1328.24C1949.11 484.766 1150.39 -225.479 335.346 30.6426C-41.6093 147.759 148.102 726.738 524.38 608.945Z" fill="url(#paint0_linear)" fill-opacity="0.04"/>
<path d="M1236.5 2261C1326.19 2261 1399 2187.34 1399 2096.5C1399 2005.66 1326.29 1932 1236.5 1932C1146.71 1932 1074 2005.57 1074 2096.41C1074 2187.33 1146.71 2261 1236.5 2261Z" fill="#E6EFFF"/>
<defs>
<linearGradient id="paint0_linear" x1="799" y1="328" x2="1313.5" y2="1666.5" gradientUnits="userSpaceOnUse">
<stop stop-color="#F27F94"/>
<stop offset="1" stop-color="#F27F94" stop-opacity="0.51"/>
</linearGradient>
</defs>
</svg>
