<svg width="636" height="2140" viewBox="0 0 636 2140" fill="none" xmlns="http://www.w3.org/2000/svg">
<path d="M576 2113L596 2133L616 2113" stroke="#FCEEF4" stroke-width="13" stroke-linecap="round" stroke-linejoin="round"/>
<path d="M23 95L23 459C23 496.555 53.4446 527 91 527L546.5 527C584.055 527 614.5 557.445 614.5 595L614.5 835.25L614.5 1170.5C614.5 1208.06 584.055 1238.5 546.5 1238.5L90 1238.5C52.4446 1238.5 22 1268.94 22 1306.5L22 1878C22 1915.56 52.4446 1946 90 1946L527.499 1946C565.055 1946 595.499 1976.44 595.499 2014L595.499 2126.5" stroke="#FCEEF4" stroke-width="13" stroke-linecap="round" stroke-dasharray="32 35"/>
<circle cx="614" cy="712" r="15.5" fill="white" stroke="#FFC124" stroke-width="13"/>
<circle cx="22" cy="1505" r="15.5" fill="white" stroke="#5F73AA" stroke-width="13"/>
<circle cx="22" cy="67" r="15.5" fill="white" stroke="#F27F94" stroke-width="13"/>
<path d="M2.28 8.984C2.28 10.1147 2.312 11.288 2.376 12.504C2.46133 13.72 2.61067 15.1387 2.824 16.76C2.888 17.208 3.048 17.5387 3.304 17.752C3.56 17.944 3.83733 18.04 4.136 18.04C4.47733 18.04 4.776 17.9013 5.032 17.624C5.30933 17.3467 5.416 16.952 5.352 16.44C5.20267 15.352 5.096 14.3707 5.032 13.496C4.968 12.6 4.91467 11.7787 4.872 11.032C5.29867 11.1173 5.77867 11.16 6.312 11.16C7.16533 11.16 8.01867 11.0427 8.872 10.808C9.72533 10.552 10.5147 10.2107 11.24 9.784C11.2187 10.6373 11.1653 11.608 11.08 12.696C11.016 13.784 10.8987 15.032 10.728 16.44C10.664 16.952 10.76 17.3467 11.016 17.624C11.2933 17.9013 11.6027 18.04 11.944 18.04C12.2427 18.04 12.52 17.944 12.776 17.752C13.032 17.5387 13.192 17.208 13.256 16.76C13.4693 15.1387 13.608 13.72 13.672 12.504C13.7573 11.288 13.8 10.1147 13.8 8.984C13.8 7.85333 13.7573 6.712 13.672 5.56C13.5867 4.408 13.448 3.18133 13.256 1.88C13.192 1.45333 13.032 1.144 12.776 0.952C12.52 0.738667 12.2427 0.632 11.944 0.632C11.5813 0.632 11.2613 0.770666 10.984 1.048C10.7067 1.32533 10.6 1.74133 10.664 2.296C10.8773 3.78933 11.0373 5.18667 11.144 6.488C10.888 6.808 10.5787 7.096 10.216 7.352C9.85333 7.608 9.45867 7.832 9.032 8.024C8.60533 8.216 8.15733 8.36533 7.688 8.472C7.24 8.55733 6.792 8.6 6.344 8.6C6.06667 8.6 5.8 8.57867 5.544 8.536C5.30933 8.49333 5.07467 8.44 4.84 8.376C4.904 6.62667 5.096 4.6 5.416 2.296C5.48 1.74133 5.37333 1.32533 5.096 1.048C4.81867 0.770666 4.49867 0.632 4.136 0.632C3.83733 0.632 3.56 0.738667 3.304 0.952C3.048 1.144 2.888 1.45333 2.824 1.88C2.632 3.18133 2.49333 4.408 2.408 5.56C2.32267 6.712 2.28 7.85333 2.28 8.984ZM15.8938 11.576C15.8938 10.616 16.0431 9.74133 16.3418 8.952C16.6618 8.16267 17.0991 7.49067 17.6538 6.936C18.2084 6.36 18.8804 5.92267 19.6698 5.624C20.4804 5.304 21.3658 5.144 22.3258 5.144C23.2858 5.144 24.1604 5.304 24.9498 5.624C25.7391 5.92267 26.4111 6.36 26.9658 6.936C27.5418 7.49067 27.9791 8.16267 28.2778 8.952C28.5978 9.74133 28.7578 10.616 28.7578 11.576C28.7578 12.536 28.5978 13.4107 28.2778 14.2C27.9791 14.9893 27.5418 15.672 26.9658 16.248C26.4111 16.824 25.7391 17.272 24.9498 17.592C24.1604 17.8907 23.2858 18.04 22.3258 18.04C21.3658 18.04 20.4804 17.8907 19.6698 17.592C18.8804 17.272 18.2084 16.824 17.6538 16.248C17.0991 15.672 16.6618 14.9893 16.3418 14.2C16.0431 13.4107 15.8938 12.536 15.8938 11.576ZM18.4538 11.576C18.4538 12.728 18.8058 13.6667 19.5098 14.392C20.2138 15.1173 21.1524 15.48 22.3258 15.48C23.7551 15.48 24.7898 15.1173 25.4298 14.392C26.0911 13.6667 26.4218 12.728 26.4218 11.576C26.4218 10.4027 26.0698 9.464 25.3658 8.76C24.6831 8.056 23.6698 7.704 22.3258 7.704C21.1524 7.704 20.2138 8.06667 19.5098 8.792C18.8058 9.496 18.4538 10.424 18.4538 11.576ZM29.7818 4.312C29.7818 5.03733 29.7818 5.77333 29.7818 6.52V10.616C29.8031 11.512 29.8244 12.376 29.8458 13.208C29.8884 14.04 29.9311 14.776 29.9738 15.416C30.0164 16.184 30.0591 16.8987 30.1018 17.56C30.1444 17.9867 30.0271 18.328 29.7498 18.584C29.4938 18.8187 29.2058 18.9467 28.8858 18.968C28.5658 18.9893 28.2564 18.904 27.9578 18.712C27.6804 18.52 27.5204 18.2 27.4778 17.752C27.4351 17.0693 27.3924 16.344 27.3498 15.576C27.3071 14.9147 27.2644 14.1573 27.2218 13.304C27.2004 12.4507 27.1791 11.576 27.1578 10.68V6.52C27.1578 5.77333 27.1578 5.03733 27.1578 4.312C27.1578 3.864 27.2964 3.53333 27.5738 3.32C27.8511 3.10667 28.1498 3 28.4698 3C28.8111 3 29.1098 3.11733 29.3658 3.352C29.6431 3.56533 29.7818 3.88533 29.7818 4.312ZM41.8428 10.904C41.8001 11.6507 41.7468 12.4827 41.6828 13.4C41.6188 14.3173 41.5121 15.3307 41.3628 16.44C41.2988 16.952 41.3948 17.3467 41.6508 17.624C41.9281 17.9013 42.2374 18.04 42.5788 18.04C42.8774 18.04 43.1548 17.944 43.4108 17.752C43.6668 17.5387 43.8268 17.208 43.8908 16.76C44.1041 15.1387 44.2428 13.72 44.3068 12.504C44.3921 11.288 44.4348 10.1147 44.4348 8.984C44.4348 7.85333 44.3921 6.712 44.3068 5.56C44.2214 4.408 44.0828 3.18133 43.8908 1.88C43.8268 1.45333 43.6668 1.144 43.4108 0.952C43.1548 0.738667 42.8774 0.632 42.5788 0.632C42.2161 0.632 41.8961 0.770666 41.6188 1.048C41.3414 1.32533 41.2348 1.74133 41.2988 2.296C41.4481 3.32 41.5654 4.29067 41.6508 5.208C41.7361 6.104 41.8001 6.95733 41.8428 7.768C41.8428 7.78933 41.7468 7.91733 41.5548 8.152C41.3628 8.38667 41.0961 8.64267 40.7548 8.92C40.4348 9.19733 40.0508 9.45333 39.6028 9.688C39.1548 9.90133 38.6534 10.008 38.0988 10.008C37.9281 10.008 37.7574 9.99733 37.5868 9.976C37.4161 9.95467 37.2454 9.912 37.0748 9.848C36.5201 9.67733 36.0401 9.37867 35.6348 8.952C35.2508 8.52533 34.9734 8.01333 34.8028 7.416C34.6534 6.81867 34.6321 6.15733 34.7388 5.432C34.8668 4.68533 35.1654 3.91733 35.6348 3.128C35.9334 2.50933 35.9654 2.008 35.7308 1.624C35.4961 1.24 35.1654 1.048 34.7388 1.048C34.5254 1.048 34.3014 1.112 34.0668 1.24C33.8534 1.368 33.6614 1.58133 33.4908 1.88C32.9788 2.75467 32.6268 3.74667 32.4348 4.856C32.2641 5.944 32.2961 7 32.5308 8.024C32.7654 9.02667 33.2134 9.92267 33.8748 10.712C34.5574 11.48 35.4854 11.9813 36.6588 12.216C37.0428 12.28 37.4268 12.312 37.8108 12.312C38.5574 12.312 39.2614 12.1947 39.9228 11.96C40.6054 11.704 41.2454 11.352 41.8428 10.904ZM46.5188 11.576C46.5188 10.616 46.6681 9.74133 46.9668 8.952C47.2868 8.16267 47.7241 7.49067 48.2788 6.936C48.8334 6.36 49.5054 5.92267 50.2948 5.624C51.1054 5.304 51.9908 5.144 52.9508 5.144C53.9108 5.144 54.7854 5.304 55.5748 5.624C56.3641 5.92267 57.0361 6.36 57.5908 6.936C58.1668 7.49067 58.6041 8.16267 58.9028 8.952C59.2228 9.74133 59.3828 10.616 59.3828 11.576C59.3828 12.536 59.2228 13.4107 58.9028 14.2C58.6041 14.9893 58.1668 15.672 57.5908 16.248C57.0361 16.824 56.3641 17.272 55.5748 17.592C54.7854 17.8907 53.9108 18.04 52.9508 18.04C51.9908 18.04 51.1054 17.8907 50.2948 17.592C49.5054 17.272 48.8334 16.824 48.2788 16.248C47.7241 15.672 47.2868 14.9893 46.9668 14.2C46.6681 13.4107 46.5188 12.536 46.5188 11.576ZM49.0788 11.576C49.0788 12.728 49.4308 13.6667 50.1348 14.392C50.8388 15.1173 51.7774 15.48 52.9508 15.48C54.3801 15.48 55.4148 15.1173 56.0548 14.392C56.7161 13.6667 57.0468 12.728 57.0468 11.576C57.0468 10.4027 56.6948 9.464 55.9908 8.76C55.3081 8.056 54.2948 7.704 52.9508 7.704C51.7774 7.704 50.8388 8.06667 50.1348 8.792C49.4308 9.496 49.0788 10.424 49.0788 11.576ZM60.4068 4.312C60.4068 5.03733 60.4068 5.77333 60.4068 6.52V10.616C60.4281 11.512 60.4494 12.376 60.4708 13.208C60.5134 14.04 60.5561 14.776 60.5988 15.416C60.6414 16.184 60.6841 16.8987 60.7268 17.56C60.7694 17.9867 60.6521 18.328 60.3748 18.584C60.1188 18.8187 59.8308 18.9467 59.5108 18.968C59.1908 18.9893 58.8814 18.904 58.5828 18.712C58.3054 18.52 58.1454 18.2 58.1028 17.752C58.0601 17.0693 58.0174 16.344 57.9748 15.576C57.9321 14.9147 57.8894 14.1573 57.8468 13.304C57.8254 12.4507 57.8041 11.576 57.7828 10.68V6.52C57.7828 5.77333 57.7828 5.03733 57.7828 4.312C57.7828 3.864 57.9214 3.53333 58.1988 3.32C58.4761 3.10667 58.7748 3 59.0948 3C59.4361 3 59.7348 3.11733 59.9908 3.352C60.2681 3.56533 60.4068 3.88533 60.4068 4.312ZM65.2358 17.528C65.8758 16.7173 66.5691 15.8853 67.3158 15.032C68.0624 14.1573 68.8411 13.304 69.6518 12.472C70.4838 11.6187 71.3158 10.808 72.1478 10.04C73.0011 9.272 73.8438 8.58933 74.6758 7.992C75.1451 8.376 75.6358 8.792 76.1478 9.24C76.5744 9.64533 77.0544 10.1147 77.5878 10.648C78.1424 11.1813 78.6971 11.768 79.2518 12.408C79.8491 13.0907 80.3931 13.7413 80.8838 14.36C81.3958 14.9573 81.8438 15.4907 82.2278 15.96C82.6758 16.5147 83.0811 17.0267 83.4438 17.496C83.7211 17.8587 84.0518 18.04 84.4358 18.04C84.6704 18.04 84.8838 17.976 85.0758 17.848C85.2891 17.72 85.4598 17.56 85.5878 17.368C85.7158 17.1547 85.7798 16.9307 85.7798 16.696C85.7798 16.44 85.6838 16.1947 85.4918 15.96C85.1078 15.4693 84.6918 14.9467 84.2438 14.392C83.8598 13.9013 83.4011 13.3467 82.8678 12.728C82.3558 12.088 81.7904 11.4267 81.1718 10.744C80.4678 9.93333 79.7744 9.208 79.0918 8.568C78.4091 7.928 77.8011 7.37333 77.2678 6.904C76.7344 6.43467 76.2971 6.072 75.9558 5.816C75.6358 5.56 75.4758 5.432 75.4758 5.432C75.2624 5.26133 75.0064 5.176 74.7078 5.176C74.4091 5.176 73.9611 5.37867 73.3638 5.784C72.7878 6.18933 72.1798 6.65867 71.5398 7.192C70.8998 7.704 70.3024 8.22667 69.7478 8.76C69.2144 9.272 68.8304 9.64533 68.5958 9.88C67.9344 10.5413 67.2838 11.224 66.6438 11.928C66.0038 12.632 65.4278 13.2827 64.9158 13.88C64.3398 14.584 63.7851 15.2667 63.2518 15.928C63.0598 16.184 62.9638 16.44 62.9638 16.696C62.9638 16.9307 63.0171 17.1547 63.1238 17.368C63.2518 17.56 63.4118 17.72 63.6038 17.848C63.8171 17.976 64.0411 18.04 64.2758 18.04C64.6384 18.04 64.9584 17.8693 65.2358 17.528ZM86.9013 11.576C86.9013 10.616 87.0506 9.74133 87.3493 8.952C87.6693 8.16267 88.1066 7.49067 88.6613 6.936C89.2159 6.36 89.8879 5.92267 90.6773 5.624C91.4879 5.304 92.3733 5.144 93.3333 5.144C94.2933 5.144 95.1679 5.304 95.9573 5.624C96.7466 5.92267 97.4186 6.36 97.9733 6.936C98.5493 7.49067 98.9866 8.16267 99.2853 8.952C99.6053 9.74133 99.7653 10.616 99.7653 11.576C99.7653 12.536 99.6053 13.4107 99.2853 14.2C98.9866 14.9893 98.5493 15.672 97.9733 16.248C97.4186 16.824 96.7466 17.272 95.9573 17.592C95.1679 17.8907 94.2933 18.04 93.3333 18.04C92.3733 18.04 91.4879 17.8907 90.6773 17.592C89.8879 17.272 89.2159 16.824 88.6613 16.248C88.1066 15.672 87.6693 14.9893 87.3493 14.2C87.0506 13.4107 86.9013 12.536 86.9013 11.576ZM89.4613 11.576C89.4613 12.728 89.8133 13.6667 90.5173 14.392C91.2213 15.1173 92.1599 15.48 93.3333 15.48C94.7626 15.48 95.7973 15.1173 96.4373 14.392C97.0986 13.6667 97.4293 12.728 97.4293 11.576C97.4293 10.4027 97.0773 9.464 96.3733 8.76C95.6906 8.056 94.6773 7.704 93.3333 7.704C92.1599 7.704 91.2213 8.06667 90.5173 8.792C89.8133 9.496 89.4613 10.424 89.4613 11.576Z" fill="#F27F94"/>
</svg>
