<svg viewBox="0 0 636 2095" fill="none" xmlns="http://www.w3.org/2000/svg">
    <path d="M576 2068L596 2088L616 2068" stroke="#FCEEF4" stroke-width="13" stroke-linecap="round" stroke-linejoin="round"/>
    <path d="M23 50L23 414C23 451.555 53.4446 482 91 482L546.5 482C584.055 482 614.5 512.445 614.5 550L614.5 790.25L614.5 1125.5C614.5 1163.06 584.055 1193.5 546.5 1193.5L90 1193.5C52.4446 1193.5 22 1223.94 22 1261.5L22 1833C22 1870.56 52.4446 1901 90 1901L527.499 1901C565.055 1901 595.499 1931.44 595.499 1969L595.499 2081.5" stroke="#FCEEF4" stroke-width="13" stroke-linecap="round" stroke-dasharray="32 35"/>
    <circle cx="614" cy="667" r="15.5" fill="white" stroke="#FFC124" stroke-width="13"/>
    <circle cx="22" cy="1460" r="15.5" fill="white" stroke="#5F73AA" stroke-width="13"/>
    <circle cx="22" cy="22" r="15.5" fill="white" stroke="#F27F94" stroke-width="13"/>
</svg>
