<svg  viewBox="0 0 375 2539" fill="none" xmlns="http://www.w3.org/2000/svg">
    <path d="M168 2511L188 2531L208 2511" stroke="#FCEEF4" stroke-width="13" stroke-linecap="round" stroke-linejoin="round"/>
    <circle cx="-2" cy="22" r="15.5" fill="white" stroke="#F27F94" stroke-width="13"/>
    <circle cx="-2" cy="891" r="15.5" fill="white" stroke="#FFC124" stroke-width="13"/>
    <circle cx="-2" cy="1733" r="15.5" fill="white" stroke="#5F73AA" stroke-width="13"/>
    <path d="M-15 18L-15.0001 736.501C-15.0001 774.056 15.4445 804.501 52.9999 804.501L318.5 804.501C356.055 804.501 386.5 834.945 386.5 872.501L386.5 1202.25L386.5 1571.5C386.5 1609.06 356.055 1639.5 318.5 1639.5L53 1639.5C15.4446 1639.5 -15 1669.94 -15 1707.5L-15 2354C-15 2391.55 15.4446 2422 53 2422L119.5 2422C157.055 2422 187.5 2452.44 187.5 2490L187.5 2535" stroke="#FCEEF4" stroke-width="8" stroke-linecap="round" stroke-dasharray="32 35"/>
</svg>
