<svg width="768" height="1809" viewBox="0 0 768 1809" fill="none" xmlns="http://www.w3.org/2000/svg">
    <path d="M364 1709L384 1729L404 1709" stroke="#FCEEF4" stroke-width="13" stroke-linecap="round" stroke-linejoin="round"/>
    <path d="M0.999756 9.99997L0.99974 374C0.999738 411.555 31.4444 442 68.9997 442L700.5 442C738.055 442 768.5 472.445 768.5 510L768.5 750.25L768.5 989C768.5 1026.56 738.055 1057 700.5 1057L67.9998 1057C30.4444 1057 -0.000226913 1087.44 -0.000224498 1125L-0.000196907 1554C-0.000194491 1591.56 30.4444 1622 67.9998 1622L315 1622C352.555 1622 383 1652.44 383 1690L383 1802.5" stroke="#FCEEF4" stroke-width="13" stroke-linecap="round" stroke-dasharray="32 35"/>
    <circle cy="22" r="15.5" fill="white" stroke="#F27F94" stroke-width="13"/>
</svg>
