<svg width="375" height="2539" viewBox="0 0 375 2539" fill="none" xmlns="http://www.w3.org/2000/svg">
<path d="M168 2511L188 2531L208 2511" stroke="#FCEEF4" stroke-width="13" stroke-linecap="round" stroke-linejoin="round"/>
<path d="M29.28 20.984C29.28 22.1147 29.312 23.288 29.376 24.504C29.4613 25.72 29.6107 27.1387 29.824 28.76C29.888 29.208 30.048 29.5387 30.304 29.752C30.56 29.944 30.8373 30.04 31.136 30.04C31.4773 30.04 31.776 29.9013 32.032 29.624C32.3093 29.3467 32.416 28.952 32.352 28.44C32.2027 27.352 32.096 26.3707 32.032 25.496C31.968 24.6 31.9147 23.7787 31.872 23.032C32.2987 23.1173 32.7787 23.16 33.312 23.16C34.1653 23.16 35.0187 23.0427 35.872 22.808C36.7253 22.552 37.5147 22.2107 38.24 21.784C38.2187 22.6373 38.1653 23.608 38.08 24.696C38.016 25.784 37.8987 27.032 37.728 28.44C37.664 28.952 37.76 29.3467 38.016 29.624C38.2933 29.9013 38.6027 30.04 38.944 30.04C39.2427 30.04 39.52 29.944 39.776 29.752C40.032 29.5387 40.192 29.208 40.256 28.76C40.4693 27.1387 40.608 25.72 40.672 24.504C40.7573 23.288 40.8 22.1147 40.8 20.984C40.8 19.8533 40.7573 18.712 40.672 17.56C40.5867 16.408 40.448 15.1813 40.256 13.88C40.192 13.4533 40.032 13.144 39.776 12.952C39.52 12.7387 39.2427 12.632 38.944 12.632C38.5813 12.632 38.2613 12.7707 37.984 13.048C37.7067 13.3253 37.6 13.7413 37.664 14.296C37.8773 15.7893 38.0373 17.1867 38.144 18.488C37.888 18.808 37.5787 19.096 37.216 19.352C36.8533 19.608 36.4587 19.832 36.032 20.024C35.6053 20.216 35.1573 20.3653 34.688 20.472C34.24 20.5573 33.792 20.6 33.344 20.6C33.0667 20.6 32.8 20.5787 32.544 20.536C32.3093 20.4933 32.0747 20.44 31.84 20.376C31.904 18.6267 32.096 16.6 32.416 14.296C32.48 13.7413 32.3733 13.3253 32.096 13.048C31.8187 12.7707 31.4987 12.632 31.136 12.632C30.8373 12.632 30.56 12.7387 30.304 12.952C30.048 13.144 29.888 13.4533 29.824 13.88C29.632 15.1813 29.4933 16.408 29.408 17.56C29.3227 18.712 29.28 19.8533 29.28 20.984ZM42.8938 23.576C42.8938 22.616 43.0431 21.7413 43.3418 20.952C43.6618 20.1627 44.0991 19.4907 44.6538 18.936C45.2084 18.36 45.8804 17.9227 46.6698 17.624C47.4804 17.304 48.3658 17.144 49.3258 17.144C50.2858 17.144 51.1604 17.304 51.9498 17.624C52.7391 17.9227 53.4111 18.36 53.9658 18.936C54.5418 19.4907 54.9791 20.1627 55.2778 20.952C55.5978 21.7413 55.7578 22.616 55.7578 23.576C55.7578 24.536 55.5978 25.4107 55.2778 26.2C54.9791 26.9893 54.5418 27.672 53.9658 28.248C53.4111 28.824 52.7391 29.272 51.9498 29.592C51.1604 29.8907 50.2858 30.04 49.3258 30.04C48.3658 30.04 47.4804 29.8907 46.6698 29.592C45.8804 29.272 45.2084 28.824 44.6538 28.248C44.0991 27.672 43.6618 26.9893 43.3418 26.2C43.0431 25.4107 42.8938 24.536 42.8938 23.576ZM45.4538 23.576C45.4538 24.728 45.8058 25.6667 46.5098 26.392C47.2138 27.1173 48.1524 27.48 49.3258 27.48C50.7551 27.48 51.7898 27.1173 52.4298 26.392C53.0911 25.6667 53.4218 24.728 53.4218 23.576C53.4218 22.4027 53.0698 21.464 52.3658 20.76C51.6831 20.056 50.6698 19.704 49.3258 19.704C48.1524 19.704 47.2138 20.0667 46.5098 20.792C45.8058 21.496 45.4538 22.424 45.4538 23.576ZM56.7818 16.312C56.7818 17.0373 56.7818 17.7733 56.7818 18.52V22.616C56.8031 23.512 56.8244 24.376 56.8458 25.208C56.8884 26.04 56.9311 26.776 56.9738 27.416C57.0164 28.184 57.0591 28.8987 57.1018 29.56C57.1444 29.9867 57.0271 30.328 56.7498 30.584C56.4938 30.8187 56.2058 30.9467 55.8858 30.968C55.5658 30.9893 55.2564 30.904 54.9578 30.712C54.6804 30.52 54.5204 30.2 54.4778 29.752C54.4351 29.0693 54.3924 28.344 54.3498 27.576C54.3071 26.9147 54.2644 26.1573 54.2218 25.304C54.2004 24.4507 54.1791 23.576 54.1578 22.68V18.52C54.1578 17.7733 54.1578 17.0373 54.1578 16.312C54.1578 15.864 54.2964 15.5333 54.5738 15.32C54.8511 15.1067 55.1498 15 55.4698 15C55.8111 15 56.1098 15.1173 56.3658 15.352C56.6431 15.5653 56.7818 15.8853 56.7818 16.312ZM68.8428 22.904C68.8001 23.6507 68.7468 24.4827 68.6828 25.4C68.6188 26.3173 68.5121 27.3307 68.3628 28.44C68.2988 28.952 68.3948 29.3467 68.6508 29.624C68.9281 29.9013 69.2374 30.04 69.5788 30.04C69.8774 30.04 70.1548 29.944 70.4108 29.752C70.6668 29.5387 70.8268 29.208 70.8908 28.76C71.1041 27.1387 71.2428 25.72 71.3068 24.504C71.3921 23.288 71.4348 22.1147 71.4348 20.984C71.4348 19.8533 71.3921 18.712 71.3068 17.56C71.2214 16.408 71.0828 15.1813 70.8908 13.88C70.8268 13.4533 70.6668 13.144 70.4108 12.952C70.1548 12.7387 69.8774 12.632 69.5788 12.632C69.2161 12.632 68.8961 12.7707 68.6188 13.048C68.3414 13.3253 68.2348 13.7413 68.2988 14.296C68.4481 15.32 68.5654 16.2907 68.6508 17.208C68.7361 18.104 68.8001 18.9573 68.8428 19.768C68.8428 19.7893 68.7468 19.9173 68.5548 20.152C68.3628 20.3867 68.0961 20.6427 67.7548 20.92C67.4348 21.1973 67.0508 21.4533 66.6028 21.688C66.1548 21.9013 65.6534 22.008 65.0988 22.008C64.9281 22.008 64.7574 21.9973 64.5868 21.976C64.4161 21.9547 64.2454 21.912 64.0748 21.848C63.5201 21.6773 63.0401 21.3787 62.6348 20.952C62.2508 20.5253 61.9734 20.0133 61.8028 19.416C61.6534 18.8187 61.6321 18.1573 61.7388 17.432C61.8668 16.6853 62.1654 15.9173 62.6348 15.128C62.9334 14.5093 62.9654 14.008 62.7308 13.624C62.4961 13.24 62.1654 13.048 61.7388 13.048C61.5254 13.048 61.3014 13.112 61.0668 13.24C60.8534 13.368 60.6614 13.5813 60.4908 13.88C59.9788 14.7547 59.6268 15.7467 59.4348 16.856C59.2641 17.944 59.2961 19 59.5308 20.024C59.7654 21.0267 60.2134 21.9227 60.8748 22.712C61.5574 23.48 62.4854 23.9813 63.6588 24.216C64.0428 24.28 64.4268 24.312 64.8108 24.312C65.5574 24.312 66.2614 24.1947 66.9228 23.96C67.6054 23.704 68.2454 23.352 68.8428 22.904ZM73.5188 23.576C73.5188 22.616 73.6681 21.7413 73.9668 20.952C74.2868 20.1627 74.7241 19.4907 75.2788 18.936C75.8334 18.36 76.5054 17.9227 77.2948 17.624C78.1054 17.304 78.9908 17.144 79.9508 17.144C80.9108 17.144 81.7854 17.304 82.5748 17.624C83.3641 17.9227 84.0361 18.36 84.5908 18.936C85.1668 19.4907 85.6041 20.1627 85.9028 20.952C86.2228 21.7413 86.3828 22.616 86.3828 23.576C86.3828 24.536 86.2228 25.4107 85.9028 26.2C85.6041 26.9893 85.1668 27.672 84.5908 28.248C84.0361 28.824 83.3641 29.272 82.5748 29.592C81.7854 29.8907 80.9108 30.04 79.9508 30.04C78.9908 30.04 78.1054 29.8907 77.2948 29.592C76.5054 29.272 75.8334 28.824 75.2788 28.248C74.7241 27.672 74.2868 26.9893 73.9668 26.2C73.6681 25.4107 73.5188 24.536 73.5188 23.576ZM76.0788 23.576C76.0788 24.728 76.4308 25.6667 77.1348 26.392C77.8388 27.1173 78.7774 27.48 79.9508 27.48C81.3801 27.48 82.4148 27.1173 83.0548 26.392C83.7161 25.6667 84.0468 24.728 84.0468 23.576C84.0468 22.4027 83.6948 21.464 82.9908 20.76C82.3081 20.056 81.2948 19.704 79.9508 19.704C78.7774 19.704 77.8388 20.0667 77.1348 20.792C76.4308 21.496 76.0788 22.424 76.0788 23.576ZM87.4068 16.312C87.4068 17.0373 87.4068 17.7733 87.4068 18.52V22.616C87.4281 23.512 87.4494 24.376 87.4708 25.208C87.5134 26.04 87.5561 26.776 87.5988 27.416C87.6414 28.184 87.6841 28.8987 87.7268 29.56C87.7694 29.9867 87.6521 30.328 87.3748 30.584C87.1188 30.8187 86.8308 30.9467 86.5108 30.968C86.1908 30.9893 85.8814 30.904 85.5828 30.712C85.3054 30.52 85.1454 30.2 85.1028 29.752C85.0601 29.0693 85.0174 28.344 84.9748 27.576C84.9321 26.9147 84.8894 26.1573 84.8468 25.304C84.8254 24.4507 84.8041 23.576 84.7828 22.68V18.52C84.7828 17.7733 84.7828 17.0373 84.7828 16.312C84.7828 15.864 84.9214 15.5333 85.1988 15.32C85.4761 15.1067 85.7748 15 86.0948 15C86.4361 15 86.7348 15.1173 86.9908 15.352C87.2681 15.5653 87.4068 15.8853 87.4068 16.312ZM92.2358 29.528C92.8758 28.7173 93.5691 27.8853 94.3158 27.032C95.0624 26.1573 95.8411 25.304 96.6518 24.472C97.4838 23.6187 98.3158 22.808 99.1478 22.04C100.001 21.272 100.844 20.5893 101.676 19.992C102.145 20.376 102.636 20.792 103.148 21.24C103.574 21.6453 104.054 22.1147 104.588 22.648C105.142 23.1813 105.697 23.768 106.252 24.408C106.849 25.0907 107.393 25.7413 107.884 26.36C108.396 26.9573 108.844 27.4907 109.228 27.96C109.676 28.5147 110.081 29.0267 110.444 29.496C110.721 29.8587 111.052 30.04 111.436 30.04C111.67 30.04 111.884 29.976 112.076 29.848C112.289 29.72 112.46 29.56 112.588 29.368C112.716 29.1547 112.78 28.9307 112.78 28.696C112.78 28.44 112.684 28.1947 112.492 27.96C112.108 27.4693 111.692 26.9467 111.244 26.392C110.86 25.9013 110.401 25.3467 109.868 24.728C109.356 24.088 108.79 23.4267 108.172 22.744C107.468 21.9333 106.774 21.208 106.092 20.568C105.409 19.928 104.801 19.3733 104.268 18.904C103.734 18.4347 103.297 18.072 102.956 17.816C102.636 17.56 102.476 17.432 102.476 17.432C102.262 17.2613 102.006 17.176 101.708 17.176C101.409 17.176 100.961 17.3787 100.364 17.784C99.7878 18.1893 99.1798 18.6587 98.5398 19.192C97.8998 19.704 97.3024 20.2267 96.7478 20.76C96.2144 21.272 95.8304 21.6453 95.5958 21.88C94.9344 22.5413 94.2838 23.224 93.6438 23.928C93.0038 24.632 92.4278 25.2827 91.9158 25.88C91.3398 26.584 90.7851 27.2667 90.2518 27.928C90.0598 28.184 89.9638 28.44 89.9638 28.696C89.9638 28.9307 90.0171 29.1547 90.1238 29.368C90.2518 29.56 90.4118 29.72 90.6038 29.848C90.8171 29.976 91.0411 30.04 91.2758 30.04C91.6384 30.04 91.9584 29.8693 92.2358 29.528ZM113.901 23.576C113.901 22.616 114.051 21.7413 114.349 20.952C114.669 20.1627 115.107 19.4907 115.661 18.936C116.216 18.36 116.888 17.9227 117.677 17.624C118.488 17.304 119.373 17.144 120.333 17.144C121.293 17.144 122.168 17.304 122.957 17.624C123.747 17.9227 124.419 18.36 124.973 18.936C125.549 19.4907 125.987 20.1627 126.285 20.952C126.605 21.7413 126.765 22.616 126.765 23.576C126.765 24.536 126.605 25.4107 126.285 26.2C125.987 26.9893 125.549 27.672 124.973 28.248C124.419 28.824 123.747 29.272 122.957 29.592C122.168 29.8907 121.293 30.04 120.333 30.04C119.373 30.04 118.488 29.8907 117.677 29.592C116.888 29.272 116.216 28.824 115.661 28.248C115.107 27.672 114.669 26.9893 114.349 26.2C114.051 25.4107 113.901 24.536 113.901 23.576ZM116.461 23.576C116.461 24.728 116.813 25.6667 117.517 26.392C118.221 27.1173 119.16 27.48 120.333 27.48C121.763 27.48 122.797 27.1173 123.437 26.392C124.099 25.6667 124.429 24.728 124.429 23.576C124.429 22.4027 124.077 21.464 123.373 20.76C122.691 20.056 121.677 19.704 120.333 19.704C119.16 19.704 118.221 20.0667 117.517 20.792C116.813 21.496 116.461 22.424 116.461 23.576Z" fill="#F27F94"/>
<circle cx="-2" cy="22" r="15.5" fill="white" stroke="#F27F94" stroke-width="13"/>
<path d="M-15 18L-15.0001 736.501C-15.0001 774.056 15.4445 804.501 52.9999 804.501L318.5 804.501C356.055 804.501 386.5 834.945 386.5 872.501L386.5 1202.25L386.5 1571.5C386.5 1609.06 356.055 1639.5 318.5 1639.5L53 1639.5C15.4446 1639.5 -15 1669.94 -15 1707.5L-15 2354C-15 2391.55 15.4446 2422 53 2422L119.5 2422C157.055 2422 187.5 2452.44 187.5 2490L187.5 2535" stroke="#FCEEF4" stroke-width="8" stroke-linecap="round" stroke-dasharray="32 35"/>
<circle cx="-2" cy="1733" r="15.5" fill="white" stroke="#5F73AA" stroke-width="13"/>
<circle cx="-2" cy="891" r="15.5" fill="white" stroke="#FFC124" stroke-width="13"/>
</svg>
