<svg viewBox="0 0 98 19" fill="none" xmlns="http://www.w3.org/2000/svg">
    <path d="M0.28 8.984C0.28 10.1147 0.312 11.288 0.376 12.504C0.461333 13.72 0.610667 15.1387 0.824 16.76C0.888 17.208 1.048 17.5387 1.304 17.752C1.56 17.944 1.83733 18.04 2.136 18.04C2.47733 18.04 2.776 17.9013 3.032 17.624C3.30933 17.3467 3.416 16.952 3.352 16.44C3.20267 15.352 3.096 14.3707 3.032 13.496C2.968 12.6 2.91467 11.7787 2.872 11.032C3.29867 11.1173 3.77867 11.16 4.312 11.16C5.16533 11.16 6.01867 11.0427 6.872 10.808C7.72533 10.552 8.51467 10.2107 9.24 9.784C9.21867 10.6373 9.16533 11.608 9.08 12.696C9.016 13.784 8.89867 15.032 8.728 16.44C8.664 16.952 8.76 17.3467 9.016 17.624C9.29333 17.9013 9.60267 18.04 9.944 18.04C10.2427 18.04 10.52 17.944 10.776 17.752C11.032 17.5387 11.192 17.208 11.256 16.76C11.4693 15.1387 11.608 13.72 11.672 12.504C11.7573 11.288 11.8 10.1147 11.8 8.984C11.8 7.85333 11.7573 6.712 11.672 5.56C11.5867 4.408 11.448 3.18133 11.256 1.88C11.192 1.45333 11.032 1.144 10.776 0.952C10.52 0.738667 10.2427 0.632 9.944 0.632C9.58133 0.632 9.26133 0.770666 8.984 1.048C8.70667 1.32533 8.6 1.74133 8.664 2.296C8.87733 3.78933 9.03733 5.18667 9.144 6.488C8.888 6.808 8.57867 7.096 8.216 7.352C7.85333 7.608 7.45867 7.832 7.032 8.024C6.60533 8.216 6.15733 8.36533 5.688 8.472C5.24 8.55733 4.792 8.6 4.344 8.6C4.06667 8.6 3.8 8.57867 3.544 8.536C3.30933 8.49333 3.07467 8.44 2.84 8.376C2.904 6.62667 3.096 4.6 3.416 2.296C3.48 1.74133 3.37333 1.32533 3.096 1.048C2.81867 0.770666 2.49867 0.632 2.136 0.632C1.83733 0.632 1.56 0.738667 1.304 0.952C1.048 1.144 0.888 1.45333 0.824 1.88C0.632 3.18133 0.493333 4.408 0.408 5.56C0.322667 6.712 0.28 7.85333 0.28 8.984ZM13.8938 11.576C13.8938 10.616 14.0431 9.74133 14.3418 8.952C14.6618 8.16267 15.0991 7.49067 15.6538 6.936C16.2084 6.36 16.8804 5.92267 17.6698 5.624C18.4804 5.304 19.3658 5.144 20.3258 5.144C21.2858 5.144 22.1604 5.304 22.9498 5.624C23.7391 5.92267 24.4111 6.36 24.9658 6.936C25.5418 7.49067 25.9791 8.16267 26.2778 8.952C26.5978 9.74133 26.7578 10.616 26.7578 11.576C26.7578 12.536 26.5978 13.4107 26.2778 14.2C25.9791 14.9893 25.5418 15.672 24.9658 16.248C24.4111 16.824 23.7391 17.272 22.9498 17.592C22.1604 17.8907 21.2858 18.04 20.3258 18.04C19.3658 18.04 18.4804 17.8907 17.6698 17.592C16.8804 17.272 16.2084 16.824 15.6538 16.248C15.0991 15.672 14.6618 14.9893 14.3418 14.2C14.0431 13.4107 13.8938 12.536 13.8938 11.576ZM16.4538 11.576C16.4538 12.728 16.8058 13.6667 17.5098 14.392C18.2138 15.1173 19.1524 15.48 20.3258 15.48C21.7551 15.48 22.7898 15.1173 23.4298 14.392C24.0911 13.6667 24.4218 12.728 24.4218 11.576C24.4218 10.4027 24.0698 9.464 23.3658 8.76C22.6831 8.056 21.6698 7.704 20.3258 7.704C19.1524 7.704 18.2138 8.06667 17.5098 8.792C16.8058 9.496 16.4538 10.424 16.4538 11.576ZM27.7818 4.312C27.7818 5.03733 27.7818 5.77333 27.7818 6.52V10.616C27.8031 11.512 27.8244 12.376 27.8458 13.208C27.8884 14.04 27.9311 14.776 27.9738 15.416C28.0164 16.184 28.0591 16.8987 28.1018 17.56C28.1444 17.9867 28.0271 18.328 27.7498 18.584C27.4938 18.8187 27.2058 18.9467 26.8858 18.968C26.5658 18.9893 26.2564 18.904 25.9578 18.712C25.6804 18.52 25.5204 18.2 25.4778 17.752C25.4351 17.0693 25.3924 16.344 25.3498 15.576C25.3071 14.9147 25.2644 14.1573 25.2218 13.304C25.2004 12.4507 25.1791 11.576 25.1578 10.68V6.52C25.1578 5.77333 25.1578 5.03733 25.1578 4.312C25.1578 3.864 25.2964 3.53333 25.5738 3.32C25.8511 3.10667 26.1498 3 26.4698 3C26.8111 3 27.1098 3.11733 27.3658 3.352C27.6431 3.56533 27.7818 3.88533 27.7818 4.312ZM39.8428 10.904C39.8001 11.6507 39.7468 12.4827 39.6828 13.4C39.6188 14.3173 39.5121 15.3307 39.3628 16.44C39.2988 16.952 39.3948 17.3467 39.6508 17.624C39.9281 17.9013 40.2374 18.04 40.5788 18.04C40.8774 18.04 41.1548 17.944 41.4108 17.752C41.6668 17.5387 41.8268 17.208 41.8908 16.76C42.1041 15.1387 42.2428 13.72 42.3068 12.504C42.3921 11.288 42.4348 10.1147 42.4348 8.984C42.4348 7.85333 42.3921 6.712 42.3068 5.56C42.2214 4.408 42.0828 3.18133 41.8908 1.88C41.8268 1.45333 41.6668 1.144 41.4108 0.952C41.1548 0.738667 40.8774 0.632 40.5788 0.632C40.2161 0.632 39.8961 0.770666 39.6188 1.048C39.3414 1.32533 39.2348 1.74133 39.2988 2.296C39.4481 3.32 39.5654 4.29067 39.6508 5.208C39.7361 6.104 39.8001 6.95733 39.8428 7.768C39.8428 7.78933 39.7468 7.91733 39.5548 8.152C39.3628 8.38667 39.0961 8.64267 38.7548 8.92C38.4348 9.19733 38.0508 9.45333 37.6028 9.688C37.1548 9.90133 36.6534 10.008 36.0988 10.008C35.9281 10.008 35.7574 9.99733 35.5868 9.976C35.4161 9.95467 35.2454 9.912 35.0748 9.848C34.5201 9.67733 34.0401 9.37867 33.6348 8.952C33.2508 8.52533 32.9734 8.01333 32.8028 7.416C32.6534 6.81867 32.6321 6.15733 32.7388 5.432C32.8668 4.68533 33.1654 3.91733 33.6348 3.128C33.9334 2.50933 33.9654 2.008 33.7308 1.624C33.4961 1.24 33.1654 1.048 32.7388 1.048C32.5254 1.048 32.3014 1.112 32.0668 1.24C31.8534 1.368 31.6614 1.58133 31.4908 1.88C30.9788 2.75467 30.6268 3.74667 30.4348 4.856C30.2641 5.944 30.2961 7 30.5308 8.024C30.7654 9.02667 31.2134 9.92267 31.8748 10.712C32.5574 11.48 33.4854 11.9813 34.6588 12.216C35.0428 12.28 35.4268 12.312 35.8108 12.312C36.5574 12.312 37.2614 12.1947 37.9228 11.96C38.6054 11.704 39.2454 11.352 39.8428 10.904ZM44.5188 11.576C44.5188 10.616 44.6681 9.74133 44.9668 8.952C45.2868 8.16267 45.7241 7.49067 46.2788 6.936C46.8334 6.36 47.5054 5.92267 48.2948 5.624C49.1054 5.304 49.9908 5.144 50.9508 5.144C51.9108 5.144 52.7854 5.304 53.5748 5.624C54.3641 5.92267 55.0361 6.36 55.5908 6.936C56.1668 7.49067 56.6041 8.16267 56.9028 8.952C57.2228 9.74133 57.3828 10.616 57.3828 11.576C57.3828 12.536 57.2228 13.4107 56.9028 14.2C56.6041 14.9893 56.1668 15.672 55.5908 16.248C55.0361 16.824 54.3641 17.272 53.5748 17.592C52.7854 17.8907 51.9108 18.04 50.9508 18.04C49.9908 18.04 49.1054 17.8907 48.2948 17.592C47.5054 17.272 46.8334 16.824 46.2788 16.248C45.7241 15.672 45.2868 14.9893 44.9668 14.2C44.6681 13.4107 44.5188 12.536 44.5188 11.576ZM47.0788 11.576C47.0788 12.728 47.4308 13.6667 48.1348 14.392C48.8388 15.1173 49.7774 15.48 50.9508 15.48C52.3801 15.48 53.4148 15.1173 54.0548 14.392C54.7161 13.6667 55.0468 12.728 55.0468 11.576C55.0468 10.4027 54.6948 9.464 53.9908 8.76C53.3081 8.056 52.2948 7.704 50.9508 7.704C49.7774 7.704 48.8388 8.06667 48.1348 8.792C47.4308 9.496 47.0788 10.424 47.0788 11.576ZM58.4068 4.312C58.4068 5.03733 58.4068 5.77333 58.4068 6.52V10.616C58.4281 11.512 58.4494 12.376 58.4708 13.208C58.5134 14.04 58.5561 14.776 58.5988 15.416C58.6414 16.184 58.6841 16.8987 58.7268 17.56C58.7694 17.9867 58.6521 18.328 58.3748 18.584C58.1188 18.8187 57.8308 18.9467 57.5108 18.968C57.1908 18.9893 56.8814 18.904 56.5828 18.712C56.3054 18.52 56.1454 18.2 56.1028 17.752C56.0601 17.0693 56.0174 16.344 55.9748 15.576C55.9321 14.9147 55.8894 14.1573 55.8468 13.304C55.8254 12.4507 55.8041 11.576 55.7828 10.68V6.52C55.7828 5.77333 55.7828 5.03733 55.7828 4.312C55.7828 3.864 55.9214 3.53333 56.1988 3.32C56.4761 3.10667 56.7748 3 57.0948 3C57.4361 3 57.7348 3.11733 57.9908 3.352C58.2681 3.56533 58.4068 3.88533 58.4068 4.312ZM63.2358 17.528C63.8758 16.7173 64.5691 15.8853 65.3158 15.032C66.0624 14.1573 66.8411 13.304 67.6518 12.472C68.4838 11.6187 69.3158 10.808 70.1478 10.04C71.0011 9.272 71.8438 8.58933 72.6758 7.992C73.1451 8.376 73.6358 8.792 74.1478 9.24C74.5744 9.64533 75.0544 10.1147 75.5878 10.648C76.1424 11.1813 76.6971 11.768 77.2518 12.408C77.8491 13.0907 78.3931 13.7413 78.8838 14.36C79.3958 14.9573 79.8438 15.4907 80.2278 15.96C80.6758 16.5147 81.0811 17.0267 81.4438 17.496C81.7211 17.8587 82.0518 18.04 82.4358 18.04C82.6704 18.04 82.8838 17.976 83.0758 17.848C83.2891 17.72 83.4598 17.56 83.5878 17.368C83.7158 17.1547 83.7798 16.9307 83.7798 16.696C83.7798 16.44 83.6838 16.1947 83.4918 15.96C83.1078 15.4693 82.6918 14.9467 82.2438 14.392C81.8598 13.9013 81.4011 13.3467 80.8678 12.728C80.3558 12.088 79.7904 11.4267 79.1718 10.744C78.4678 9.93333 77.7744 9.208 77.0918 8.568C76.4091 7.928 75.8011 7.37333 75.2678 6.904C74.7344 6.43467 74.2971 6.072 73.9558 5.816C73.6358 5.56 73.4758 5.432 73.4758 5.432C73.2624 5.26133 73.0064 5.176 72.7078 5.176C72.4091 5.176 71.9611 5.37867 71.3638 5.784C70.7878 6.18933 70.1798 6.65867 69.5398 7.192C68.8998 7.704 68.3024 8.22667 67.7478 8.76C67.2144 9.272 66.8304 9.64533 66.5958 9.88C65.9344 10.5413 65.2838 11.224 64.6438 11.928C64.0038 12.632 63.4278 13.2827 62.9158 13.88C62.3398 14.584 61.7851 15.2667 61.2518 15.928C61.0598 16.184 60.9638 16.44 60.9638 16.696C60.9638 16.9307 61.0171 17.1547 61.1238 17.368C61.2518 17.56 61.4118 17.72 61.6038 17.848C61.8171 17.976 62.0411 18.04 62.2758 18.04C62.6384 18.04 62.9584 17.8693 63.2358 17.528ZM84.9013 11.576C84.9013 10.616 85.0506 9.74133 85.3493 8.952C85.6693 8.16267 86.1066 7.49067 86.6613 6.936C87.2159 6.36 87.8879 5.92267 88.6773 5.624C89.4879 5.304 90.3733 5.144 91.3333 5.144C92.2933 5.144 93.1679 5.304 93.9573 5.624C94.7466 5.92267 95.4186 6.36 95.9733 6.936C96.5493 7.49067 96.9866 8.16267 97.2853 8.952C97.6053 9.74133 97.7653 10.616 97.7653 11.576C97.7653 12.536 97.6053 13.4107 97.2853 14.2C96.9866 14.9893 96.5493 15.672 95.9733 16.248C95.4186 16.824 94.7466 17.272 93.9573 17.592C93.1679 17.8907 92.2933 18.04 91.3333 18.04C90.3733 18.04 89.4879 17.8907 88.6773 17.592C87.8879 17.272 87.2159 16.824 86.6613 16.248C86.1066 15.672 85.6693 14.9893 85.3493 14.2C85.0506 13.4107 84.9013 12.536 84.9013 11.576ZM87.4613 11.576C87.4613 12.728 87.8133 13.6667 88.5173 14.392C89.2213 15.1173 90.1599 15.48 91.3333 15.48C92.7626 15.48 93.7973 15.1173 94.4373 14.392C95.0986 13.6667 95.4293 12.728 95.4293 11.576C95.4293 10.4027 95.0773 9.464 94.3733 8.76C93.6906 8.056 92.6773 7.704 91.3333 7.704C90.1599 7.704 89.2213 8.06667 88.5173 8.792C87.8133 9.496 87.4613 10.424 87.4613 11.576Z" fill="#F27F94"/>
</svg>
