<svg viewBox="0 0 81 88" fill="none" xmlns="http://www.w3.org/2000/svg">
    <path d="M17.4108 31.764C14.3239 29.9101 10.9901 28.0562 7.53275 26.2022C5.55714 25.0899 4.19891 23.7303 3.58153 22C2.96415 20.2697 2.96415 18.6629 3.45806 17.0562C3.95196 15.4494 4.93976 13.9663 6.29799 12.8539C7.65623 11.618 9.26141 11 11.1135 11C12.5953 11 13.9535 11.3708 15.1882 11.9888C18.3986 13.5955 21.609 15.3258 24.5724 16.9326C27.6593 18.6629 30.4992 20.2697 33.2157 21.8764V8.1573C33.2157 5.4382 34.08 3.46067 35.8087 2.10112C37.4138 0.617978 39.266 0 41.3651 0C43.3407 0 45.1928 0.617978 46.9215 1.97753C48.6501 3.33708 49.391 5.4382 49.391 8.1573V26.2022L69.2706 16.6854C70.3818 16.191 71.6166 15.8202 73.0983 15.8202C74.9504 15.8202 76.5556 16.4382 77.9138 17.6742C79.2721 18.9101 80.1364 20.3933 80.6303 22C81.1242 23.7303 81.0007 25.3371 80.3833 27.0674C79.766 28.7978 78.4077 30.1573 76.1852 31.2697L57.7873 40.1685C64.3315 45.8539 70.9992 52.2809 77.7904 59.6966C79.2721 61.1798 80.1364 62.7865 80.2599 64.3933C80.3834 66 80.1364 67.4831 79.3956 68.7191C78.7782 69.9551 77.7904 71.0674 76.4321 71.9326C75.1974 72.7978 73.7157 73.2921 72.1105 73.2921C69.8879 73.2921 68.0358 72.427 66.1837 70.6966C63.0968 67.6067 60.1334 64.764 57.4169 62.0449C54.8239 59.3258 52.1074 56.7303 49.391 54.382V79.9663C49.391 82.6854 48.5267 84.6629 46.798 86.0225C45.0693 87.382 43.2172 88 41.2416 88C39.266 88 37.4138 87.382 35.6852 86.0225C33.9565 84.6629 33.0922 82.6854 33.0922 79.9663V51.9101L11.7309 62.2921C10.6196 62.7865 9.38488 63.0337 7.90318 63.0337C6.05104 63.0337 4.44586 62.4157 3.08763 61.1798C1.7294 59.9438 0.865069 58.4607 0.371166 56.8539C-0.122736 55.1236 0.000739336 53.3933 0.618117 51.6629C1.2355 49.9326 2.59373 48.573 4.81629 47.5843L26.548 37.2023C23.4611 35.4719 20.4977 33.618 17.4108 31.764Z" fill="#5F73AA"/>
</svg>
