<svg width="28" height="36" viewBox="0 0 28 36" fill="none" xmlns="http://www.w3.org/2000/svg">
<path d="M27.3505 14.2788C27.3523 11.2066 26.3398 8.21974 24.4702 5.78191C22.6007 3.34408 19.9786 1.59163 17.0111 0.79663C14.0435 0.00162494 10.8965 0.208532 8.05865 1.38523C5.22082 2.5619 2.85081 4.64249 1.31652 7.30402C1.22071 7.46946 1.15856 7.65221 1.13366 7.84176C1.10874 8.03138 1.12159 8.22405 1.17145 8.40869C1.22131 8.59332 1.30721 8.76626 1.4242 8.91756L1.58242 8.79522L1.4242 8.91756C1.54118 9.06885 1.68695 9.19551 1.85309 9.29023L1.8534 9.29041C2.18632 9.47944 2.5805 9.52912 2.94992 9.42862C3.31934 9.32811 3.63401 9.08558 3.82528 8.75394L3.82537 8.75379C5.03837 6.64654 6.91259 4.99823 9.15753 4.06434C11.4025 3.13046 13.8928 2.96314 16.2425 3.58833C18.5922 4.21351 20.67 5.59629 22.154 7.52234C23.6379 9.44827 24.4452 11.8099 24.4506 14.2411C24.4506 18.112 22.3365 22.0711 19.8643 25.3737C17.4748 28.5656 14.7731 31.1151 13.3998 32.3366C12.3017 31.3815 10.3586 29.5675 8.40305 27.2488C6.36505 24.8325 4.3224 21.8785 3.20263 18.7853L3.20239 18.7846C3.07141 18.4267 2.80476 18.1347 2.46015 17.9719C2.11553 17.8091 1.72067 17.7885 1.361 17.9147L1.36085 17.9147C1.18062 17.9781 1.01468 18.0764 0.872583 18.2041C0.730482 18.3318 0.615019 18.4863 0.53283 18.6588C0.45064 18.8313 0.403345 19.0183 0.393661 19.2091C0.383977 19.3999 0.412095 19.5907 0.4764 19.7706L0.476608 19.7712C1.98954 23.9633 4.90639 27.8016 7.48222 30.6218C10.0547 33.4384 12.3004 35.2539 12.5036 35.4101C12.7594 35.6118 13.0756 35.7215 13.4014 35.7215C13.7276 35.7215 14.0444 35.6115 14.3003 35.4092L14.3004 35.4091C14.5753 35.1918 17.8309 32.5569 21.0197 28.6606C24.203 24.7712 27.3504 19.588 27.3505 14.2788ZM27.3505 14.2788L27.1505 14.2786H27.3505C27.3505 14.2787 27.3505 14.2787 27.3505 14.2788ZM9.81819 19.6413C10.8788 20.35 12.1258 20.7282 13.4014 20.7282C15.1119 20.7282 16.7524 20.0487 17.9619 18.8392C19.1715 17.6297 19.851 15.9892 19.851 14.2786C19.851 13.003 19.4727 11.7561 18.764 10.6954C18.0553 9.63482 17.048 8.80816 15.8695 8.32C14.691 7.83185 13.3942 7.70413 12.1431 7.95298C10.892 8.20184 9.74283 8.81611 8.84084 9.7181C7.93885 10.6201 7.32459 11.7693 7.07573 13.0204C6.82687 14.2715 6.95459 15.5683 7.44275 16.7468C7.9309 17.9253 8.75756 18.9326 9.81819 19.6413ZM15.3735 17.2302C14.7898 17.6202 14.1035 17.8284 13.4014 17.8284C12.4599 17.8284 11.557 17.4544 10.8913 16.7887C10.2256 16.123 9.85164 15.2201 9.85164 14.2786C9.85164 13.5766 10.0598 12.8903 10.4499 12.3065C10.8399 11.7228 11.3943 11.2678 12.043 10.9991C12.6916 10.7304 13.4053 10.6601 14.0939 10.7971C14.7825 10.9341 15.415 11.2721 15.9114 11.7686C16.4079 12.265 16.746 12.8975 16.8829 13.5861C17.0199 14.2747 16.9496 14.9884 16.6809 15.6371C16.4123 16.2857 15.9573 16.8401 15.3735 17.2302Z" fill="#D23C50" stroke="#D23C50" stroke-width="0.4"/>
</svg>
