<svg width="38" height="27" viewBox="0 0 38 27" fill="none" xmlns="http://www.w3.org/2000/svg">
<path d="M3.39413 0.126953C1.53622 0.126953 0 1.65007 0 3.50799V22.7327C0 24.5906 1.53623 26.1268 3.39413 26.1268H5.88404C6.05075 26.1292 6.21626 26.0984 6.37096 26.0362C6.52566 25.9741 6.66647 25.8818 6.78519 25.7647C6.90391 25.6477 6.99819 25.5082 7.06253 25.3544C7.12688 25.2006 7.16002 25.0355 7.16002 24.8688C7.16002 24.702 7.12688 24.537 7.06253 24.3832C6.99819 24.2294 6.90391 24.0899 6.78519 23.9728C6.66647 23.8558 6.52566 23.7635 6.37096 23.7013C6.21626 23.6392 6.05075 23.6084 5.88404 23.6107H3.93143L14.2056 14.8174L18.0322 18.2509C18.2628 18.4571 18.5614 18.5712 18.8709 18.5712C19.1803 18.5712 19.4789 18.4571 19.7096 18.2509L23.5362 14.8174L33.8103 23.6107H10.4838C10.3171 23.6084 10.1516 23.6392 9.99689 23.7013C9.84219 23.7635 9.70139 23.8558 9.58267 23.9728C9.46394 24.0899 9.36967 24.2294 9.30532 24.3832C9.24098 24.537 9.20784 24.702 9.20784 24.8688C9.20784 25.0355 9.24098 25.2006 9.30532 25.3544C9.36967 25.5082 9.46394 25.6477 9.58267 25.7647C9.70139 25.8818 9.84219 25.9741 9.99689 26.0362C10.1516 26.0984 10.3171 26.1292 10.4838 26.1268H34.3476C36.2055 26.1268 37.7417 24.5906 37.7417 22.7327V3.50799C37.7417 1.65007 36.2055 0.126953 34.3476 0.126953H3.39413ZM4.4032 2.64307H33.3385L18.8709 15.6299L4.4032 2.64307ZM2.51612 4.33359L12.3185 13.1269L2.51612 21.5008V4.33359ZM35.2256 4.33359V21.5008L25.4233 13.1269L35.2256 4.33359Z" fill="#D23C50"/>
</svg>
