<svg width="33" height="33" viewBox="0 0 33 33" fill="none" xmlns="http://www.w3.org/2000/svg">
    <path d="M6.51114 3.9858L6.50058 3.99497C6.48427 4.00919 6.45984 4.03063 6.4283 4.05868C6.36521 4.11478 6.27385 4.19717 6.16249 4.30082C5.93941 4.50846 5.63797 4.79967 5.32369 5.13444C5.00855 5.47013 4.68604 5.84377 4.41774 6.21642C4.14668 6.59289 3.95081 6.94131 3.86088 7.23084C3.3254 9.0996 3.89452 11.5861 5.2978 14.3041C6.69163 17.0037 8.86168 19.8399 11.3696 22.3547C13.8775 24.8696 16.7027 27.0426 19.3927 28.4307C22.1024 29.829 24.5804 30.383 26.4473 29.821C26.7374 29.7315 27.0869 29.5352 27.4646 29.2633C27.8372 28.995 28.2109 28.6725 28.5466 28.3573C28.8813 28.0431 29.1726 27.7416 29.3802 27.5185C29.4838 27.4072 29.5662 27.3158 29.6223 27.2527C29.6375 27.2356 29.6508 27.2206 29.662 27.2079C29.6715 27.1971 29.6795 27.1879 29.686 27.1805L29.7019 27.1622L29.7056 27.158L29.7063 27.1571C29.706 27.1575 29.706 27.1574 29.7064 27.157C29.7064 27.157 29.7064 27.157 29.7064 27.157C29.7064 27.157 29.7064 27.157 29.7064 27.157C29.7066 27.1568 29.7068 27.1566 29.707 27.1563C29.7079 27.1551 29.7095 27.1532 29.7116 27.1505C29.7137 27.1478 29.7163 27.1444 29.7194 27.1403C29.732 27.1235 29.7527 27.0946 29.7778 27.0543C29.8281 26.9735 29.895 26.8489 29.9513 26.6856C30.0622 26.364 30.1364 25.8817 29.9461 25.2633C29.5755 24.0587 28.4701 23.3405 25.8474 22.3142L25.8373 22.3103L25.8373 22.3102C25.69 22.2488 25.5515 22.1909 25.4211 22.1364C24.9489 21.9392 24.5824 21.7862 24.2863 21.6694C23.9039 21.5185 23.6726 21.442 23.509 21.4093C23.3652 21.3806 23.2924 21.3894 23.2212 21.41C23.123 21.4383 23.0176 21.4911 22.7946 21.6026L22.7821 21.6089C22.3618 21.8745 21.7473 22.3543 21.2189 22.7853C20.9543 23.0012 20.7173 23.1999 20.5464 23.3446C20.461 23.4169 20.3923 23.4756 20.345 23.5162L20.2909 23.5628L20.277 23.5747L20.2736 23.5777L20.2728 23.5784L20.2726 23.5786L20.2726 23.5786L20.0573 23.7652L19.787 23.6751C19.5013 23.5798 19.1547 23.3697 18.793 23.115C18.4194 22.852 17.9886 22.5113 17.5254 22.1194C16.5982 21.3352 15.5209 20.3287 14.4789 19.2867C13.4368 18.2446 12.4234 17.1604 11.6254 16.2196C11.2266 15.7494 10.8777 15.3104 10.6046 14.9273C10.3383 14.5536 10.1208 14.2013 10.0121 13.9115L9.89909 13.61L6.51114 3.9858ZM6.51114 3.9858C6.51494 3.98309 6.52001 3.97954 6.5263 3.97526C6.54723 3.961 6.58146 3.93875 6.62766 3.91215C6.72051 3.85868 6.85891 3.7893 7.03277 3.73134C7.37872 3.61603 7.85657 3.54797 8.40669 3.73134L8.40664 3.73147L8.41776 3.73489C9.02113 3.92055 9.50072 4.28974 9.97431 4.95533C10.4591 5.6366 10.9192 6.60225 11.4815 7.95136C11.5936 8.2379 11.6934 8.48943 11.7822 8.71324C11.8963 9.00097 11.9923 9.2429 12.073 9.45457C12.2175 9.83334 12.2943 10.0682 12.3274 10.2394C12.357 10.3921 12.3471 10.4714 12.3239 10.5448C12.293 10.6429 12.2288 10.7611 12.0845 10.992L12.0719 11.0122L12.0613 11.0334C11.8696 11.4168 11.4064 11.9907 10.9517 12.5023C10.7314 12.7501 10.5245 12.9709 10.3725 13.1297C10.2966 13.2091 10.2347 13.2727 10.1919 13.3163L10.1429 13.3661L10.1305 13.3786L10.1275 13.3816L10.1268 13.3823L10.1267 13.3824M6.51114 3.9858L10.1267 13.3824M10.1267 13.3824L10.1267 13.3824L10.1267 13.3824ZM31.4717 28.7183L31.4837 28.705L31.4947 28.6908C32.3886 27.5416 32.6399 25.9026 32.1382 24.5082C31.7525 23.2372 30.8656 22.34 29.8549 21.6711C28.847 21.0041 27.6728 20.5365 26.664 20.1441C26.3752 20.0285 26.109 19.9086 25.8422 19.7885C25.729 19.7375 25.6158 19.6865 25.5007 19.6358C25.1243 19.4699 24.7374 19.3114 24.3362 19.2092C23.5024 18.9966 22.6403 19.0366 21.626 19.6041C21 19.9196 20.3029 20.4856 19.7091 20.9807C18.8135 20.258 17.4579 18.9908 16.1313 17.6516C14.7923 16.3 13.5196 14.9121 12.8028 13.9762C13.2904 13.3622 13.7635 12.6771 14.0739 12.0611C14.642 11.1057 14.7122 10.2449 14.5168 9.39811C14.3667 8.74788 14.0527 8.09324 13.7391 7.43976C13.6694 7.29444 13.5997 7.14918 13.5319 7.00404C13.1406 5.99812 12.6741 4.82973 12.0099 3.82614C11.3387 2.81174 10.4374 1.9221 9.15918 1.53865L9.15923 1.5385L9.14707 1.53518C7.88083 1.18984 6.308 1.25576 5.23163 2.08094H5.10532L4.9627 2.2093C4.38502 2.72921 3.68937 3.42437 3.07723 4.18227C2.47127 4.9325 1.91754 5.7801 1.66436 6.60293L1.66435 6.60293L1.66334 6.6063C0.756624 9.62867 1.91719 13.0822 3.67996 16.1671C5.4547 19.2729 7.90774 22.1236 9.78604 24.0023C11.6128 25.8857 14.4374 28.3118 17.5302 30.0586C20.5981 31.7915 24.0436 32.9198 27.0596 32.0222C27.9035 31.8228 28.7599 31.2571 29.5032 30.6424C30.2627 30.0144 30.9574 29.2898 31.4717 28.7183Z" fill="#D23C50" stroke="#D23C50"/>
</svg>
