<svg  width="1920" height="844" viewBox="0 0 1920 844" fill="none" xmlns="http://www.w3.org/2000/svg">
    <mask id="mask0" mask-type="alpha" maskUnits="userSpaceOnUse" x="0" y="0" width="1920" height="844">
        <rect width="1920" height="844" fill="#C4C4C4"/>
    </mask>
    <g mask="url(#mask0)">
        <path d="M1546.5 98.6998C1090.5 87.2998 919.2 70.0998 463.1 58.6998C-309.2 39.2998 -356.8 1235 414.3 1254.3C870.4 1265.7 1041.7 1282.9 1497.8 1294.4C2270 1313.7 2317.7 118 1546.5 98.6998Z" fill="#E0E6F4"/>
        <path d="M1460.5 169.3C1019.6 150.3 854.2 130.7 413.2 111.7C-333.5 79.4998 -400.4 1235.2 345.1 1267.3C786 1286.3 951.4 1305.9 1392.4 1324.9C2139.1 1357.2 2206.1 201.5 1460.5 169.3Z" fill="#5F73AA"/>
    </g>
</svg>
