<svg width="1920" height="821" viewBox="0 0 1920 821" fill="none" xmlns="http://www.w3.org/2000/svg">
<g clip-path="url(#clip0)">
<path d="M509.6 819.8C916.7 795.4 1070.6 797.1 1477.7 772.7C2167 731.3 2115.4 -285.8 1427.2 -244.6C1020.1 -220.2 866.2 -221.9 459.1 -197.5C-230.2 -156.1 -178.7 861.1 509.6 819.8Z" fill="#FCEEF4"/>
<path d="M554.4 724.2C930 730.5 1071.1 743.5 1446.7 749.8C2082.6 760.5 2113.7 -224.2 1478.7 -234.9C1103.2 -241.2 962 -254.2 586.5 -260.5C-49.5002 -271.2 -80.6002 713.5 554.4 724.2Z" fill="#FADDEA"/>
<path d="M263.6 218C263.6 180.3 269.7 145.9 281.8 114.9C294 83.9001 310.9 57.3001 332.7 35.1001C354.5 12.9001 381.1 -4.2999 412.5 -16.3999C443.9 -28.5999 478.5 -34.5999 516.2 -34.5999C553.9 -34.5999 588.3 -28.4999 619.3 -16.3999C650.3 -4.19991 676.9 12.9001 699.1 35.1001C721.3 57.3001 738.5 83.9001 750.6 114.9C762.8 145.9 768.8 180.3 768.8 218C768.8 255.7 762.7 290.1 750.6 321.1C738.4 352.1 721.3 378.9 699.1 401.6C676.9 424.2 650.3 441.6 619.3 453.8C588.3 466 553.9 472 516.2 472C478.5 472 443.9 465.9 412.5 453.8C381.1 441.6 354.5 424.3 332.7 401.6C310.9 379 293.9 352.1 281.8 321.1C269.7 290.1 263.6 255.7 263.6 218ZM364.2 218C364.2 263.2 378 300.1 405.7 328.6C433.4 357.1 470.2 371.3 516.3 371.3C572.4 371.3 613.3 357.1 638.9 328.6C664.5 300.1 677.2 263.2 677.2 218C677.2 171.9 663.6 135 636.3 107.4C609 79.7001 569 65.9001 516.3 65.9001C470.2 65.9001 433.3 79.9001 405.7 108C378 136.1 364.2 172.7 364.2 218ZM809.2 -67.3999C809.2 -38.8999 809.2 -9.99991 809.2 19.3001V180.2C810 215.4 811.1 249.3 812.3 282C813.5 314.7 815 343.6 816.7 368.7C818.4 398.9 820 427 821.7 452.9C823.4 469.7 819 482.9 808.5 492.5C798 502.1 786.5 507.4 773.9 508.2C761.3 509 749.4 505.7 738.1 498.1C726.8 490.6 720.3 478 718.6 460.4C716.9 433.6 715.2 405.1 713.6 374.9C711.9 348.9 710.4 319.2 709.2 285.6C707.9 252.1 706.9 217.7 706.1 182.5V19.4001C706.1 -9.8999 706.1 -38.7999 706.1 -67.2999C706.1 -84.8999 711.5 -97.8999 722.4 -106.3C733.3 -114.7 745.2 -118.9 758.2 -118.9C771.2 -118.9 782.9 -114.5 793.4 -105.7C803.9 -96.8999 809.2 -84.0999 809.2 -67.3999Z" fill="#5F73AA"/>
<path d="M1404.7 519.2C1391.9 519.8 1380.6 520.5 1371 521.3C1367.4 521.3 1364.3 520.3 1361.8 518.4C1359.3 516.5 1358 513.5 1358 509.5C1358 506.7 1358.9 504 1360.7 501.5C1362.5 499 1365.3 497.5 1369.2 497.1C1381.9 496.1 1394.6 495.3 1407.2 494.8C1419.8 494.3 1432.7 494 1445.8 494C1473.8 494 1503.4 495.2 1534.5 497.6C1538.5 497.8 1541.5 499.2 1543.3 501.8C1545.1 504.4 1545.9 507.2 1545.7 510.1C1545.5 513 1544.4 515.7 1542.4 518.1C1540.4 520.5 1537.6 521.7 1533.9 521.7H1532.7C1519.8 520.7 1505.7 519.8 1490.5 519.1C1475.3 518.4 1460.1 518 1444.9 518C1430.9 518.3 1417.5 518.6 1404.7 519.2ZM1442.8 699.6C1440.3 697.6 1439 694.6 1439 690.5V575.5H1386.3C1386.1 578.9 1386 582.2 1386 585.2C1386 588.2 1386 591.4 1386 594.7C1386 598 1386 601.7 1386.2 605.7C1386.3 609.7 1386.4 614.6 1386.4 620.2C1386.4 625.2 1386.5 630.8 1386.7 636.8C1386.9 642.9 1387.1 649 1387.3 655.1C1387.5 661.3 1387.8 667.2 1388.2 672.8C1388.6 678.5 1388.9 683.5 1389.1 687.9C1389.5 691.9 1388.5 695.4 1386.1 698.2C1383.7 701 1380.4 702.4 1376.4 702.4C1373.2 702.4 1370.4 701.3 1368.1 699.2C1365.8 697.1 1364.5 694.3 1364.3 690.9C1364.1 686.1 1363.8 680.7 1363.4 674.7C1363 668.8 1362.7 662.6 1362.5 656.2C1362.3 649.8 1362.1 643.5 1361.9 637.3C1361.7 631 1361.6 625.3 1361.6 620C1361.6 616 1361.6 611 1361.6 605C1361.6 599 1361.6 593.2 1361.8 587.4C1361.9 581.6 1362 576.5 1362 571.8C1362 567.2 1362 564.1 1362 562.7C1362 559.3 1362.8 556.4 1364.3 554.2C1365.8 552 1368.8 550.9 1373.2 550.9H1536.3C1538.7 550.9 1540.5 551.4 1541.7 552.4C1542.9 553.4 1543.8 554.4 1544.4 555.4C1545 556.8 1545.3 558.4 1545.3 560.2V689.7C1545.3 693.7 1544 696.8 1541.5 698.9C1539 701 1536.1 702.1 1532.9 702.1C1529.9 702.1 1527 701 1524.4 698.9C1521.8 696.8 1520.5 693.7 1520.5 689.7V575.5H1463.3V690.5C1463.3 694.5 1462 697.6 1459.5 699.6C1457 701.6 1454.2 702.6 1451.2 702.6C1448.2 702.6 1445.3 701.6 1442.8 699.6Z" fill="#5F73AA"/>
<path d="M1532.9 715.1C1527 715.1 1521.4 713 1516.6 709.1C1512.7 705.9 1508 700.1 1508 690.1V588H1475.8V690.5C1475.8 700.5 1471.2 706.3 1467.3 709.3C1462.6 713.1 1457 715.1 1451.2 715.1C1445.4 715.1 1439.8 713.1 1435.1 709.3C1431.2 706.2 1426.6 700.4 1426.6 690.5V588H1398.6V594.7C1398.6 598 1398.6 601.6 1398.7 605.4C1398.8 609.6 1398.9 614.6 1398.9 620.3C1398.9 625.2 1399 630.7 1399.2 636.5L1399.8 654.8C1400 660.8 1400.3 666.6 1400.7 672C1401.1 677.6 1401.4 682.7 1401.6 687.2C1402.2 694.5 1400.2 701.2 1395.6 706.5C1390.8 712.1 1384.2 715.1 1376.4 715.1C1370.1 715.1 1364.3 712.9 1359.6 708.6C1354.9 704.3 1352.2 698.5 1351.8 691.8V691.6C1351.6 686.9 1351.3 681.6 1350.9 675.7C1350.5 669.6 1350.2 663.3 1350 656.8L1349.4 637.9C1349.2 631.6 1349.1 625.7 1349.1 620.3V605.3C1349.1 599.1 1349.2 593.1 1349.3 587.5C1349.4 581.8 1349.4 576.6 1349.4 572.1V563C1349.4 557 1350.9 551.8 1353.8 547.5C1356.5 543.5 1362.1 538.7 1373.1 538.7H1536.2C1541.6 538.7 1546.1 540.2 1549.6 543.1C1551.9 545 1553.7 547.1 1555 549.3L1555.4 550L1555.7 550.8C1557 553.8 1557.6 557.1 1557.6 560.6V690.1C1557.6 699.9 1553.1 705.7 1549.4 708.9C1544.8 713 1539 715.1 1532.9 715.1ZM1374.3 563.8V567L1374.5 563.8H1374.3ZM1533.8 521.4H1531.6C1518.9 520.4 1504.9 519.6 1489.8 518.9C1461 517.6 1431.5 517.5 1405.3 518.7C1392.8 519.3 1381.6 520 1372 520.8H1371C1364.6 520.8 1358.9 519 1354.2 515.4C1350.2 512.4 1345.5 506.7 1345.5 496.5C1345.5 491 1347.2 485.9 1350.6 481.2C1353.3 477.4 1358.6 472.7 1367.9 471.7H1368.2C1381 470.7 1394 469.9 1406.7 469.4C1419.5 468.9 1432.6 468.6 1445.8 468.6C1474 468.6 1504.1 469.8 1535.3 472.3C1545.3 472.9 1550.7 477.8 1553.5 481.9C1556.9 486.8 1558.5 492.5 1558.1 498.2C1557.7 503.8 1555.6 508.9 1551.9 513.4C1548.7 517 1543.1 521.4 1533.8 521.4Z" fill="#5F73AA"/>
<path d="M559.4 675.4C559.4 666.3 560.9 658 563.8 650.6C566.7 643.1 570.8 636.7 576.1 631.4C581.3 626.1 587.8 621.9 595.3 619C602.9 616.1 611.2 614.6 620.3 614.6C629.4 614.6 637.7 616.1 645.1 619C652.6 621.9 659 626.1 664.3 631.4C669.6 636.7 673.8 643.2 676.7 650.6C679.6 658.1 681.1 666.3 681.1 675.4C681.1 684.5 679.6 692.8 676.7 700.2C673.8 707.7 669.6 714.1 664.3 719.6C659 725 652.5 729.2 645.1 732.2C637.6 735.1 629.4 736.6 620.3 736.6C611.2 736.6 602.9 735.1 595.3 732.2C587.7 729.3 581.3 725.1 576.1 719.6C570.9 714.2 566.8 707.7 563.8 700.2C560.9 692.8 559.4 684.5 559.4 675.4ZM583.6 675.4C583.6 686.3 586.9 695.2 593.6 702C600.3 708.9 609.1 712.3 620.2 712.3C633.7 712.3 643.6 708.9 649.7 702C655.9 695.1 658.9 686.3 658.9 675.4C658.9 664.3 655.6 655.4 649.1 648.8C642.5 642.1 632.9 638.8 620.2 638.8C609.1 638.8 600.2 642.2 593.6 648.9C586.9 655.7 583.6 664.5 583.6 675.4Z" fill="#FFC124"/>
<path d="M620.2 749.1C609.6 749.1 599.7 747.3 590.7 743.9C581.5 740.3 573.5 735.1 567 728.3C560.6 721.7 555.6 713.8 552.1 704.8C548.6 695.9 546.9 686 546.9 675.4C546.9 664.8 548.7 654.9 552.2 646C555.7 637 560.8 629.1 567.2 622.6C573.7 616 581.6 610.8 590.8 607.3C599.8 603.8 609.7 602.1 620.3 602.1C630.9 602.1 640.8 603.9 649.7 607.3C658.7 610.8 666.6 616 673.2 622.5C679.8 629.1 684.9 637 688.4 646C691.9 654.9 693.7 664.8 693.7 675.4C693.7 686 691.9 695.9 688.5 704.8C685 713.8 679.9 721.7 673.4 728.4C666.8 735.1 658.9 740.3 649.8 743.8C640.7 747.3 630.8 749.1 620.2 749.1ZM620.2 651.3C612.5 651.3 606.7 653.4 602.5 657.7C598.2 662.1 596.1 667.9 596.1 675.4C596.1 683 598.2 688.9 602.6 693.3C606.9 697.7 612.5 699.8 620.3 699.8C630.1 699.8 636.9 697.7 640.5 693.7C644.6 689.2 646.5 683.2 646.5 675.4C646.5 667.6 644.5 661.8 640.3 657.5C636.1 653.4 629.4 651.3 620.2 651.3Z" fill="#FFC124"/>
<path d="M891.3 135.6C887.3 135.6 884.2 134.3 882.1 131.8C880 129.3 878.9 126.5 878.9 123.5C878.9 120.5 879.9 117.7 881.9 115.2C883.9 112.7 886.9 111.4 891 111.4H931.3C931.3 100.9 931.8 90.8001 932.7 81.1001C933.6 71.4001 935 62.8001 936.8 55.4001C937.6 52.0001 939.1 49.5001 941.2 48.1001C943.3 46.7001 945.7 46.0001 948.3 46.0001C951.7 46.0001 954.9 47.3001 957.7 49.9001C960.5 52.5001 961.4 56.2001 960.4 60.8001C958.8 67.3001 957.6 74.9001 956.9 83.7001C956.2 92.5001 955.7 101.7 955.5 111.4H1007C1011 111.4 1014.1 112.7 1016.2 115.2C1018.3 117.7 1019.4 120.5 1019.4 123.5C1019.4 126.5 1018.4 129.3 1016.4 131.8C1014.4 134.3 1011.4 135.6 1007.3 135.6H955.8C956.2 145.3 956.9 154.5 957.9 163.1C958.9 171.8 960.2 179.3 961.8 185.8C962.8 190.4 961.9 194.1 959.1 196.7C956.3 199.3 953.1 200.6 949.7 200.6C947.1 200.6 944.7 199.9 942.6 198.5C940.5 197.1 939 194.7 938.2 191.2C936.6 183.9 935.2 175.5 934 165.8C932.8 156.1 932 146 931.6 135.5H891.3V135.6Z" fill="#FFC124"/>
<path d="M949.7 213.2C944.6 213.2 939.9 211.8 935.7 209C932.4 206.8 928 202.4 926.1 194.2V194.1C924.4 186.5 922.9 177.6 921.7 167.5C920.9 161.2 920.3 154.8 919.8 148.2H891.4C881.6 148.2 875.7 143.7 872.6 140C868.6 135.3 866.5 129.6 866.5 123.6C866.5 117.8 868.5 112.2 872.3 107.5C875.4 103.6 881.2 99.0001 891.1 99.0001H919.1C919.3 92.5001 919.7 86.2001 920.3 80.1001C921.3 69.9001 922.7 60.6001 924.7 52.6001C926.6 44.4001 931 40.1001 934.3 37.8001C938.5 35.0001 943.2 33.6001 948.4 33.6001C955 33.6001 961.1 36.1001 966.3 40.9001C972.4 46.6001 974.7 54.6001 972.7 63.6001L972.6 64.0001C971.2 69.8001 970.1 76.8001 969.5 84.8001C969.1 89.4001 968.8 94.1001 968.6 99.0001H1007.1C1016.9 99.0001 1022.7 103.5 1025.9 107.2C1029.9 112 1032 117.6 1032 123.6C1032 129.4 1030 135 1026.2 139.7C1023.1 143.6 1017.3 148.2 1007.4 148.2H969C969.4 152.9 969.8 157.4 970.3 161.8C971.2 169.9 972.5 177 973.9 182.9L974 183.3C975.9 192.3 973.7 200.3 967.6 206C962.5 210.7 956.3 213.2 949.7 213.2Z" fill="#FFC124"/>
<path d="M1134.2 495.9C1131.5 493.8 1129.8 491.4 1129.3 488.8C1128.8 486.2 1129 483.6 1129.9 481.2C1130.8 478.8 1132.4 476.8 1134.7 475.2C1136.9 473.6 1139.3 472.8 1141.8 472.8C1144.3 472.8 1146.9 473.7 1149.4 475.6L1198.2 512.7C1201.8 515.4 1203.6 518.7 1203.7 522.5C1203.8 526.3 1202.1 529.7 1198.5 532.6L1152.3 570.3C1150 572.4 1147.3 573.5 1144.4 573.5C1141.9 573.5 1139.5 572.7 1137.3 571.1C1135.1 569.5 1133.5 567.6 1132.5 565.2C1131.5 562.9 1131.3 560.4 1131.9 557.8C1132.4 555.2 1134 552.8 1136.5 550.7L1170.1 523.2L1134.2 495.9Z" fill="#FFC124"/>
</g>
<defs>
<clipPath id="clip0">
<rect width="2002.7" height="1081.6" fill="white" transform="translate(-33 -260.6)"/>
</clipPath>
</defs>
</svg>
