<svg preserveAspectRatio="xMinYMin meet"
     width="100%"
     height="100%" viewBox="0 0 237 260" fill="none" xmlns="http://www.w3.org/2000/svg">
    <path d="M20.8996 150.7C14.0996 150.7 8.89961 148.6 5.39961 144.3C1.79961 140.1 0.0996094 135.4 0.0996094 130.3C0.0996094 125.2 1.79961 120.6 5.19961 116.3C8.59961 112.1 13.6996 109.9 20.4996 109.9H87.9996C87.9996 92.3 88.7996 75.3 90.2996 59C91.7996 42.7 94.0996 28.3 97.1996 15.8C98.5996 10 101 6 104.6 3.6C108.2 1.2 112.1 0 116.6 0C122.4 0 127.6 2.2 132.4 6.6C137.1 11 138.7 17.1 137 24.9C134.3 35.8 132.3 48.6 131.2 63.3C130 78.1 129.2 93.6 128.9 109.8H215.4C222.2 109.8 227.4 111.9 230.9 116.2C234.5 120.4 236.2 125.1 236.2 130.2C236.2 135.3 234.5 140 231.1 144.2C227.7 148.4 222.6 150.6 215.8 150.6H129.3C130 166.9 131.2 182.3 132.9 196.9C134.6 211.5 136.8 224.2 139.5 235C141.2 242.8 139.7 248.9 134.9 253.3C130.1 257.7 124.9 259.9 119.1 259.9C114.7 259.9 110.7 258.7 107.1 256.3C103.5 253.9 101.1 249.9 99.6996 244.1C96.9996 231.9 94.5996 217.7 92.5996 201.4C90.5996 185.1 89.1996 168.2 88.4996 150.5H20.8996V150.7Z" fill="#C1CEE9"/>
</svg>
