<svg width="59" height="72" viewBox="0 0 59 72" fill="none" xmlns="http://www.w3.org/2000/svg">
<path fill-rule="evenodd" clip-rule="evenodd" d="M56.7693 28.9547C56.7693 14.0667 44.5095 2 29.386 2C14.2598 2 2 14.0667 2 28.9547C2 31.6191 2.39978 34.1909 3.13139 36.6263C7.02986 52.147 29.5088 69.5064 29.5088 69.5064C29.5088 69.5064 54.9037 49.9044 56.3983 33.7331L56.333 33.7202C56.6152 32.1746 56.7693 30.5827 56.7693 28.9547Z" fill="#D23C50"/>
<path d="M3.13139 36.6263L4.5862 36.2609L4.57784 36.2276L4.56797 36.1948L3.13139 36.6263ZM29.5088 69.5064L28.592 70.6936L29.5086 71.4015L30.4253 70.6938L29.5088 69.5064ZM56.3983 33.7331L57.8919 33.8711L58.0166 32.5228L56.688 32.2613L56.3983 33.7331ZM56.333 33.7202L54.8574 33.4508L54.5916 34.9062L56.0433 35.192L56.333 33.7202ZM58.2693 28.9547C58.2693 13.2161 45.3155 0.5 29.386 0.5V3.5C43.7036 3.5 55.2693 14.9174 55.2693 28.9547H58.2693ZM29.386 0.5C13.4539 0.5 0.5 13.216 0.5 28.9547H3.5C3.5 14.9175 15.0657 3.5 29.386 3.5V0.5ZM0.5 28.9547C0.5 31.7702 0.922589 34.4872 1.69481 37.0579L4.56797 36.1948C3.87696 33.8945 3.5 31.468 3.5 28.9547H0.5ZM1.67658 36.9917C3.73116 45.1714 10.5863 53.6387 16.7067 59.9324C19.7984 63.1116 22.7638 65.797 24.9559 67.6874C26.0526 68.6332 26.9575 69.3816 27.5901 69.8949C27.9064 70.1516 28.1547 70.3496 28.325 70.4843C28.4102 70.5516 28.4758 70.6031 28.5207 70.6382C28.5432 70.6557 28.5605 70.6692 28.5724 70.6784C28.5783 70.6831 28.583 70.6866 28.5862 70.6892C28.5879 70.6904 28.5892 70.6914 28.5901 70.6922C28.5906 70.6926 28.5911 70.6929 28.5913 70.6931C28.5917 70.6934 28.592 70.6936 29.5088 69.5064C30.4256 68.3192 30.4257 68.3193 30.4258 68.3193C30.4256 68.3192 30.4256 68.3192 30.4254 68.319C30.425 68.3187 30.4242 68.3181 30.4231 68.3173C30.421 68.3156 30.4174 68.3129 30.4126 68.3091C30.4028 68.3016 30.3878 68.2898 30.3676 68.2741C30.3272 68.2425 30.2662 68.1946 30.1857 68.131C30.0249 68.0038 29.7864 67.8137 29.4805 67.5654C28.8685 67.0688 27.9867 66.3397 26.9152 65.4156C24.7706 63.5661 21.8727 60.9415 18.8574 57.8408C12.7637 51.5746 6.4301 43.6018 4.5862 36.2609L1.67658 36.9917ZM29.5088 69.5064C30.4253 70.6938 30.4256 70.6936 30.4261 70.6933C30.4263 70.6931 30.4268 70.6927 30.4274 70.6923C30.4284 70.6914 30.4299 70.6903 30.4317 70.6889C30.4353 70.6861 30.4405 70.682 30.4472 70.6768C30.4606 70.6665 30.48 70.6514 30.5053 70.6316C30.5558 70.5922 30.6296 70.5342 30.7253 70.4584C30.9167 70.3069 31.1956 70.0842 31.5498 69.7959C32.2581 69.2193 33.2685 68.38 34.4843 67.3229C36.914 65.2102 40.1731 62.2201 43.4837 58.7138C46.7903 55.2117 50.1746 51.1672 52.8354 46.9446C55.4851 42.7395 57.4874 38.2486 57.8919 33.8711L54.9047 33.595C54.562 37.3032 52.8294 41.3268 50.2972 45.3452C47.7761 49.3462 44.5314 53.2343 41.3024 56.6542C38.0775 60.0697 34.8944 62.9908 32.5159 65.059C31.3275 66.0922 30.3423 66.9106 29.656 67.4692C29.3129 67.7485 29.0447 67.9627 28.8634 68.1062C28.7727 68.1779 28.7038 68.232 28.6581 68.2677C28.6352 68.2856 28.6182 68.2988 28.6072 68.3074C28.6017 68.3117 28.5976 68.3148 28.5951 68.3167C28.5939 68.3177 28.593 68.3184 28.5925 68.3188C28.5923 68.3189 28.5922 68.319 28.5921 68.3191C28.5921 68.3191 28.5922 68.319 29.5088 69.5064ZM56.688 32.2613L56.6227 32.2485L56.0433 35.192L56.1086 35.2048L56.688 32.2613ZM57.8086 33.9896C58.1062 32.3598 58.2693 30.6776 58.2693 28.9547H55.2693C55.2693 30.4877 55.1242 31.9894 54.8574 33.4508L57.8086 33.9896Z" fill="white"/>
<path d="M21.4725 18.2748C21.3422 18.0142 20.9513 17.8839 20.6907 18.0576C19.1704 19.1001 17.7804 20.2729 16.4339 21.5326C15.9126 22.0104 15.3914 22.4882 14.8701 22.966C14.2186 22.1407 13.5236 21.3154 12.8286 20.4901C12.6114 20.2729 12.2205 20.2729 12.0467 20.4901C11.8296 20.7073 11.8296 21.0548 12.0467 21.272C12.7417 22.0973 13.3933 22.9226 14.0448 23.7044C13.3933 24.356 12.7417 25.0075 12.1336 25.6591C11.4386 26.3975 10.7436 27.1359 10.0921 27.8744C9.8749 28.0915 9.8749 28.439 10.0921 28.6562C10.3093 28.8734 10.7002 28.8734 10.874 28.6562C11.6993 27.7006 12.6114 26.745 13.4802 25.8328C13.567 25.7459 14.7833 24.5732 14.7398 24.5732C15.8692 25.9631 16.9551 27.3097 18.0845 28.6997C18.2582 28.9603 18.6926 28.9168 18.8663 28.6997C19.0835 28.4825 19.0401 28.135 18.8663 27.9178C17.7804 26.5712 16.651 25.1813 15.5651 23.7913C16.5207 22.8791 17.4763 22.0104 18.432 21.1851C19.3441 20.4032 20.2563 19.6648 21.2119 19.0132C21.516 18.8395 21.6028 18.5354 21.4725 18.2748Z" fill="white"/>
<path d="M38.6718 27.8305C37.7596 27.8305 36.8475 27.8305 35.9353 27.8305C35.7615 25.5284 35.7181 23.2262 35.8919 20.9241C35.9353 20.62 35.6312 20.3594 35.3272 20.3594C34.3716 20.3594 33.3725 20.3594 32.4169 20.3594C32.1129 20.3594 31.8088 20.62 31.8522 20.9241C31.9391 22.0968 31.9825 23.2696 31.9825 24.4424C31.9825 24.8768 31.9825 25.2677 31.9391 25.7021C31.8522 26.788 31.0269 27.7871 29.8976 27.8305C29.4198 27.8305 28.9854 27.8305 28.5076 27.8305C27.9864 27.8305 27.8126 28.4386 28.0732 28.7427C28.551 29.6114 29.0723 30.4802 29.5501 31.3055C29.8976 31.957 30.8966 31.3489 30.5491 30.7408C30.2016 30.1327 29.8541 29.5245 29.5066 28.9599C31.4613 28.9599 36.8909 29.0033 37.5859 29.0033C37.1081 29.6983 36.6737 30.4367 36.2828 31.1751C36.1525 31.4358 36.1959 31.7833 36.5 31.957C36.7606 32.1308 37.1081 32.0439 37.2818 31.7398C37.8465 30.6973 38.4981 29.6983 39.1496 28.6992C39.4102 28.3083 39.0627 27.8305 38.6718 27.8305ZM32.4169 27.5699C32.9382 26.788 33.1119 25.8759 33.1119 24.9637C33.1553 23.7909 33.0685 22.6615 33.025 21.4887C33.025 21.4887 33.9372 21.4887 34.7191 21.4887C34.7191 21.4887 34.6322 25.2677 34.8059 27.8305C33.9372 27.8305 33.1119 27.8305 32.2432 27.8305C32.2866 27.7002 32.3735 27.6568 32.4169 27.5699Z" fill="white"/>
<path d="M21.3848 32.0008C18.1705 31.9574 14.9127 32.0442 11.6984 32.1311C11.3943 32.1311 11.1337 32.3917 11.1337 32.6958C11.1337 32.9999 11.3943 33.2605 11.6984 33.2605C11.7853 33.2605 11.9156 33.2605 12.0025 33.2605C11.9156 35.4758 12.0025 37.7345 12.1762 39.9932C12.2196 40.2972 12.4368 40.5579 12.7409 40.5579C13.0449 40.5579 13.349 40.2972 13.3056 39.9932C13.1318 37.7345 13.0449 35.4758 13.1318 33.217C15.8683 33.1302 18.6049 33.0867 21.3848 33.1302C21.6889 33.1302 21.9495 32.8695 21.9495 32.5655C21.9495 32.218 21.6889 32.0008 21.3848 32.0008Z" fill="white"/>
<path d="M47.8406 33.3473C46.1465 34.8241 43.0191 38.0819 43.0191 38.0384C42.9322 36.6485 42.9756 35.1716 43.1059 33.8685C43.1494 33.5644 42.8019 33.3038 42.5413 33.3038C42.1938 33.3038 42.02 33.5644 41.9766 33.8685C41.8463 34.9979 41.8028 36.1272 41.8463 37.2131C41.8463 37.7778 41.8897 38.2991 41.9331 38.8637C41.9766 39.2112 41.9766 39.7325 42.411 39.8628C42.8453 39.9931 43.1059 39.6022 43.3666 39.3415C44.4525 38.2122 45.5384 37.0828 46.6678 35.9969C47.0153 35.6929 47.3628 35.3454 47.7102 35.0413C47.7102 36.4313 47.7102 39.2112 47.7102 39.2547C47.7102 39.9931 48.8396 39.9931 48.8396 39.2547C48.8396 37.4738 48.8396 35.6494 48.8396 33.8685C48.8396 33.8251 48.8396 33.8251 48.8396 33.7816C48.7962 33.217 48.1881 33.0432 47.8406 33.3473Z" fill="white"/>
<path d="M43.6695 41.2092C43.6261 40.9051 43.4523 40.6445 43.1048 40.6445C42.1927 40.6445 41.2805 40.6445 40.3683 40.6879C40.1511 38.3858 40.238 36.0836 40.4117 33.7815C40.4552 33.4774 40.1511 33.2168 39.8471 33.2168C38.0227 33.2168 32.6366 33.2168 31.8113 33.2168C31.5072 33.2168 31.2031 33.4774 31.2466 33.7815C31.3335 34.9543 31.3769 36.1705 31.3769 37.3433C31.3769 38.3423 31.3335 39.5151 30.5516 40.2536C30.2475 40.5576 29.8566 40.6879 29.4222 40.6879C28.9444 40.6879 28.4232 40.6879 27.9454 40.6879C27.6848 40.6879 27.4676 40.8617 27.3807 41.1223C27.2938 41.4264 27.4676 41.7304 27.7716 41.8173C28.8576 42.2082 29.9 42.8598 30.6819 43.6851C30.7253 43.7285 30.7688 43.7719 30.8122 43.8154C31.0294 44.0326 31.4203 44.0326 31.5941 43.8154C31.8113 43.5982 31.8113 43.2507 31.5941 43.0335C31.2031 42.5557 30.6819 42.1648 30.2041 41.8173C32.68 41.8173 40.3249 41.8173 41.6714 41.8173C41.1502 42.2082 40.6289 42.6426 40.1077 43.0335C39.8471 43.2073 39.8905 43.6416 40.1077 43.8154C40.3249 44.0326 40.6724 43.9891 40.8896 43.8154C41.3674 43.4245 41.8886 43.0335 42.3664 42.6426C42.5836 42.4688 42.8008 42.2951 43.0614 42.1213C43.2786 41.9476 43.5392 41.7739 43.6261 41.5132C43.6695 41.4264 43.7129 41.3395 43.6695 41.2092ZM33.5922 40.6879C32.9406 40.6879 32.3325 40.6879 31.6809 40.6879C31.7244 40.6011 31.7678 40.5576 31.8547 40.4707C32.3759 39.6889 32.5062 38.7767 32.5497 37.8645C32.5931 36.6917 32.5062 35.5189 32.4628 34.3462C32.4628 34.3462 35.5468 34.3462 37.3712 34.3462C38.0227 34.3462 38.6308 34.3462 39.2824 34.3462C39.2824 34.3462 39.1086 38.1686 39.2824 40.6879C37.3712 40.6879 35.46 40.6879 33.5922 40.6879Z" fill="white"/>
<path d="M47.7969 20.4029C46.1463 21.2282 44.4957 22.0969 42.8885 23.0525C41.6289 23.791 40.4126 24.6163 39.2398 25.4416C39.2398 25.3981 39.1964 24.79 39.153 24.486C39.0661 22.8788 39.0227 22.5313 39.2398 20.9241C39.2833 20.6201 38.9358 20.3595 38.6752 20.3595C38.3277 20.3595 38.1539 20.6201 38.1105 20.9241C37.9367 22.5313 37.9367 22.9222 38.0236 24.5294C38.0671 25.2244 38.1105 25.9194 38.2408 26.5709C38.2842 26.7881 38.458 26.9184 38.6317 26.9619C38.8924 27.0487 39.153 26.875 39.3702 26.7012C40.7167 25.7456 42.0632 24.8335 43.4532 24.0082C44.7563 23.2263 46.1463 22.4879 47.4928 21.7929C47.4928 22.9222 47.4928 27.1356 47.4928 27.179C47.5363 27.5265 47.71 27.7872 48.101 27.7872C48.405 27.7872 48.6222 27.5265 48.6222 27.2225C48.6222 26.2234 48.6222 22.1404 48.6222 21.1413C48.6222 20.8807 48.6656 20.6201 48.405 20.4463C48.2747 20.316 48.0141 20.2726 47.7969 20.4029Z" fill="white"/>
<path d="M30.2475 34.2159C30.0303 33.1299 29.0747 32.4784 27.9887 32.4784H27.9453H27.9019C27.4241 32.4784 27.0331 32.6521 26.6422 32.8693C26.6422 32.8259 26.6422 32.7825 26.6422 32.7825C26.6422 32.4784 26.3816 32.2178 26.0775 32.2178C25.7735 32.2178 25.5128 32.4784 25.5128 32.7825C25.4694 35.0412 25.5563 37.3433 25.73 39.602C25.7735 39.9061 25.9906 40.1667 26.2947 40.1667C26.5988 40.1667 26.9028 39.9061 26.8594 39.602C26.7725 38.6899 26.7291 37.7343 26.6856 36.8221C27.4241 37.2999 28.3797 37.2999 29.1615 36.8655C30.0737 36.2574 30.4646 35.2149 30.2475 34.2159ZM29.1181 34.9543C29.0747 35.3018 28.9009 35.6058 28.6403 35.7796C27.9887 36.2574 27.0766 35.9533 26.8159 35.2149C26.6422 34.7371 26.7725 34.0856 27.2069 33.7815C27.6847 33.434 28.4231 33.5209 28.814 33.9118C29.1181 34.2159 29.205 34.5634 29.1181 34.9543Z" fill="white"/>
<path d="M24.4227 40.8619C24.2489 38.6466 24.1621 36.4313 24.2055 34.216C24.2055 33.912 23.9449 33.6514 23.6408 33.6514C23.3368 33.6514 23.0762 33.912 23.0762 34.216C23.0762 34.7373 23.0762 35.2585 23.0762 35.7798C22.9893 35.6929 22.9024 35.606 22.8155 35.5192C22.2074 34.9545 21.4256 34.7373 20.6003 34.7373C19.6881 34.7373 18.8193 35.0848 18.2112 35.7798C17.5597 36.5182 17.3425 37.5172 17.4728 38.4729C17.7334 40.3406 19.7315 41.5569 21.5124 40.9922C22.2074 40.775 22.7721 40.3406 23.2065 39.8194C23.2065 40.1669 23.2499 40.5144 23.2933 40.8619C23.2933 41.1659 23.554 41.4266 23.858 41.4266C24.1621 41.47 24.4661 41.2094 24.4227 40.8619ZM22.6852 38.2122C22.5549 39.1244 21.8165 39.8628 20.9043 39.9931C20.1659 40.1235 19.4275 39.776 18.9497 39.2113C18.4718 38.6466 18.4718 37.7344 18.7325 37.0829C19.1668 35.997 20.6437 35.6495 21.6427 36.1707C22.4246 36.5182 22.8155 37.3869 22.6852 38.2122Z" fill="white"/>
<path d="M30.1993 23.0965C29.5477 21.6631 27.5062 21.6631 26.2031 21.9672C26.0294 22.0106 25.8122 22.1844 25.8122 22.3581C25.595 23.8784 25.5081 25.4421 25.595 27.0059C25.6384 27.7008 25.6819 28.4393 25.8122 29.1343C25.8556 29.4383 26.2466 29.6121 26.5072 29.5252C26.6809 29.4818 26.8112 29.3514 26.8981 29.1777C26.985 28.9605 26.8981 28.7433 26.8981 28.5261C26.8981 28.5696 26.8981 28.5696 26.8981 28.613C26.8112 27.8746 26.7678 27.1362 26.7244 26.3977C27.3759 26.5281 28.1143 26.5281 28.7659 26.3977C29.374 26.2674 29.9387 25.8765 30.1993 25.3118C30.5468 24.7037 30.5034 23.835 30.1993 23.0965ZM29.2871 24.4865C29.2003 24.834 28.9831 25.1381 28.6356 25.2684C28.1578 25.4421 27.7234 25.4421 27.2456 25.3553C27.1587 25.3553 26.7244 25.2684 26.7244 25.2684C26.7244 24.53 26.7678 23.7481 26.8981 23.0097C27.289 22.9662 27.68 22.9662 28.1143 23.0097C28.4618 23.0531 28.8093 23.1834 29.0699 23.444C29.2871 23.7481 29.374 24.139 29.2871 24.4865Z" fill="white"/>
<path d="M24.467 22.966C24.467 22.5751 24.4236 22.2276 24.3367 21.8366C24.1195 21.2285 23.7286 20.7507 23.1639 20.4467C21.9911 19.8385 20.5577 20.2729 19.7324 21.2285C19.5152 21.4457 19.5152 21.7932 19.7324 22.0104C19.9496 22.2276 20.3405 22.2276 20.5143 22.0104C20.8618 21.6195 21.2961 21.3154 21.8174 21.272C22.2517 21.2285 22.6861 21.4023 22.9902 21.7063C23.2942 22.0104 23.3811 22.4448 23.3811 22.8791C23.3811 23.5307 23.3811 24.1822 23.3811 24.7903C23.3811 24.7469 23.077 24.6166 23.0336 24.5732C21.7739 23.965 20.2971 24.3994 19.7324 25.8328C19.3415 26.7884 19.7324 27.9178 20.5577 28.5259C21.383 29.1775 22.5992 29.134 23.4245 28.4825C23.5114 28.7431 23.7286 28.9168 23.9892 28.9168C24.2933 28.9168 24.5539 28.6562 24.5539 28.3522C24.5105 26.5713 24.467 24.7469 24.467 22.966ZM23.077 27.0925C22.8599 27.7875 22.0346 28.135 21.383 27.8309C20.7749 27.5269 20.5143 26.7016 20.8618 26.0935C21.2527 25.4419 22.2517 25.3116 22.8164 25.8763C23.1639 26.1803 23.2508 26.6581 23.077 27.0925Z" fill="white"/>
</svg>
