<svg width="90" height="60" viewBox="0 0 90 60" fill="none" xmlns="http://www.w3.org/2000/svg">
    <g clip-path="url(#clip0_9875_11464)">
        <path d="M26.6004 0.750003C26.3004 0.150003 25.4004 -0.149997 24.8004 0.250003C21.3004 2.65 18.1004 5.35 15.0004 8.25C13.8004 9.35 12.6004 10.45 11.4004 11.55C9.90039 9.65 8.30039 7.75 6.70039 5.85C6.20039 5.35 5.30039 5.35 4.90039 5.85C4.40039 6.35 4.40039 7.15 4.90039 7.65C6.50039 9.55 8.00039 11.45 9.50039 13.25C8.00039 14.75 6.50039 16.25 5.10039 17.75C3.50039 19.45 1.90039 21.15 0.400391 22.85C-0.0996094 23.35 -0.0996094 24.15 0.400391 24.65C0.900391 25.15 1.80039 25.15 2.20039 24.65C4.10039 22.45 6.20039 20.25 8.20039 18.15C8.40039 17.95 11.2004 15.25 11.1004 15.25C13.7004 18.45 16.2004 21.55 18.8004 24.75C19.2004 25.35 20.2004 25.25 20.6004 24.75C21.1004 24.25 21.0004 23.45 20.6004 22.95C18.1004 19.85 15.5004 16.65 13.0004 13.45C15.2004 11.35 17.4004 9.35 19.6004 7.45C21.7004 5.65 23.8004 3.95 26.0004 2.45C26.7004 2.05 26.9004 1.35 26.6004 0.750003Z" fill="#D23C50"/>
        <path d="M66.2001 22.75C64.1001 22.75 62.0001 22.75 59.9001 22.75C59.5001 17.45 59.4001 12.15 59.8001 6.84999C59.9001 6.14999 59.2001 5.54999 58.5001 5.54999C56.3001 5.54999 54.0001 5.54999 51.8001 5.54999C51.1001 5.54999 50.4001 6.14999 50.5001 6.84999C50.7001 9.54999 50.8001 12.25 50.8001 14.95C50.8001 15.95 50.8001 16.85 50.7001 17.85C50.5001 20.35 48.6001 22.65 46.0001 22.75C44.9001 22.75 43.9001 22.75 42.8001 22.75C41.6001 22.75 41.2001 24.15 41.8001 24.85C42.9001 26.85 44.1001 28.85 45.2001 30.75C46.0001 32.25 48.3001 30.85 47.5001 29.45C46.7001 28.05 45.9001 26.65 45.1001 25.35C49.6001 25.35 62.1001 25.45 63.7001 25.45C62.6001 27.05 61.6001 28.75 60.7001 30.45C60.4001 31.05 60.5001 31.85 61.2001 32.25C61.8001 32.65 62.6001 32.45 63.0001 31.75C64.3001 29.35 65.8001 27.05 67.3001 24.75C67.9001 23.85 67.1001 22.75 66.2001 22.75ZM51.8001 22.15C53.0001 20.35 53.4001 18.25 53.4001 16.15C53.5001 13.45 53.3001 10.85 53.2001 8.14999C53.2001 8.14999 55.3001 8.14999 57.1001 8.14999C57.1001 8.14999 56.9001 16.85 57.3001 22.75C55.3001 22.75 53.4001 22.75 51.4001 22.75C51.5001 22.45 51.7001 22.35 51.8001 22.15Z" fill="#D23C50"/>
        <path d="M26.4008 32.35C19.0008 32.25 11.5008 32.45 4.10078 32.65C3.40078 32.65 2.80078 33.25 2.80078 33.95C2.80078 34.65 3.40078 35.25 4.10078 35.25C4.30078 35.25 4.60078 35.25 4.80078 35.25C4.60078 40.35 4.80078 45.55 5.20078 50.75C5.30078 51.45 5.80078 52.05 6.50078 52.05C7.20078 52.05 7.90078 51.45 7.80078 50.75C7.40078 45.55 7.20078 40.35 7.40078 35.15C13.7008 34.95 20.0008 34.85 26.4008 34.95C27.1008 34.95 27.7008 34.35 27.7008 33.65C27.7008 32.85 27.1008 32.35 26.4008 32.35Z" fill="#D23C50"/>
        <path d="M87.3004 35.45C83.4004 38.85 76.2004 46.35 76.2004 46.25C76.0004 43.05 76.1004 39.65 76.4004 36.65C76.5004 35.95 75.7004 35.35 75.1004 35.35C74.3004 35.35 73.9004 35.95 73.8004 36.65C73.5004 39.25 73.4004 41.85 73.5004 44.35C73.5004 45.65 73.6004 46.85 73.7004 48.15C73.8004 48.95 73.8004 50.15 74.8004 50.45C75.8004 50.75 76.4004 49.85 77.0004 49.25C79.5004 46.65 82.0004 44.05 84.6004 41.55C85.4004 40.85 86.2004 40.05 87.0004 39.35C87.0004 42.55 87.0004 48.95 87.0004 49.05C87.0004 50.75 89.6004 50.75 89.6004 49.05C89.6004 44.95 89.6004 40.75 89.6004 36.65C89.6004 36.55 89.6004 36.55 89.6004 36.45C89.5004 35.15 88.1004 34.75 87.3004 35.45Z" fill="#D23C50"/>
        <path d="M77.6999 53.55C77.5999 52.85 77.1999 52.25 76.3999 52.25C74.2999 52.25 72.1999 52.25 70.0999 52.35C69.5999 47.05 69.7999 41.75 70.1999 36.45C70.2999 35.75 69.5999 35.15 68.8999 35.15C64.6999 35.15 52.2999 35.15 50.3999 35.15C49.6999 35.15 48.9999 35.75 49.0999 36.45C49.2999 39.15 49.3999 41.95 49.3999 44.65C49.3999 46.95 49.2999 49.65 47.4999 51.35C46.7999 52.05 45.8999 52.35 44.8999 52.35C43.7999 52.35 42.5999 52.35 41.4999 52.35C40.8999 52.35 40.3999 52.75 40.1999 53.35C39.9999 54.05 40.3999 54.75 41.0999 54.95C43.5999 55.85 45.9999 57.35 47.7999 59.25C47.8999 59.35 47.9999 59.45 48.0999 59.55C48.5999 60.05 49.4999 60.05 49.8999 59.55C50.3999 59.05 50.3999 58.25 49.8999 57.75C48.9999 56.65 47.7999 55.75 46.6999 54.95C52.3999 54.95 69.9999 54.95 73.0999 54.95C71.8999 55.85 70.6999 56.85 69.4999 57.75C68.8999 58.15 68.9999 59.15 69.4999 59.55C69.9999 60.05 70.7999 59.95 71.2999 59.55C72.3999 58.65 73.5999 57.75 74.6999 56.85C75.1999 56.45 75.6999 56.05 76.2999 55.65C76.7999 55.25 77.3999 54.85 77.5999 54.25C77.6999 54.05 77.7999 53.85 77.6999 53.55ZM54.4999 52.35C52.9999 52.35 51.5999 52.35 50.0999 52.35C50.1999 52.15 50.2999 52.05 50.4999 51.85C51.6999 50.05 51.9999 47.95 52.0999 45.85C52.1999 43.15 51.9999 40.45 51.8999 37.75C51.8999 37.75 58.9999 37.75 63.1999 37.75C64.6999 37.75 66.0999 37.75 67.5999 37.75C67.5999 37.75 67.1999 46.55 67.5999 52.35C63.1999 52.35 58.7999 52.35 54.4999 52.35Z" fill="#D23C50"/>
        <path d="M87.2007 5.65001C83.4007 7.55001 79.6007 9.55001 75.9007 11.75C73.0007 13.45 70.2007 15.35 67.5007 17.25C67.5007 17.15 67.4007 15.75 67.3007 15.05C67.1007 11.35 67.0007 10.55 67.5007 6.85001C67.6007 6.15001 66.8007 5.55001 66.2007 5.55001C65.4007 5.55001 65.0007 6.15001 64.9007 6.85001C64.5007 10.55 64.5007 11.45 64.7007 15.15C64.8007 16.75 64.9007 18.35 65.2007 19.85C65.3007 20.35 65.7007 20.65 66.1007 20.75C66.7007 20.95 67.3007 20.55 67.8007 20.15C70.9007 17.95 74.0007 15.85 77.2007 13.95C80.2007 12.15 83.4007 10.45 86.5007 8.85001C86.5007 11.45 86.5007 21.15 86.5007 21.25C86.6007 22.05 87.0007 22.65 87.9007 22.65C88.6007 22.65 89.1007 22.05 89.1007 21.35C89.1007 19.05 89.1007 9.65001 89.1007 7.35001C89.1007 6.75001 89.2007 6.15001 88.6007 5.75001C88.3007 5.45001 87.7007 5.35001 87.2007 5.65001Z" fill="#D23C50"/>
        <path d="M46.8005 37.45C46.3005 34.95 44.1005 33.45 41.6005 33.45H41.5005H41.4005C40.3005 33.45 39.4005 33.85 38.5005 34.35C38.5005 34.25 38.5005 34.15 38.5005 34.15C38.5005 33.45 37.9005 32.85 37.2005 32.85C36.5005 32.85 35.9005 33.45 35.9005 34.15C35.8005 39.35 36.0005 44.65 36.4005 49.85C36.5005 50.55 37.0005 51.15 37.7005 51.15C38.4005 51.15 39.1005 50.55 39.0005 49.85C38.8005 47.75 38.7005 45.55 38.6005 43.45C40.3005 44.55 42.5005 44.55 44.3005 43.55C46.4005 42.15 47.3005 39.75 46.8005 37.45ZM44.2005 39.15C44.1005 39.95 43.7005 40.65 43.1005 41.05C41.6005 42.15 39.5005 41.45 38.9005 39.75C38.5005 38.65 38.8005 37.15 39.8005 36.45C40.9005 35.65 42.6005 35.85 43.5005 36.75C44.2005 37.45 44.4005 38.25 44.2005 39.15Z" fill="#D23C50"/>
        <path d="M33.4005 52.75C33.0005 47.65 32.8005 42.55 32.9005 37.45C32.9005 36.75 32.3005 36.15 31.6005 36.15C30.9005 36.15 30.3005 36.75 30.3005 37.45C30.3005 38.65 30.3005 39.85 30.3005 41.05C30.1005 40.85 29.9005 40.65 29.7005 40.45C28.3005 39.15 26.5005 38.65 24.6005 38.65C22.5005 38.65 20.5005 39.45 19.1005 41.05C17.6005 42.75 17.1005 45.05 17.4005 47.25C18.0005 51.55 22.6005 54.35 26.7005 53.05C28.3005 52.55 29.6005 51.55 30.6005 50.35C30.6005 51.15 30.7005 51.95 30.8005 52.75C30.8005 53.45 31.4005 54.05 32.1005 54.05C32.8005 54.15 33.5005 53.55 33.4005 52.75ZM29.4005 46.65C29.1005 48.75 27.4005 50.45 25.3005 50.75C23.6005 51.05 21.9005 50.25 20.8005 48.95C19.7005 47.65 19.7005 45.55 20.3005 44.05C21.3005 41.55 24.7005 40.75 27.0005 41.95C28.8005 42.75 29.7005 44.75 29.4005 46.65Z" fill="#D23C50"/>
        <path d="M46.7001 11.85C45.2001 8.54998 40.5001 8.54998 37.5001 9.24998C37.1001 9.34998 36.6001 9.74998 36.6001 10.15C36.1001 13.65 35.9001 17.25 36.1001 20.85C36.2001 22.45 36.3001 24.15 36.6001 25.75C36.7001 26.45 37.6001 26.85 38.2001 26.65C38.6001 26.55 38.9001 26.25 39.1001 25.85C39.3001 25.35 39.1001 24.85 39.1001 24.35C39.1001 24.45 39.1001 24.45 39.1001 24.55C38.9001 22.85 38.8001 21.15 38.7001 19.45C40.2001 19.75 41.9001 19.75 43.4001 19.45C44.8001 19.15 46.1001 18.25 46.7001 16.95C47.5001 15.55 47.4001 13.55 46.7001 11.85ZM44.6001 15.05C44.4001 15.85 43.9001 16.55 43.1001 16.85C42.0001 17.25 41.0001 17.25 39.9001 17.05C39.7001 17.05 38.7001 16.85 38.7001 16.85C38.7001 15.15 38.8001 13.35 39.1001 11.65C40.0001 11.55 40.9001 11.55 41.9001 11.65C42.7001 11.75 43.5001 12.05 44.1001 12.65C44.6001 13.35 44.8001 14.25 44.6001 15.05Z" fill="#D23C50"/>
        <path d="M33.5006 11.55C33.5006 10.65 33.4006 9.84999 33.2006 8.94999C32.7006 7.54999 31.8006 6.44999 30.5006 5.74999C27.8006 4.34999 24.5006 5.34999 22.6006 7.54999C22.1006 8.04999 22.1006 8.84999 22.6006 9.34999C23.1006 9.84999 24.0006 9.84999 24.4006 9.34999C25.2006 8.44999 26.2006 7.74999 27.4006 7.64999C28.4006 7.54999 29.4006 7.94999 30.1006 8.64999C30.8006 9.34999 31.0006 10.35 31.0006 11.35C31.0006 12.85 31.0006 14.35 31.0006 15.75C31.0006 15.65 30.3006 15.35 30.2006 15.25C27.3006 13.85 23.9006 14.85 22.6006 18.15C21.7006 20.35 22.6006 22.95 24.5006 24.35C26.4006 25.85 29.2006 25.75 31.1006 24.25C31.3006 24.85 31.8006 25.25 32.4006 25.25C33.1006 25.25 33.7006 24.65 33.7006 23.95C33.6006 19.85 33.5006 15.65 33.5006 11.55ZM30.3006 21.05C29.8006 22.65 27.9006 23.45 26.4006 22.75C25.0006 22.05 24.4006 20.15 25.2006 18.75C26.1006 17.25 28.4006 16.95 29.7006 18.25C30.5006 18.95 30.7006 20.05 30.3006 21.05Z" fill="#D23C50"/>
    </g>
    <defs>
        <clipPath id="clip0_9875_11464">
            <rect width="89.5" height="59.9" fill="white" transform="translate(0 0.0499878)"/>
        </clipPath>
    </defs>
</svg>
