<svg width="18" height="18" viewBox="0 0 18 18" fill="none" xmlns="http://www.w3.org/2000/svg">
    <path d="M17.7823 0.217449C17.681 0.116704 17.5532 0.046952 17.4137 0.0163941C17.2742 -0.0141638 17.1288 -0.00425713 16.9948 0.0449493L0.494756 6.04495C0.352458 6.09892 0.229946 6.19491 0.143495 6.32016C0.0570431 6.44542 0.0107422 6.59401 0.0107422 6.7462C0.0107422 6.89839 0.0570431 7.04698 0.143495 7.17223C0.229946 7.29749 0.352458 7.39348 0.494756 7.44745L4.45248 9.02778C5.95963 9.62958 7.68044 9.27442 8.82617 8.12508L11.1639 5.77995C11.4556 5.48737 11.9293 5.487 12.2214 5.77912C12.5132 6.07091 12.5132 6.54399 12.2214 6.83578L9.8712 9.18601C8.71927 10.3379 8.365 12.0657 8.97063 13.578L10.5523 17.5275C10.6078 17.667 10.704 17.7866 10.8284 17.8709C10.9528 17.9551 11.0995 18.0001 11.2498 17.9999C11.4013 17.9968 11.5484 17.9479 11.6716 17.8595C11.7947 17.7711 11.8882 17.6475 11.9398 17.5049L17.9398 1.00495C17.9909 0.872257 18.0032 0.727772 17.9753 0.588342C17.9474 0.448912 17.8805 0.320282 17.7823 0.217449Z" fill="#5F73AA"/>
</svg>