<svg width="1759" height="698" viewBox="0 0 1759 698" fill="none" xmlns="http://www.w3.org/2000/svg">
<path d="M433.392 431.958C388.544 491.265 406.328 467.388 419.473 452.754C441.897 428.107 374.625 481.252 396.276 469.699C410.967 461.997 424.886 452.754 440.35 445.822C421.793 453.524 403.235 461.227 384.677 468.929C408.648 459.686 432.618 453.524 458.135 449.673C437.257 452.754 417.153 455.065 396.276 458.146C425.659 454.295 454.269 454.295 482.878 457.375C462.001 454.295 441.897 451.984 421.02 448.903C445.763 452.754 469.734 458.916 493.704 468.158C475.146 460.456 456.588 452.754 438.031 445.052C444.99 448.133 471.28 467.388 477.466 466.618C473.599 467.388 432.618 426.567 451.176 447.363C456.589 453.524 462.775 459.686 468.187 465.078C498.343 495.116 452.722 445.822 453.496 445.822C455.815 445.822 466.641 464.307 468.187 465.848C476.693 478.171 485.198 490.495 494.477 502.048C535.458 556.734 574.12 602.177 632.886 639.917C689.333 676.118 757.378 693.833 823.876 696.913C927.49 702.305 1030.33 659.173 1111.52 598.326C1138.58 578.3 1164.87 557.504 1191.16 537.478C1198.9 531.316 1206.63 525.155 1213.59 519.763C1235.24 502.048 1167.19 552.883 1198.12 531.316C1225.19 512.061 1253.02 495.886 1283.18 482.022C1264.62 489.725 1246.06 497.427 1227.5 505.129C1270.81 487.414 1315.65 475.091 1362.05 468.929C1341.17 472.01 1321.07 474.32 1300.19 477.401C1351.22 471.239 1402.26 471.239 1453.29 478.171C1432.41 475.09 1412.31 472.78 1391.43 469.699C1441.69 476.631 1490.41 488.954 1537.57 508.21C1519.02 500.508 1500.46 492.805 1481.9 485.103C1513.6 498.967 1541.44 516.682 1570.82 534.397C1590.15 545.951 1522.88 493.576 1549.94 518.223C1555.36 523.614 1561.54 528.236 1566.96 533.627C1579.33 545.18 1590.15 558.274 1600.98 571.368C1635 614.5 1712.32 639.147 1764.9 639.147C1822.12 639.147 1889.4 613.73 1928.83 571.368C1969.04 527.465 1999.19 469.699 1996.87 408.081C1993.78 342.613 1969.04 295.629 1928.83 244.795C1798.93 80.7383 1560 4.48668 1355.86 11.4186C1238.33 15.2697 1126.21 42.2274 1021.05 96.1427C969.244 122.33 924.396 161.611 879.548 197.041C870.27 203.973 860.991 210.905 852.485 218.608C906.612 173.165 876.456 200.122 862.538 210.135C840.887 225.539 818.463 238.633 794.492 250.186C813.05 242.484 831.608 234.782 850.166 227.08C833.154 234.012 816.917 239.403 799.132 242.484C820.01 239.403 840.114 237.093 860.991 234.012C846.3 235.552 832.381 236.323 817.69 234.782C838.567 237.863 858.671 240.174 879.548 243.255C864.857 240.944 850.939 237.863 837.794 232.472C856.352 240.174 874.909 247.876 893.467 255.578C886.508 252.497 878.775 246.335 871.816 244.025C861.764 237.863 866.403 240.944 883.415 253.267C901.199 267.902 904.292 269.442 891.921 258.659C883.415 249.416 850.166 210.135 878.002 245.565C905.839 280.995 874.136 238.633 867.177 228.62C847.846 201.663 827.742 175.475 806.865 150.058C748.872 79.9681 661.496 28.3635 572.574 8.33776C481.332 -12.4582 383.131 -13.2284 291.889 12.9591C180.543 44.538 99.3533 107.696 31.3085 198.582C-2.71387 243.255 -6.58005 324.898 8.11143 376.502C22.8029 430.418 64.5578 488.184 114.818 514.372C168.945 542.87 233.896 556.734 293.436 537.478C356.068 518.993 395.503 482.793 433.392 431.958Z" fill="url(#paint0_linear)"/>
<defs>
<linearGradient id="paint0_linear" x1="998.5" y1="-7" x2="998.5" y2="697.368" gradientUnits="userSpaceOnUse">
<stop stop-color="#5F73AA" stop-opacity="0.08"/>
<stop offset="1" stop-color="#5F73AA" stop-opacity="0.04"/>
</linearGradient>
</defs>
</svg>
