<svg width="506" height="515" viewBox="0 0 506 515" fill="none" xmlns="http://www.w3.org/2000/svg">
<path d="M54.7503 204.332C46.1695 236.356 49.052 264.792 63.3979 289.64C77.7437 314.488 100.929 331.202 132.953 339.783C158.285 346.57 181.459 346.12 202.473 338.431C199.203 354.461 195.822 369.948 192.329 384.893C188.837 399.838 185.776 414.13 183.146 427.77C181.062 437.457 182.312 445.22 186.895 451.059C191.828 457.503 197.879 461.686 205.049 463.607C212.696 465.656 220.331 464.885 227.954 461.292C236.054 457.827 240.971 450.948 242.705 440.655C245.079 427.971 247.884 414.635 251.12 400.646C254.356 386.657 257.481 372.125 260.495 357.052C274.885 372.178 293.312 382.751 315.776 388.77C347.8 397.351 376.236 394.468 401.084 380.123C425.932 365.777 442.646 342.592 451.227 310.568C459.807 278.544 456.925 250.108 442.579 225.26C428.233 200.412 405.048 183.698 373.024 175.117C346.736 168.073 322.956 168.874 301.685 177.518C305.852 158.143 309.921 141.047 313.891 126.23C317.989 110.935 321.255 98.7469 323.689 89.6655C326.856 79.7562 325.973 71.5792 321.04 65.1346C316.236 58.212 310.009 53.7261 302.362 51.6769C295.192 49.7559 287.86 50.3527 280.366 53.4675C272.872 56.5822 267.844 62.9193 265.282 72.4787C262.849 81.5602 259.711 93.2704 255.869 107.61C252.155 121.471 248.343 137.611 244.432 156.03C230.264 141.988 212.187 132.021 190.201 126.13C158.177 117.549 129.741 120.432 104.893 134.778C80.0454 149.123 63.3311 172.308 54.7503 204.332ZM148.846 283.335C133.551 279.237 122.579 271.43 115.931 259.916C109.283 248.401 108.008 234.996 112.107 219.701C116.205 204.406 124.012 193.434 135.526 186.786C147.041 180.138 160.446 178.863 175.741 182.962C191.036 187.06 202.008 194.866 208.656 206.381C215.304 217.896 216.579 231.301 212.48 246.596C208.382 261.891 200.576 272.863 189.061 279.511C177.546 286.159 164.141 287.434 148.846 283.335ZM395.304 295.583C391.206 310.878 383.399 321.85 371.884 328.498C360.37 335.146 346.965 336.421 331.67 332.323C316.375 328.224 305.403 320.418 298.755 308.903C292.107 297.388 290.832 283.983 294.93 268.688C299.029 253.393 306.835 242.422 318.35 235.774C329.865 229.126 343.27 227.851 358.565 231.949C373.86 236.047 384.831 243.854 391.479 255.369C398.128 266.883 399.402 280.288 395.304 295.583Z" fill="#C4C4C4"/>
</svg>
