<svg width="919" height="857" viewBox="0 0 919 857" fill="none" xmlns="http://www.w3.org/2000/svg">
    <path d="M-541.691 811.198C-134.591 786.798 19.3093 788.498 426.409 764.098C1115.71 722.698 1064.11 -294.403 375.909 -253.203C-31.1907 -228.803 -185.091 -230.503 -592.191 -206.103C-1281.49 -164.703 -1229.99 852.498 -541.691 811.198Z" fill="#FCEEF4"/>
    <path d="M296.6 325.9C296.6 288.2 302.7 253.8 314.8 222.8C327 191.8 343.9 165.2 365.7 143C387.5 120.8 414.1 103.6 445.5 91.5C476.9 79.3 511.5 73.3 549.2 73.3C586.9 73.3 621.3 79.4 652.3 91.5C683.3 103.7 709.9 120.8 732.1 143C754.3 165.2 771.5 191.8 783.6 222.8C795.8 253.8 801.8 288.2 801.8 325.9C801.8 363.6 795.7 398 783.6 429C771.4 460 754.3 486.8 732.1 509.5C709.9 532.1 683.3 549.5 652.3 561.7C621.3 573.9 586.9 579.9 549.2 579.9C511.5 579.9 476.9 573.8 445.5 561.7C414.1 549.5 387.5 532.2 365.7 509.5C343.9 486.9 326.9 460 314.8 429C302.7 398 296.6 363.6 296.6 325.9ZM397.2 325.9C397.2 371.1 411 408 438.7 436.5C466.4 465 503.2 479.2 549.3 479.2C605.4 479.2 646.3 465 671.9 436.5C697.5 408 710.2 371.1 710.2 325.9C710.2 279.8 696.6 242.9 669.3 215.3C642 187.6 602 173.8 549.3 173.8C503.2 173.8 466.3 187.8 438.7 215.9C411 244 397.2 280.6 397.2 325.9ZM842.2 40.5C842.2 69 842.2 97.9 842.2 127.2V288.1C843 323.3 844.1 357.2 845.3 389.9C846.5 422.6 848 451.5 849.7 476.6C851.4 506.8 853 534.9 854.7 560.8C856.4 577.6 852 590.8 841.5 600.4C831 610 819.5 615.3 806.9 616.1C794.3 616.9 782.4 613.6 771.1 606C759.8 598.5 753.3 585.9 751.6 568.3C749.9 541.5 748.2 513 746.6 482.8C744.9 456.8 743.4 427.1 742.2 393.5C740.9 360 739.9 325.6 739.1 290.4V127.3C739.1 98 739.1 69.1 739.1 40.6C739.1 23 744.5 10 755.4 1.60001C766.3 -6.79999 778.2 -11 791.2 -11C804.2 -11 815.9 -6.6 826.4 2.2C836.9 11 842.2 23.8 842.2 40.5Z" fill="#5F73AA"/>
    <path d="M592.4 783.3C592.4 774.2 593.9 765.9 596.8 758.5C599.7 751 603.8 744.6 609.1 739.3C614.3 734 620.8 729.8 628.3 726.9C635.9 724 644.2 722.5 653.3 722.5C662.4 722.5 670.7 724 678.1 726.9C685.6 729.8 692 734 697.3 739.3C702.6 744.6 706.8 751.1 709.7 758.5C712.6 766 714.1 774.2 714.1 783.3C714.1 792.4 712.6 800.7 709.7 808.1C706.8 815.6 702.6 822 697.3 827.5C692 832.9 685.5 837.1 678.1 840.1C670.6 843 662.4 844.5 653.3 844.5C644.2 844.5 635.9 843 628.3 840.1C620.7 837.2 614.3 833 609.1 827.5C603.9 822.1 599.8 815.6 596.8 808.1C593.9 800.7 592.4 792.4 592.4 783.3ZM616.6 783.3C616.6 794.2 619.9 803.1 626.6 809.9C633.3 816.8 642.1 820.2 653.2 820.2C666.7 820.2 676.6 816.8 682.7 809.9C688.9 803 691.9 794.2 691.9 783.3C691.9 772.2 688.6 763.3 682.1 756.7C675.5 750 665.9 746.7 653.2 746.7C642.1 746.7 633.2 750.1 626.6 756.8C619.9 763.6 616.6 772.4 616.6 783.3Z" fill="#FFC124"/>
    <path d="M653.2 857C642.6 857 632.7 855.2 623.7 851.8C614.5 848.2 606.5 843 600 836.2C593.6 829.6 588.6 821.7 585.1 812.7C581.6 803.8 579.9 793.9 579.9 783.3C579.9 772.7 581.7 762.8 585.2 753.9C588.7 744.9 593.8 737 600.2 730.5C606.7 723.9 614.6 718.7 623.8 715.2C632.8 711.7 642.7 710 653.3 710C663.9 710 673.8 711.8 682.7 715.2C691.7 718.7 699.6 723.9 706.2 730.4C712.8 737 717.9 744.9 721.4 753.9C724.9 762.8 726.7 772.7 726.7 783.3C726.7 793.9 724.9 803.8 721.5 812.7C718 821.7 712.9 829.6 706.4 836.3C699.8 843 691.9 848.2 682.8 851.7C673.7 855.2 663.8 857 653.2 857ZM653.2 759.2C645.5 759.2 639.7 761.3 635.5 765.6C631.2 770 629.1 775.8 629.1 783.3C629.1 790.9 631.2 796.8 635.6 801.2C639.9 805.6 645.5 807.7 653.3 807.7C663.1 807.7 669.9 805.6 673.5 801.6C677.6 797.1 679.5 791.1 679.5 783.3C679.5 775.5 677.5 769.7 673.3 765.4C669.1 761.3 662.4 759.2 653.2 759.2Z" fill="#FFC124"/>
    <path d="M187.828 289.401C183.828 289.401 180.728 288.101 178.628 285.601C176.528 283.101 175.428 280.301 175.428 277.301C175.428 274.301 176.428 271.501 178.428 269.001C180.428 266.501 183.428 265.201 187.528 265.201H227.828C227.828 254.701 228.328 244.601 229.228 234.901C230.128 225.201 231.528 216.601 233.328 209.201C234.128 205.801 235.628 203.301 237.728 201.901C239.828 200.501 242.228 199.801 244.828 199.801C248.228 199.801 251.428 201.101 254.228 203.701C257.028 206.301 257.928 210.001 256.928 214.601C255.328 221.101 254.128 228.701 253.428 237.501C252.728 246.301 252.228 255.501 252.028 265.201H303.528C307.528 265.201 310.628 266.501 312.728 269.001C314.828 271.501 315.928 274.301 315.928 277.301C315.928 280.301 314.928 283.101 312.928 285.601C310.928 288.101 307.928 289.401 303.828 289.401H252.328C252.728 299.101 253.428 308.301 254.428 316.901C255.428 325.601 256.728 333.101 258.328 339.601C259.328 344.201 258.428 347.901 255.628 350.501C252.828 353.101 249.628 354.401 246.228 354.401C243.628 354.401 241.228 353.701 239.128 352.301C237.028 350.901 235.528 348.501 234.728 345.001C233.128 337.701 231.728 329.301 230.528 319.601C229.328 309.901 228.528 299.801 228.128 289.301H187.828V289.401Z" fill="#FFC124"/>
    <path d="M246.227 367C241.127 367 236.427 365.6 232.227 362.8C228.927 360.6 224.527 356.2 222.627 348V347.9C220.927 340.3 219.427 331.4 218.227 321.3C217.427 315 216.827 308.6 216.327 302H187.927C178.127 302 172.227 297.5 169.127 293.8C165.127 289.1 163.027 283.4 163.027 277.4C163.027 271.6 165.027 266 168.827 261.3C171.927 257.4 177.727 252.8 187.627 252.8H215.627C215.827 246.3 216.227 240 216.827 233.9C217.827 223.7 219.227 214.4 221.227 206.4C223.127 198.2 227.527 193.9 230.827 191.6C235.027 188.8 239.727 187.4 244.927 187.4C251.527 187.4 257.627 189.9 262.827 194.7C268.927 200.4 271.227 208.4 269.227 217.4L269.127 217.8C267.727 223.6 266.627 230.6 266.027 238.6C265.627 243.2 265.327 247.9 265.127 252.8H303.627C313.427 252.8 319.227 257.3 322.427 261C326.427 265.8 328.527 271.4 328.527 277.4C328.527 283.2 326.527 288.8 322.727 293.5C319.627 297.4 313.827 302 303.927 302H265.527C265.927 306.7 266.327 311.2 266.827 315.6C267.727 323.7 269.027 330.8 270.427 336.7L270.527 337.1C272.427 346.1 270.227 354.1 264.127 359.8C259.027 364.5 252.827 367 246.227 367Z" fill="#FFC124"/>
</svg>


