<svg width="358" height="478" viewBox="0 0 358 478" fill="none" xmlns="http://www.w3.org/2000/svg">
    <path d="M-456.632 452.453C-229.568 438.844 -143.729 439.792 83.3347 426.182C467.798 403.091 439.018 -164.206 55.1678 -141.226C-171.896 -127.617 -257.735 -128.565 -484.799 -114.956C-869.263 -91.8647 -840.538 475.488 -456.632 452.453Z" fill="#FCEEF4"/>
    <path d="M10.9321 181.774C10.9321 160.746 14.3345 141.559 21.0833 124.269C27.888 106.978 37.3142 92.1419 49.4733 79.7596C61.6325 67.3774 76.4689 57.7839 93.9825 51.035C111.496 44.2303 130.795 40.8838 151.822 40.8838C172.85 40.8838 192.037 44.2861 209.327 51.035C226.618 57.8397 241.454 67.3774 253.836 79.7596C266.219 92.1419 275.812 106.978 282.561 124.269C289.366 141.559 292.712 160.746 292.712 181.774C292.712 202.801 289.31 221.988 282.561 239.279C275.756 256.569 266.219 271.517 253.836 284.179C241.454 296.784 226.618 306.489 209.327 313.294C192.037 320.098 172.85 323.445 151.822 323.445C130.795 323.445 111.496 320.042 93.9825 313.294C76.4689 306.489 61.6325 296.84 49.4733 284.179C37.3142 271.573 27.8322 256.569 21.0833 239.279C14.3345 221.988 10.9321 202.801 10.9321 181.774ZM67.0428 181.774C67.0428 206.985 74.7398 227.566 90.1898 243.462C105.64 259.358 126.165 267.278 151.878 267.278C183.168 267.278 205.981 259.358 220.259 243.462C234.538 227.566 241.622 206.985 241.622 181.774C241.622 156.061 234.036 135.48 218.809 120.086C203.582 104.636 181.272 96.9386 151.878 96.9386C126.165 96.9386 105.584 104.747 90.1898 120.42C74.7398 136.093 67.0428 156.507 67.0428 181.774ZM315.246 22.5892C315.246 38.4854 315.246 54.6046 315.246 70.947V160.691C315.692 180.324 316.306 199.232 316.975 217.47C317.644 235.709 318.481 251.828 319.429 265.828C320.377 282.673 321.27 298.346 322.218 312.792C323.166 322.162 320.712 329.524 314.855 334.879C308.999 340.233 302.585 343.189 295.557 343.636C288.529 344.082 281.892 342.241 275.589 338.002C269.286 333.819 265.661 326.791 264.713 316.975C263.765 302.027 262.816 286.131 261.924 269.286C260.976 254.785 260.139 238.219 259.47 219.478C258.745 200.793 258.187 181.607 257.741 161.973V71.0028C257.741 54.6604 257.741 38.5412 257.741 22.645C257.741 12.8285 260.753 5.57758 266.832 0.892399C272.912 -3.79278 279.549 -6.13538 286.8 -6.13538C294.051 -6.13538 300.577 -3.68124 306.433 1.22705C312.29 6.13533 315.246 13.2747 315.246 22.5892Z" fill="#5F73AA"/>
    <path d="M175.917 436.893C175.917 431.817 176.754 427.188 178.372 423.061C179.989 418.877 182.276 415.308 185.232 412.352C188.132 409.396 191.758 407.053 195.941 405.435C200.18 403.818 204.809 402.981 209.885 402.981C214.961 402.981 219.59 403.818 223.717 405.435C227.901 407.053 231.47 409.396 234.426 412.352C237.383 415.308 239.725 418.933 241.343 423.061C242.96 427.244 243.797 431.817 243.797 436.893C243.797 441.969 242.96 446.598 241.343 450.726C239.725 454.909 237.383 458.478 234.426 461.546C231.47 464.558 227.845 466.901 223.717 468.574C219.534 470.191 214.961 471.028 209.885 471.028C204.809 471.028 200.18 470.191 195.941 468.574C191.702 466.956 188.132 464.614 185.232 461.546C182.332 458.534 180.045 454.909 178.372 450.726C176.754 446.598 175.917 441.969 175.917 436.893ZM189.415 436.893C189.415 442.973 191.256 447.937 194.993 451.729C198.73 455.578 203.638 457.474 209.829 457.474C217.359 457.474 222.881 455.578 226.283 451.729C229.741 447.881 231.415 442.973 231.415 436.893C231.415 430.702 229.574 425.738 225.948 422.057C222.267 418.32 216.913 416.479 209.829 416.479C203.638 416.479 198.674 418.375 194.993 422.112C191.256 425.905 189.415 430.814 189.415 436.893Z" fill="#FFC124"/>
    <path d="M209.83 478C203.917 478 198.396 476.996 193.376 475.1C188.244 473.092 183.782 470.191 180.157 466.399C176.587 462.717 173.798 458.311 171.846 453.291C169.894 448.327 168.946 442.805 168.946 436.893C168.946 430.981 169.95 425.459 171.902 420.495C173.854 415.475 176.699 411.069 180.268 407.443C183.894 403.762 188.3 400.862 193.431 398.91C198.451 396.957 203.973 396.009 209.885 396.009C215.798 396.009 221.319 397.013 226.283 398.91C231.303 400.862 235.71 403.762 239.391 407.388C243.072 411.069 245.917 415.475 247.869 420.495C249.821 425.459 250.825 430.981 250.825 436.893C250.825 442.805 249.821 448.327 247.925 453.291C245.972 458.311 243.128 462.717 239.502 466.454C235.821 470.191 231.415 473.092 226.339 475.044C221.264 476.996 215.742 478 209.83 478ZM209.83 423.451C205.535 423.451 202.3 424.622 199.957 427.021C197.559 429.475 196.388 432.71 196.388 436.893C196.388 441.132 197.559 444.423 200.013 446.877C202.411 449.331 205.535 450.502 209.885 450.502C215.351 450.502 219.144 449.331 221.152 447.1C223.439 444.59 224.499 441.244 224.499 436.893C224.499 432.543 223.383 429.308 221.041 426.909C218.698 424.622 214.961 423.451 209.83 423.451Z" fill="#FFC124"/>
    <path d="M16.6213 161.416C14.3902 161.416 12.6612 160.69 11.4899 159.296C10.3186 157.902 9.70508 156.34 9.70508 154.667C9.70508 152.993 10.2628 151.432 11.3784 150.037C12.4939 148.643 14.1671 147.918 16.454 147.918H38.9317C38.9317 142.061 39.2106 136.428 39.7125 131.018C40.2145 125.607 40.9954 120.811 41.9993 116.683C42.4455 114.787 43.2822 113.392 44.4535 112.612C45.6248 111.831 46.9634 111.44 48.4136 111.44C50.31 111.44 52.0948 112.165 53.6565 113.616C55.2183 115.066 55.7202 117.129 55.1625 119.695C54.2701 123.321 53.6008 127.56 53.2103 132.468C52.8199 137.376 52.541 142.508 52.4295 147.918H81.1541C83.3851 147.918 85.1141 148.643 86.2854 150.037C87.4567 151.432 88.0703 152.993 88.0703 154.667C88.0703 156.34 87.5125 157.902 86.397 159.296C85.2815 160.69 83.6082 161.416 81.3214 161.416H52.5968C52.8199 166.826 53.2103 171.957 53.7681 176.754C54.3258 181.606 55.0509 185.79 55.9433 189.415C56.5011 191.981 55.9991 194.045 54.4374 195.495C52.8756 196.945 51.0908 197.67 49.1945 197.67C47.7443 197.67 46.4056 197.28 45.2343 196.499C44.063 195.718 43.2264 194.379 42.7802 192.427C41.8878 188.355 41.1069 183.67 40.4376 178.26C39.7683 172.85 39.3221 167.216 39.099 161.36H16.6213V161.416Z" fill="#FFC124"/>
    <path d="M49.1942 204.698C46.3496 204.698 43.7281 203.917 41.3855 202.355C39.5449 201.128 37.0908 198.674 36.031 194.1V194.044C35.0828 189.805 34.2462 184.841 33.5769 179.208C33.1307 175.694 32.796 172.125 32.5172 168.443H16.6768C11.2108 168.443 7.91995 165.933 6.19089 163.87C3.95986 161.248 2.78857 158.069 2.78857 154.722C2.78857 151.487 3.90409 148.364 6.02357 145.742C7.75263 143.567 10.9876 141.002 16.5094 141.002H32.1267C32.2383 137.376 32.4614 133.862 32.796 130.46C33.3538 124.771 34.1347 119.584 35.2502 115.121C36.3099 110.548 38.7641 108.149 40.6047 106.867C42.9473 105.305 45.5688 104.524 48.4691 104.524C52.1503 104.524 55.5526 105.918 58.453 108.596C61.8553 111.775 63.1382 116.237 62.0227 121.257L61.9669 121.48C61.186 124.715 60.5725 128.619 60.2378 133.081C60.0147 135.647 59.8474 138.269 59.7358 141.002H81.2096C86.6756 141.002 89.9106 143.511 91.6955 145.575C93.9265 148.252 95.0978 151.376 95.0978 154.722C95.0978 157.957 93.9822 161.081 91.8628 163.702C90.1337 165.878 86.8987 168.443 81.3769 168.443H59.9589C60.182 171.065 60.4051 173.575 60.684 176.029C61.186 180.547 61.9111 184.507 62.692 187.798L62.7477 188.021C63.8075 193.04 62.5804 197.503 59.1781 200.682C56.3335 203.303 52.8754 204.698 49.1942 204.698Z" fill="#FFC124"/>
</svg>

