<svg width="375" height="220" viewBox="0 0 375 220" fill="none" xmlns="http://www.w3.org/2000/svg">
    <path d="M267.027 218.458C467.386 206.449 543.13 207.286 743.489 195.277C1082.74 174.901 1057.34 -325.677 718.635 -305.4C518.276 -293.392 442.532 -294.228 242.172 -282.219C-97.0755 -261.844 -71.7291 238.784 267.027 218.458Z" fill="#FCEEF4"/>
    <path d="M134 58.8096C134 40.2551 137.002 23.3247 142.957 8.06766C148.962 -7.18939 157.279 -20.2809 168.008 -31.2069C178.738 -42.1329 191.829 -50.5981 207.283 -56.5533C222.737 -62.5577 239.766 -65.5107 258.32 -65.5107C276.875 -65.5107 293.805 -62.5085 309.062 -56.5533C324.319 -50.5489 337.411 -42.1329 348.337 -31.2069C359.263 -20.2809 367.728 -7.18939 373.683 8.06766C379.688 23.3247 382.641 40.2551 382.641 58.8096C382.641 77.3642 379.638 94.2946 373.683 109.552C367.679 124.809 359.263 137.999 348.337 149.171C337.411 160.294 324.319 168.857 309.062 174.862C293.805 180.866 276.875 183.819 258.32 183.819C239.766 183.819 222.737 180.817 207.283 174.862C191.829 168.857 178.738 160.343 168.008 149.171C157.279 138.048 148.913 124.809 142.957 109.552C137.002 94.2946 134 77.3642 134 58.8096ZM183.512 58.8096C183.512 81.0554 190.303 99.2162 203.936 113.243C217.569 127.269 235.681 134.258 258.37 134.258C285.98 134.258 306.109 127.269 318.709 113.243C331.308 99.2162 337.559 81.0554 337.559 58.8096C337.559 36.1209 330.865 17.9601 317.429 4.37643C303.993 -9.25648 284.307 -16.0483 258.37 -16.0483C235.681 -16.0483 217.52 -9.15804 203.936 4.67174C190.303 18.5015 183.512 36.5147 183.512 58.8096ZM402.524 -81.6536C402.524 -67.627 402.524 -53.4035 402.524 -38.9831V40.2059C402.918 57.53 403.459 74.2143 404.05 90.308C404.64 106.402 405.379 120.625 406.215 132.979C407.052 147.842 407.839 161.672 408.676 174.419C409.513 182.687 407.347 189.184 402.18 193.908C397.012 198.633 391.352 201.242 385.151 201.635C378.949 202.029 373.093 200.405 367.531 196.664C361.97 192.973 358.771 186.772 357.934 178.11C357.097 164.92 356.261 150.893 355.473 136.03C354.637 123.234 353.898 108.617 353.308 92.0798C352.668 75.5924 352.176 58.662 351.782 41.3379V-38.9339C351.782 -53.3543 351.782 -67.5778 351.782 -81.6044C351.782 -90.2665 354.44 -96.6646 359.804 -100.799C365.169 -104.933 371.026 -107 377.424 -107C383.822 -107 389.58 -104.834 394.748 -100.503C399.916 -96.1724 402.524 -89.8727 402.524 -81.6536Z" fill="#5F73AA"/>
    <path d="M301.315 172.44C301.315 170.027 301.713 167.826 302.482 165.863C303.251 163.874 304.338 162.177 305.744 160.771C307.123 159.365 308.847 158.251 310.836 157.482C312.852 156.713 315.053 156.315 317.466 156.315C319.88 156.315 322.081 156.713 324.044 157.482C326.033 158.251 327.73 159.365 329.136 160.771C330.541 162.177 331.655 163.901 332.424 165.863C333.194 167.852 333.591 170.027 333.591 172.44C333.591 174.854 333.194 177.055 332.424 179.018C331.655 181.007 330.541 182.704 329.136 184.163C327.73 185.595 326.006 186.709 324.044 187.505C322.055 188.274 319.88 188.671 317.466 188.671C315.053 188.671 312.852 188.274 310.836 187.505C308.82 186.735 307.123 185.622 305.744 184.163C304.365 182.731 303.278 181.007 302.482 179.018C301.713 177.055 301.315 174.854 301.315 172.44ZM307.733 172.44C307.733 175.331 308.608 177.692 310.385 179.495C312.162 181.325 314.496 182.227 317.44 182.227C321.02 182.227 323.646 181.325 325.264 179.495C326.908 177.665 327.704 175.331 327.704 172.44C327.704 169.497 326.828 167.136 325.105 165.386C323.354 163.609 320.808 162.734 317.44 162.734C314.496 162.734 312.136 163.635 310.385 165.412C308.608 167.216 307.733 169.55 307.733 172.44Z" fill="#FFC124"/>
    <path d="M317.44 191.986C314.629 191.986 312.003 191.509 309.616 190.607C307.176 189.652 305.055 188.273 303.331 186.47C301.633 184.72 300.307 182.624 299.379 180.237C298.451 177.877 298 175.251 298 172.44C298 169.629 298.477 167.003 299.406 164.643C300.334 162.256 301.686 160.161 303.384 158.437C305.108 156.686 307.203 155.307 309.643 154.379C312.03 153.451 314.655 153 317.467 153C320.278 153 322.904 153.477 325.264 154.379C327.651 155.307 329.746 156.686 331.496 158.41C333.247 160.161 334.599 162.256 335.528 164.643C336.456 167.003 336.933 169.629 336.933 172.44C336.933 175.251 336.456 177.877 335.554 180.237C334.626 182.624 333.273 184.72 331.549 186.496C329.799 188.273 327.704 189.653 325.29 190.581C322.877 191.509 320.251 191.986 317.44 191.986ZM317.44 166.049C315.398 166.049 313.86 166.605 312.746 167.746C311.605 168.913 311.048 170.451 311.048 172.44C311.048 174.456 311.605 176.021 312.772 177.187C313.913 178.354 315.398 178.911 317.467 178.911C320.066 178.911 321.869 178.354 322.824 177.294C323.911 176.1 324.415 174.509 324.415 172.44C324.415 170.371 323.885 168.833 322.771 167.693C321.657 166.605 319.88 166.049 317.44 166.049Z" fill="#FFC124"/>
    <path d="M108.694 147.42C107.776 147.42 107.064 147.121 106.582 146.547C106.1 145.973 105.847 145.331 105.847 144.642C105.847 143.953 106.077 143.31 106.536 142.736C106.995 142.162 107.684 141.863 108.625 141.863H117.879C117.879 139.453 117.993 137.134 118.2 134.906C118.407 132.679 118.728 130.705 119.141 129.005C119.325 128.225 119.67 127.651 120.152 127.329C120.634 127.008 121.185 126.847 121.782 126.847C122.563 126.847 123.297 127.146 123.94 127.743C124.583 128.34 124.79 129.189 124.56 130.245C124.193 131.738 123.917 133.483 123.757 135.503C123.596 137.524 123.481 139.636 123.435 141.863H135.26C136.178 141.863 136.89 142.162 137.372 142.736C137.854 143.31 138.107 143.953 138.107 144.642C138.107 145.331 137.877 145.973 137.418 146.547C136.959 147.121 136.27 147.42 135.329 147.42H123.504C123.596 149.647 123.757 151.76 123.986 153.734C124.216 155.732 124.514 157.454 124.882 158.946C125.111 160.002 124.905 160.852 124.262 161.449C123.619 162.046 122.884 162.344 122.103 162.344C121.506 162.344 120.955 162.184 120.473 161.862C119.991 161.541 119.647 160.99 119.463 160.186C119.096 158.51 118.774 156.581 118.499 154.354C118.223 152.127 118.039 149.808 117.947 147.397H108.694V147.42Z" fill="#FFC124"/>
    <path d="M122.103 165.237C120.932 165.237 119.853 164.916 118.889 164.273C118.131 163.768 117.121 162.758 116.685 160.875V160.852C116.294 159.107 115.95 157.063 115.674 154.744C115.491 153.298 115.353 151.828 115.238 150.313H108.717C106.467 150.313 105.112 149.28 104.401 148.43C103.482 147.351 103 146.042 103 144.665C103 143.333 103.459 142.047 104.332 140.968C105.044 140.073 106.375 139.016 108.648 139.016H115.077C115.123 137.524 115.215 136.077 115.353 134.677C115.582 132.335 115.904 130.199 116.363 128.363C116.799 126.48 117.81 125.492 118.567 124.964C119.532 124.321 120.611 124 121.805 124C123.32 124 124.721 124.574 125.915 125.676C127.315 126.985 127.844 128.822 127.384 130.888L127.361 130.98C127.04 132.312 126.787 133.919 126.65 135.756C126.558 136.812 126.489 137.891 126.443 139.016H135.283C137.533 139.016 138.865 140.05 139.599 140.899C140.518 142.001 141 143.287 141 144.665C141 145.996 140.541 147.282 139.668 148.361C138.956 149.257 137.625 150.313 135.352 150.313H126.535C126.627 151.392 126.718 152.425 126.833 153.436C127.04 155.295 127.338 156.926 127.66 158.28L127.683 158.372C128.119 160.439 127.614 162.276 126.213 163.584C125.042 164.663 123.619 165.237 122.103 165.237Z" fill="#FFC124"/>
</svg>
