<svg width="1194" height="621" viewBox="0 0 1194 621" fill="none" xmlns="http://www.w3.org/2000/svg">
<g clip-path="url(#clip0)">
<path d="M744.911 -154.869C719.939 -119.181 706.317 -76.2288 713.128 -32.5501C720.211 13.1264 747.817 51.4474 782.142 81.1416C819.192 113.197 864.959 130.541 914.268 126.637C963.395 122.732 1006.35 94.6721 1037.13 57.3499C1063.1 25.8395 1011.71 -11.2102 985.916 20.1186C965.393 45 936.607 62.072 904.37 64.0697C872.224 66.0675 843.801 50.9934 819.374 29.8351C796.581 10.1297 779.872 -15.3873 775.695 -42.539C771.609 -68.6009 780.144 -94.7536 796.127 -117.728C819.464 -151.055 768.339 -188.377 744.911 -154.869Z" fill="#C2CCEA"/>
<path d="M293.14 577.8C303.492 592.874 318.385 604.497 336.546 608.311C355.525 612.216 374.686 607.04 391.394 597.868C409.465 587.97 422.996 572.533 428.716 552.646C434.437 532.759 429.715 511.692 419.545 494.166C411.009 479.364 388.852 494.075 397.388 508.876C404.108 520.591 406.65 534.394 402.655 547.379C398.75 560.274 388.67 569.264 376.683 575.802C365.605 581.886 353.073 584.701 341.813 582.34C330.916 580.07 321.926 572.896 315.297 563.271C305.672 549.014 283.424 563.634 293.14 577.8Z" fill="#EF8094"/>
<path d="M969.388 238.631C967.663 248.893 969.115 259.426 975.018 268.144C981.193 277.225 991 282.582 1001.35 285.488C1012.52 288.576 1024.15 287.577 1034.22 281.674C1044.3 275.772 1050.66 265.329 1053.48 254.25C1055.84 244.806 1041.04 242.173 1038.77 251.526C1036.95 258.972 1032.5 265.601 1025.78 269.324C1019.15 273.048 1011.52 272.775 1004.17 270.687C997.266 268.78 991.091 265.056 987.459 259.608C983.917 254.432 983.1 247.984 984.19 241.356C985.733 231.821 971.022 229.006 969.388 238.631Z" fill="#FFD67B"/>
<path d="M1092.61 203.398C1091.34 207.121 1088.62 210.118 1085.35 211.843C1079.9 214.204 1073 213.296 1068.64 209.119C1064.74 205.396 1063.83 199.584 1065.46 194.589C1066.73 190.866 1069.46 187.87 1072.73 186.144C1078.18 183.783 1085.08 184.691 1089.44 188.869C1093.34 192.592 1094.34 198.403 1092.61 203.398ZM1095.97 176.337C1095.88 176.246 1095.79 176.246 1095.7 176.155C1089.25 171.343 1081.08 169.98 1073.45 171.524C1069.19 172.251 1065.1 174.067 1061.56 176.791C1057.65 179.879 1054.48 184.056 1052.39 189.595C1047.94 201.218 1052.3 214.295 1062.01 221.741C1062.1 221.832 1062.19 221.832 1062.28 221.923C1068.73 226.735 1076.9 228.098 1084.53 226.554C1088.8 225.827 1092.89 224.011 1096.43 221.287C1100.33 218.2 1103.51 214.022 1105.6 208.483C1110.05 196.769 1105.69 183.693 1095.97 176.337Z" fill="#EF8094"/>
<path d="M917.99 657.348C910.634 679.596 894.38 697.212 874.493 707.655C841.984 721.549 800.938 716.464 774.695 691.219C751.539 668.971 745.818 634.283 755.716 604.407C763.071 582.159 779.326 564.542 799.213 554.099C831.722 540.205 872.767 545.291 899.011 570.535C922.167 592.783 927.888 627.472 917.99 657.348ZM937.968 495.8C937.514 495.437 937.06 495.164 936.515 494.801C898.375 466.378 849.43 457.842 803.935 467.377C778.327 471.827 754.081 482.27 733.105 498.615C709.858 516.777 690.697 542.112 678.347 574.622C651.922 643.999 677.893 721.821 735.647 765.863C736.101 766.227 736.555 766.499 737.1 766.862C775.24 795.285 824.185 803.821 869.68 794.286C895.288 789.837 919.534 779.394 940.51 763.048C963.757 744.887 982.918 719.551 995.268 687.042C1021.69 617.755 995.812 539.933 937.968 495.8Z" fill="#EF8094"/>
<path d="M364.697 444.766C361.519 445.674 358.068 445.311 355.253 443.767C350.985 441.134 348.17 435.867 348.988 430.782C349.714 426.241 353.256 422.791 357.614 421.429C360.793 420.52 364.243 420.884 367.058 422.427C371.326 425.061 374.141 430.328 373.324 435.413C372.507 440.044 368.965 443.495 364.697 444.766ZM385.129 433.96C385.129 433.869 385.129 433.778 385.129 433.688C385.311 426.877 382.314 420.52 377.501 415.98C374.868 413.347 371.69 411.349 368.057 410.259C364.062 408.988 359.521 408.897 354.709 410.078C344.447 412.62 337.455 422.064 337.092 432.416C337.092 432.507 337.092 432.598 337.092 432.689C336.91 439.499 339.907 445.856 344.72 450.396C347.353 453.03 350.531 455.028 354.164 456.117C358.159 457.389 362.7 457.479 367.513 456.299C377.774 453.665 384.766 444.312 385.129 433.96Z" fill="#EF8094"/>
<path d="M668.087 25.4758C677.531 25.4758 685.158 17.7571 685.158 8.22229C685.158 -1.31256 677.531 -9.03125 668.087 -9.03125C658.643 -9.03125 651.015 -1.31256 651.015 8.22229C651.015 17.7571 658.643 25.4758 668.087 25.4758Z" fill="#EF8094"/>
<path d="M-210.012 94.4944C-93.778 171.954 29.8119 241.059 154.037 304.988C213.789 335.772 261.554 248.414 201.53 217.539C77.3953 153.52 -46.1945 84.5056 -162.52 7.04625C-186.039 -8.66355 -220.274 3.77714 -232.26 25.8435C-246.063 51.2698 -233.532 78.7846 -210.012 94.4944Z" fill="#C2CCEA"/>
<path d="M1109.41 553.281C1105.6 532.395 1100.15 511.6 1093.98 491.259C1091.07 481.452 1076.45 485.448 1079.36 495.346C1085.44 515.687 1090.98 536.482 1094.79 557.368C1095.52 561.636 1100.51 563.997 1104.24 562.998C1108.51 561.817 1110.23 557.549 1109.41 553.281Z" fill="#C2CCEA"/>
<path d="M726.477 149.61C722.663 128.725 717.214 107.93 711.039 87.5885C708.133 77.7812 693.513 81.7768 696.419 91.6749C702.503 112.016 708.043 132.811 711.856 153.697C712.583 157.965 717.577 160.326 721.3 159.327C725.568 158.146 727.294 153.878 726.477 149.61Z" fill="#EF8094"/>
<path d="M227.94 507.877C247.827 500.522 267.441 491.441 286.329 481.906C295.501 477.275 288.963 463.653 279.791 468.285C260.812 477.82 241.289 486.9 221.402 494.256C217.406 495.709 215.862 501.066 217.497 504.517C219.404 508.513 223.853 509.421 227.94 507.877Z" fill="#FFD67B"/>
<path d="M158.562 46.935C166.19 74.0866 193.887 90.7953 222.764 86.7997C236.748 84.8927 231.572 64.3701 217.588 66.3679C200.788 68.7289 184.261 57.5595 179.902 42.1221C176.361 29.0458 154.93 33.7678 158.562 46.935Z" fill="#EF8094"/>
<path d="M526.88 -233.711C396.843 -194.755 318.929 -60.177 340.723 78.2145C351.257 145.322 448.603 128.613 438.07 61.6875C425.447 -18.7685 478.116 -109.123 551.943 -131.189C614.237 -149.895 589.628 -252.509 526.88 -233.711Z" fill="#FFD67B"/>
</g>
<defs>
<clipPath id="clip0">
<rect width="1194" height="621" fill="white"/>
</clipPath>
</defs>
</svg>
