<svg width="26" height="15" viewBox="0 0 26 15" fill="none" xmlns="http://www.w3.org/2000/svg">
<path d="M21.689 8.62276C21.2353 8.08383 21.4167 7.90419 21.689 7.36527C21.689 7.36527 25.1375 2.60479 25.5005 0.988024C25.6819 0.359282 25.5005 0 24.6837 0H21.8705C21.1445 0 20.7815 0.359281 20.6 0.808383C20.6 0.808383 19.148 4.22156 17.0608 6.46707C16.4256 7.09581 16.0626 7.27545 15.6996 7.27545C15.5181 7.27545 15.2458 7.09581 15.2458 6.46707V0.988024C15.2458 0.269461 15.0643 0 14.4291 0H9.98239C9.52864 0 9.25639 0.35928 9.25639 0.628742C9.25639 1.25748 10.2546 1.43712 10.3454 3.32335V7.36527C10.3454 8.26347 10.1639 8.44311 9.80089 8.44311C8.80265 8.44311 6.44317 5.02994 5.08193 1.07784C4.80969 0.26946 4.53745 0 3.81145 0H0.99823C0.18149 0 0 0.359281 0 0.808383C0 1.52695 0.998239 5.20958 4.53745 9.97006C6.89692 13.2934 10.1639 15 13.2493 15C15.0643 15 15.2458 14.6407 15.2458 13.9222C15.2458 10.7784 15.0643 10.509 15.9718 10.509C16.4256 10.509 17.1516 10.6886 18.785 12.3054C20.6908 14.1916 21.0538 15 22.1427 15H24.956C25.7727 15 26.1357 14.6407 25.9542 13.8323C25.5005 12.2156 21.8705 8.89222 21.689 8.62276Z" fill="#5F73AA"/>
</svg>
