<svg width="52" height="52" viewBox="0 0 52 52" fill="none" xmlns="http://www.w3.org/2000/svg">
<circle cx="26" cy="26" r="26" fill="#D23C50"/>
<path d="M41.1668 18.4162C41.1668 17.8179 40.6818 17.3328 40.0835 17.3328H38.1222C37.3068 17.3328 36.627 16.7477 36.2623 16.0184C35.3631 14.2202 33.5336 12.9995 31.4168 12.9995C29.3001 12.9995 27.4706 14.2202 26.5713 16.0184C26.2066 16.7477 25.5269 17.3328 24.7115 17.3328H11.9168C11.3185 17.3328 10.8335 17.8179 10.8335 18.4162C10.8335 19.0145 11.3185 19.4995 11.9168 19.4995H24.7115C25.5269 19.4995 26.2066 20.0846 26.5713 20.8139C27.4706 22.6122 29.3001 23.8328 31.4168 23.8328C33.5336 23.8328 35.3631 22.6122 36.2623 20.8139C36.627 20.0846 37.3068 19.4995 38.1222 19.4995H40.0835C40.6818 19.4995 41.1668 19.0145 41.1668 18.4162ZM31.4168 21.6662C29.5752 21.6662 28.1668 20.2578 28.1668 18.4162C28.1668 16.5745 29.5752 15.1662 31.4168 15.1662C33.2585 15.1662 34.6668 16.5745 34.6668 18.4162C34.6668 20.2578 33.2585 21.6662 31.4168 21.6662Z" fill="white"/>
<path d="M10.8335 33.5832C10.8335 34.1815 11.3185 34.6665 11.9168 34.6665H13.8782C14.6936 34.6665 15.3733 35.2516 15.738 35.9809C16.6373 37.7792 18.4668 38.9998 20.5835 38.9998C22.7002 38.9998 24.5297 37.7792 25.429 35.9809C25.7937 35.2516 26.4734 34.6665 27.2888 34.6665H40.0835C40.6818 34.6665 41.1668 34.1815 41.1668 33.5832C41.1668 32.9849 40.6818 32.4998 40.0835 32.4998H27.2888C26.4734 32.4998 25.7937 31.9147 25.429 31.1854C24.5297 29.3872 22.7002 28.1665 20.5835 28.1665C18.4668 28.1665 16.6373 29.3872 15.738 31.1854C15.3733 31.9147 14.6936 32.4998 13.8782 32.4998H11.9168C11.3185 32.4998 10.8335 32.9849 10.8335 33.5832ZM20.5835 30.3332C22.4252 30.3332 23.8335 31.7415 23.8335 33.5832C23.8335 35.4248 22.4252 36.8332 20.5835 36.8332C18.7418 36.8332 17.3335 35.4248 17.3335 33.5832C17.3335 31.7415 18.7418 30.3332 20.5835 30.3332Z" fill="white"/>
</svg>
