<svg width="20" height="20" viewBox="0 0 20 20" fill="none" xmlns="http://www.w3.org/2000/svg">
<path d="M1 2.92857C1 2.41708 1.20319 1.92654 1.56487 1.56487C1.92654 1.20319 2.41708 1 2.92857 1H6.78571C7.2972 1 7.78774 1.20319 8.14942 1.56487C8.5111 1.92654 8.71429 2.41708 8.71429 2.92857V6.78571C8.71429 7.2972 8.5111 7.78774 8.14942 8.14942C7.78774 8.5111 7.2972 8.71429 6.78571 8.71429H2.92857C2.41708 8.71429 1.92654 8.5111 1.56487 8.14942C1.20319 7.78774 1 7.2972 1 6.78571V2.92857ZM2.92857 2.28571C2.75808 2.28571 2.59456 2.35344 2.474 2.474C2.35344 2.59456 2.28571 2.75808 2.28571 2.92857V6.78571C2.28571 6.95621 2.35344 7.11972 2.474 7.24028C2.59456 7.36084 2.75808 7.42857 2.92857 7.42857H6.78571C6.95621 7.42857 7.11972 7.36084 7.24028 7.24028C7.36084 7.11972 7.42857 6.95621 7.42857 6.78571V2.92857C7.42857 2.75808 7.36084 2.59456 7.24028 2.474C7.11972 2.35344 6.95621 2.28571 6.78571 2.28571H2.92857ZM11.2857 2.92857C11.2857 2.41708 11.4889 1.92654 11.8506 1.56487C12.2123 1.20319 12.7028 1 13.2143 1H17.0714C17.5829 1 18.0735 1.20319 18.4351 1.56487C18.7968 1.92654 19 2.41708 19 2.92857V6.78571C19 7.2972 18.7968 7.78774 18.4351 8.14942C18.0735 8.5111 17.5829 8.71429 17.0714 8.71429H13.2143C12.7028 8.71429 12.2123 8.5111 11.8506 8.14942C11.4889 7.78774 11.2857 7.2972 11.2857 6.78571V2.92857ZM13.2143 2.28571C13.0438 2.28571 12.8803 2.35344 12.7597 2.474C12.6392 2.59456 12.5714 2.75808 12.5714 2.92857V6.78571C12.5714 6.95621 12.6392 7.11972 12.7597 7.24028C12.8803 7.36084 13.0438 7.42857 13.2143 7.42857H17.0714C17.2419 7.42857 17.4054 7.36084 17.526 7.24028C17.6466 7.11972 17.7143 6.95621 17.7143 6.78571V2.92857C17.7143 2.75808 17.6466 2.59456 17.526 2.474C17.4054 2.35344 17.2419 2.28571 17.0714 2.28571H13.2143ZM1 13.2143C1 12.7028 1.20319 12.2123 1.56487 11.8506C1.92654 11.4889 2.41708 11.2857 2.92857 11.2857H6.78571C7.2972 11.2857 7.78774 11.4889 8.14942 11.8506C8.5111 12.2123 8.71429 12.7028 8.71429 13.2143V17.0714C8.71429 17.5829 8.5111 18.0735 8.14942 18.4351C7.78774 18.7968 7.2972 19 6.78571 19H2.92857C2.41708 19 1.92654 18.7968 1.56487 18.4351C1.20319 18.0735 1 17.5829 1 17.0714V13.2143ZM2.92857 12.5714C2.75808 12.5714 2.59456 12.6392 2.474 12.7597C2.35344 12.8803 2.28571 13.0438 2.28571 13.2143V17.0714C2.28571 17.2419 2.35344 17.4054 2.474 17.526C2.59456 17.6466 2.75808 17.7143 2.92857 17.7143H6.78571C6.95621 17.7143 7.11972 17.6466 7.24028 17.526C7.36084 17.4054 7.42857 17.2419 7.42857 17.0714V13.2143C7.42857 13.0438 7.36084 12.8803 7.24028 12.7597C7.11972 12.6392 6.95621 12.5714 6.78571 12.5714H2.92857ZM11.2857 13.2143C11.2857 12.7028 11.4889 12.2123 11.8506 11.8506C12.2123 11.4889 12.7028 11.2857 13.2143 11.2857H17.0714C17.5829 11.2857 18.0735 11.4889 18.4351 11.8506C18.7968 12.2123 19 12.7028 19 13.2143V17.0714C19 17.5829 18.7968 18.0735 18.4351 18.4351C18.0735 18.7968 17.5829 19 17.0714 19H13.2143C12.7028 19 12.2123 18.7968 11.8506 18.4351C11.4889 18.0735 11.2857 17.5829 11.2857 17.0714V13.2143ZM13.2143 12.5714C13.0438 12.5714 12.8803 12.6392 12.7597 12.7597C12.6392 12.8803 12.5714 13.0438 12.5714 13.2143V17.0714C12.5714 17.2419 12.6392 17.4054 12.7597 17.526C12.8803 17.6466 13.0438 17.7143 13.2143 17.7143H17.0714C17.2419 17.7143 17.4054 17.6466 17.526 17.526C17.6466 17.4054 17.7143 17.2419 17.7143 17.0714V13.2143C17.7143 13.0438 17.6466 12.8803 17.526 12.7597C17.4054 12.6392 17.2419 12.5714 17.0714 12.5714H13.2143Z" fill="#D23C50" stroke="#D23C50" stroke-width="0.6"/>
</svg>
