<svg width="100%" height="100%" viewBox="0 0 249 279" fill="none" xmlns="http://www.w3.org/2000/svg">
    <path d="M0.88551 149.548C0.88551 132.834 3.57885 117.604 8.96551 103.858C14.0111 90.6524 21.6901 78.6116 31.5355 68.4675C41.5492 58.3913 53.6211 50.5969 66.9255 45.6175C80.8588 40.2308 96.1922 37.5375 112.926 37.5375C129.659 37.5375 144.892 40.2308 158.626 45.6175C171.88 50.6899 183.93 58.4724 194.006 68.4675C203.999 78.5479 211.781 90.601 216.856 103.858C222.242 117.604 224.936 132.834 224.936 149.548C224.936 166.261 222.242 181.494 216.856 195.248C211.741 208.566 203.966 220.703 194.006 230.918C183.984 241.058 171.911 248.941 158.596 254.038C144.842 259.424 129.609 262.117 112.896 262.117C96.1822 262.117 80.8488 259.424 66.8955 254.038C53.539 249.029 41.4542 241.13 31.5055 230.908C21.6933 220.63 14.0214 208.505 8.93551 195.238C3.56218 181.497 0.878844 166.268 0.88551 149.548ZM45.4655 149.548C45.4655 169.607 51.5955 185.941 63.8555 198.548C76.1155 211.154 92.4489 217.471 112.856 217.497C137.742 217.497 155.856 211.181 167.196 198.548C178.536 185.914 184.202 169.581 184.196 149.548C184.196 129.114 178.156 112.781 166.076 100.547C153.996 88.3142 136.269 82.1708 112.896 82.1175C92.4622 82.1175 76.1288 88.3408 63.8955 100.787C51.6622 113.234 45.5188 129.488 45.4655 149.548ZM242.756 23.0375V132.827C243.122 148.428 243.586 163.474 244.146 177.967C244.706 192.461 245.372 205.278 246.146 216.418C246.886 229.798 247.629 242.244 248.376 253.758C249.116 261.191 247.166 267.041 242.526 271.307C238.396 275.362 232.974 277.84 227.206 278.307C221.56 278.66 215.962 277.088 211.326 273.848C206.312 270.514 203.432 264.941 202.686 257.128C201.939 245.241 201.199 232.608 200.466 219.228C199.719 207.714 199.052 194.524 198.466 179.658C197.879 164.791 197.416 149.561 197.076 133.967V23.0375C197.076 15.2375 199.492 9.48083 204.326 5.7675C208.834 2.16236 214.433 0.19496 220.206 0.1875C225.936 0.187345 231.471 2.26591 235.786 6.0375C240.426 9.94417 242.749 15.6108 242.756 23.0375Z" fill="#5F73AA"/>
</svg>
