<svg viewBox="0 0 95 110" fill="none" xmlns="http://www.w3.org/2000/svg">
    <path d="M83.3554 109.608C80.7095 109.591 78.1512 108.658 76.1154 106.968C74.8753 105.957 73.8867 104.672 73.2273 103.215C72.5679 101.757 72.2558 100.166 72.3153 98.5675V53.2475H58.0254V98.6975C58.092 100.286 57.7868 101.868 57.134 103.318C56.4812 104.767 55.4989 106.045 54.2654 107.048C52.2481 108.698 49.7219 109.6 47.1153 109.6C44.5088 109.6 41.9826 108.698 39.9654 107.048C38.7312 106.045 37.7485 104.768 37.0956 103.318C36.4428 101.868 36.1379 100.286 36.2054 98.6975V53.2475H23.8054V56.2475C23.8054 57.7275 23.8054 59.3275 23.8754 60.9975C23.8754 62.8575 23.9454 65.0675 23.9454 67.5775C23.9454 69.7675 23.9454 72.1875 24.0754 74.7675L24.3454 82.8875C24.4354 85.5375 24.5654 88.0975 24.7354 90.5175C24.9054 92.9375 25.0453 95.2575 25.1453 97.2375C25.3053 98.7694 25.1511 100.318 24.692 101.788C24.2329 103.258 23.4786 104.619 22.4753 105.788C21.4985 106.905 20.3101 107.817 18.9788 108.472C17.6475 109.128 16.1996 109.513 14.7187 109.606C13.2377 109.699 11.753 109.498 10.3502 109.014C8.94737 108.53 7.65423 107.774 6.54536 106.788C5.50418 105.834 4.66167 104.684 4.06618 103.404C3.4707 102.123 3.13397 100.738 3.07535 99.3275V99.2375C2.98535 97.1476 2.85536 94.7876 2.68536 92.2375C2.51536 89.6875 2.36535 86.7275 2.27535 83.8475L2.00535 75.4675C1.91535 72.6675 1.86535 70.0375 1.86535 67.6475V61.0075C1.86535 58.2675 1.86536 55.6175 1.93536 53.1275C2.00536 50.6375 2.00535 48.2975 2.00535 46.3175V42.3175C1.95585 39.874 2.65362 37.4737 4.00535 35.4375C5.22535 33.6575 7.68536 31.5375 12.5454 31.5375H84.8753C87.0514 31.4564 89.1832 32.167 90.8753 33.5375C91.8283 34.3114 92.6432 35.2412 93.2853 36.2875L93.4854 36.6075L93.6354 36.9576C94.2101 38.3281 94.4994 39.8014 94.4854 41.2875V98.7175C94.5447 100.291 94.2472 101.858 93.6151 103.301C92.983 104.743 92.0327 106.024 90.8354 107.048C88.7285 108.768 86.0746 109.676 83.3554 109.608ZM13.1054 42.5575V43.9675L13.1854 42.5575H13.1054ZM83.7853 23.7475H82.7853C77.1653 23.3075 70.9254 22.9275 64.2354 22.6175C51.4654 22.0275 38.3954 21.9975 26.7754 22.5475C21.2254 22.8075 16.2654 23.1175 12.0154 23.4775H11.5554C8.87241 23.5298 6.24937 22.6813 4.10535 21.0675C2.83777 20.0843 1.82533 18.8106 1.15351 17.3538C0.481691 15.897 0.170209 14.3 0.245353 12.6975C0.250988 10.252 1.03948 7.8725 2.49535 5.90753C3.3907 4.68938 4.54064 3.68085 5.8652 2.95209C7.18975 2.22332 8.65715 1.7918 10.1654 1.68753H10.3554C16.0354 1.23753 21.7754 0.89753 27.4154 0.687531C33.0554 0.477531 38.9154 0.347534 44.7454 0.347534C57.2454 0.347534 70.5954 0.897529 84.4254 1.96753C86.0128 1.98371 87.5736 2.3776 88.9787 3.11664C90.3837 3.85567 91.5926 4.91861 92.5053 6.21753C93.9766 8.32536 94.6823 10.8731 94.5053 13.4375C94.3342 15.9177 93.3701 18.2772 91.7553 20.1675C90.7763 21.3234 89.5475 22.2418 88.1616 22.8533C86.7758 23.4648 85.2691 23.7535 83.7553 23.6975L83.7853 23.7475Z" fill="#5F73AA"/>
</svg>
