<svg viewBox="0 0 308 335" fill="none" xmlns="http://www.w3.org/2000/svg">
<path d="M66.0586 120.792C54.3018 113.741 41.6043 106.691 28.4367 99.6413C20.9123 95.4112 15.7392 90.2412 13.3879 83.6611C11.0365 77.081 11.0365 70.9709 12.9176 64.8608C14.7987 58.7508 18.5609 53.1107 23.7339 48.8806C28.9069 44.1806 35.0205 41.8305 42.0746 41.8305C47.7179 41.8305 52.8909 43.2406 57.5937 45.5906C69.8208 51.7007 82.048 58.2807 93.3346 64.3908C105.091 70.9709 115.908 77.081 126.254 83.1911V31.0204C126.254 20.6803 129.546 13.1602 136.13 7.9901C142.243 2.35003 149.297 0 157.292 0C164.816 0 171.87 2.35003 178.454 7.5201C185.038 12.6902 187.86 20.6803 187.86 31.0204V99.6413L263.574 63.4508C267.806 61.5708 272.509 60.1608 278.153 60.1608C285.207 60.1608 291.32 62.5108 296.493 67.2109C301.666 71.9109 304.958 77.551 306.839 83.6611C308.72 90.2412 308.25 96.3512 305.899 102.931C303.547 109.511 298.374 114.681 289.909 118.912L219.838 152.752C244.763 174.372 270.158 198.813 296.023 227.013C301.666 232.653 304.958 238.763 305.428 244.873C305.899 250.983 304.958 256.623 302.137 261.323C299.785 266.023 296.023 270.253 290.85 273.544C286.147 276.834 280.504 278.714 274.39 278.714C265.925 278.714 258.871 275.424 251.817 268.843C240.06 257.093 228.774 246.283 218.428 235.943C208.552 225.603 198.206 215.733 187.86 206.803V304.094C187.86 314.434 184.568 321.954 177.984 327.124C171.4 332.294 164.346 334.644 156.822 334.644C149.297 334.644 142.243 332.294 135.659 327.124C129.075 321.954 125.784 314.434 125.784 304.094V197.403L44.426 236.883C40.1935 238.763 35.4908 239.703 29.8475 239.703C22.7934 239.703 16.6798 237.353 11.5068 232.653C6.33374 227.953 3.04182 222.313 1.16072 216.203C-0.720377 209.623 -0.250102 203.043 2.10127 196.463C4.45264 189.882 9.62567 184.712 18.0906 180.952L100.859 141.472C89.1021 134.892 77.8155 127.842 66.0586 120.792Z" fill="#E8819F"/>
</svg>
