<svg width="375" height="378" viewBox="0 0 375 378" fill="none" xmlns="http://www.w3.org/2000/svg">
    <path d="M25.9837 377.88C203.037 367.268 269.97 368.007 447.023 357.395C746.808 339.39 724.367 -102.96 425.06 -85.0414C248.007 -74.4295 181.074 -75.1689 4.02065 -64.557C-295.765 -46.5516 -273.367 395.842 25.9837 377.88Z" fill="#FCEEF4"/>
    <path d="M45.4674 336.302C208.821 339.042 270.187 344.696 433.54 347.436C710.101 352.09 723.627 -76.1692 447.457 -80.8227C284.148 -83.5627 222.738 -89.2165 59.4281 -91.9565C-217.177 -96.6101 -230.702 331.649 45.4674 336.302Z" fill="#FADDEA"/>
    <path d="M-81.0049 116.149C-81.0049 99.7529 -78.3519 84.7919 -73.0895 71.3096C-67.7835 57.8273 -60.4335 46.2586 -50.9524 36.6035C-41.4713 26.9485 -29.9026 19.468 -16.2464 14.2055C-2.5901 8.89959 12.4579 6.29011 28.8541 6.29011C45.2503 6.29011 60.2113 8.94308 73.6936 14.2055C87.1759 19.5115 98.7446 26.9485 108.4 36.6035C118.055 46.2586 125.535 57.8273 130.798 71.3096C136.104 84.7919 138.713 99.7529 138.713 116.149C138.713 132.545 136.06 147.506 130.798 160.989C125.492 174.471 118.055 186.127 108.4 195.999C98.7446 205.828 87.1759 213.396 73.6936 218.702C60.2113 224.008 45.2503 226.617 28.8541 226.617C12.4579 226.617 -2.5901 223.964 -16.2464 218.702C-29.9026 213.396 -41.4713 205.872 -50.9524 195.999C-60.4335 186.17 -67.827 174.471 -73.0895 160.989C-78.3519 147.506 -81.0049 132.545 -81.0049 116.149ZM-37.2526 116.149C-37.2526 135.807 -31.2508 151.855 -19.2038 164.25C-7.15668 176.645 8.84811 182.821 28.8976 182.821C53.2962 182.821 71.0842 176.645 82.2179 164.25C93.3517 151.855 98.8751 135.807 98.8751 116.149C98.8751 96.0996 92.9603 80.0513 81.0871 68.0477C69.214 56.0007 51.8175 49.9989 28.8976 49.9989C8.84811 49.9989 -7.20017 56.0876 -19.2038 68.3087C-31.2508 80.5297 -37.2526 96.4476 -37.2526 116.149ZM156.284 -7.97503C156.284 4.41998 156.284 16.989 156.284 29.7319V99.7094C156.631 115.018 157.11 129.762 157.632 143.984C158.154 158.205 158.806 170.774 159.545 181.69C160.285 194.825 160.981 207.046 161.72 218.31C162.459 225.617 160.546 231.358 155.979 235.533C151.413 239.708 146.411 242.013 140.931 242.361C135.451 242.709 130.276 241.274 125.361 237.968C120.447 234.706 117.62 229.226 116.88 221.572C116.141 209.916 115.402 197.521 114.706 184.387C113.967 173.079 113.314 160.162 112.792 145.549C112.227 130.98 111.792 116.019 111.444 100.71V29.7754C111.444 17.0325 111.444 4.46348 111.444 -7.93154C111.444 -15.586 113.793 -21.2399 118.533 -24.8931C123.274 -28.5464 128.449 -30.373 134.103 -30.373C139.757 -30.373 144.845 -28.4594 149.412 -24.6322C153.979 -20.805 156.284 -15.2381 156.284 -7.97503Z" fill="#5F73AA"/>
    <path d="M265.747 252.007C260.18 252.268 255.266 252.572 251.09 252.92C249.525 252.92 248.176 252.485 247.089 251.659C246.002 250.832 245.437 249.528 245.437 247.788C245.437 246.57 245.828 245.396 246.611 244.309C247.394 243.221 248.611 242.569 250.308 242.395C255.831 241.96 261.354 241.612 266.834 241.395C272.314 241.177 277.925 241.047 283.622 241.047C295.799 241.047 308.673 241.569 322.199 242.613C323.938 242.7 325.243 243.308 326.026 244.439C326.809 245.57 327.157 246.788 327.07 248.049C326.983 249.31 326.504 250.485 325.634 251.528C324.765 252.572 323.547 253.094 321.938 253.094H321.416C315.805 252.659 309.673 252.268 303.062 251.963C296.452 251.659 289.841 251.485 283.23 251.485C277.142 251.615 271.314 251.746 265.747 252.007ZM282.317 330.465C281.23 329.595 280.664 328.29 280.664 326.507V276.492H257.745C257.658 277.971 257.614 279.406 257.614 280.711C257.614 282.016 257.614 283.407 257.614 284.843C257.614 286.278 257.614 287.887 257.701 289.627C257.745 291.366 257.788 293.497 257.788 295.933C257.788 298.107 257.832 300.543 257.919 303.152C258.005 305.805 258.093 308.458 258.179 311.111C258.266 313.808 258.397 316.374 258.571 318.809C258.745 321.288 258.875 323.463 258.962 325.376C259.136 327.116 258.701 328.638 257.658 329.856C256.614 331.074 255.179 331.683 253.439 331.683C252.047 331.683 250.829 331.204 249.829 330.291C248.829 329.378 248.263 328.16 248.176 326.681C248.09 324.594 247.959 322.245 247.785 319.636C247.611 317.07 247.481 314.373 247.394 311.59C247.307 308.806 247.22 306.066 247.133 303.37C247.046 300.63 247.002 298.151 247.002 295.846C247.002 294.106 247.002 291.932 247.002 289.322C247.002 286.713 247.002 284.19 247.089 281.668C247.133 279.145 247.176 276.927 247.176 274.883C247.176 272.883 247.176 271.534 247.176 270.925C247.176 269.447 247.524 268.185 248.176 267.229C248.829 266.272 250.134 265.793 252.047 265.793H322.982C324.025 265.793 324.808 266.011 325.33 266.446C325.852 266.881 326.243 267.316 326.504 267.751C326.765 268.359 326.896 269.055 326.896 269.838V326.159C326.896 327.899 326.33 329.247 325.243 330.161C324.156 331.074 322.895 331.552 321.503 331.552C320.198 331.552 318.937 331.074 317.806 330.161C316.675 329.247 316.11 327.899 316.11 326.159V276.492H291.233V326.507C291.233 328.247 290.667 329.595 289.58 330.465C288.493 331.335 287.275 331.77 285.97 331.77C284.666 331.77 283.404 331.335 282.317 330.465Z" fill="#5F73AA"/>
    <path d="M321.503 337.206C318.937 337.206 316.501 336.293 314.414 334.597C312.717 333.205 310.673 330.682 310.673 326.333V281.929H296.669V326.507C296.669 330.856 294.669 333.379 292.972 334.684C290.928 336.336 288.493 337.206 285.97 337.206C283.448 337.206 281.012 336.336 278.968 334.684C277.272 333.335 275.271 330.813 275.271 326.507V281.929H263.094V284.843C263.094 286.278 263.094 287.843 263.137 289.496C263.181 291.323 263.224 293.497 263.224 295.976C263.224 298.107 263.268 300.499 263.355 303.022L263.616 310.981C263.703 313.59 263.833 316.113 264.007 318.461C264.181 320.897 264.312 323.115 264.399 325.072C264.66 328.247 263.79 331.161 261.789 333.466C259.702 335.901 256.831 337.206 253.439 337.206C250.699 337.206 248.176 336.249 246.132 334.379C244.088 332.509 242.914 329.986 242.74 327.073V326.986C242.653 324.941 242.523 322.636 242.349 320.07C242.175 317.417 242.044 314.678 241.957 311.851L241.696 303.631C241.609 300.891 241.566 298.325 241.566 295.976V289.453C241.566 286.756 241.609 284.147 241.653 281.711C241.696 279.232 241.696 276.971 241.696 275.013V271.056C241.696 268.446 242.349 266.185 243.61 264.315C244.784 262.575 247.22 260.487 252.004 260.487H322.938C325.286 260.487 327.244 261.14 328.766 262.401C329.766 263.227 330.549 264.141 331.114 265.097L331.288 265.402L331.419 265.75C331.984 267.055 332.245 268.49 332.245 270.012V326.333C332.245 330.595 330.288 333.118 328.679 334.51C326.678 336.293 324.156 337.206 321.503 337.206ZM252.526 271.404V272.795L252.612 271.404H252.526ZM321.894 252.963H320.937C315.414 252.528 309.325 252.181 302.758 251.876C290.232 251.311 277.403 251.267 266.008 251.789C260.571 252.05 255.7 252.355 251.525 252.702H251.09C248.307 252.702 245.828 251.92 243.784 250.354C242.044 249.049 240 246.57 240 242.134C240 239.742 240.739 237.524 242.218 235.48C243.392 233.827 245.697 231.783 249.742 231.348H249.873C255.439 230.913 261.093 230.565 266.617 230.348C272.184 230.13 277.881 230 283.622 230C295.886 230 308.977 230.522 322.546 231.609C326.896 231.87 329.244 234.001 330.462 235.784C331.941 237.915 332.636 240.394 332.462 242.873C332.288 245.309 331.375 247.527 329.766 249.484C328.374 251.05 325.939 252.963 321.894 252.963Z" fill="#5F73AA"/>
    <path d="M47.6426 315.078C47.6426 311.121 48.2949 307.511 49.5562 304.293C50.8174 301.031 52.6006 298.247 54.9056 295.942C57.1671 293.637 59.9941 291.811 63.2559 290.549C66.5613 289.288 70.171 288.636 74.1288 288.636C78.0865 288.636 81.6962 289.288 84.9146 290.549C88.1764 291.811 90.9599 293.637 93.2649 295.942C95.57 298.247 97.3966 301.074 98.6579 304.293C99.9191 307.554 100.571 311.121 100.571 315.078C100.571 319.036 99.9191 322.646 98.6579 325.864C97.3966 329.126 95.57 331.91 93.2649 334.302C90.9599 336.65 88.1329 338.477 84.9146 339.781C81.6527 341.043 78.0865 341.695 74.1288 341.695C70.171 341.695 66.5613 341.043 63.2559 339.781C59.9506 338.52 57.1671 336.694 54.9056 334.302C52.6441 331.953 50.8609 329.126 49.5562 325.864C48.2949 322.646 47.6426 319.036 47.6426 315.078ZM58.1674 315.078C58.1674 319.819 59.6027 323.69 62.5166 326.647C65.4305 329.648 69.2577 331.127 74.0853 331.127C79.9566 331.127 84.2622 329.648 86.9152 326.647C89.6117 323.646 90.9164 319.819 90.9164 315.078C90.9164 310.251 89.4812 306.38 86.6542 303.51C83.7838 300.596 79.6087 299.161 74.0853 299.161C69.2577 299.161 65.387 300.639 62.5166 303.553C59.6027 306.511 58.1674 310.338 58.1674 315.078Z" fill="#FFC124"/>
    <path d="M74.0852 347.131C69.4751 347.131 65.1694 346.349 61.2552 344.87C57.254 343.304 53.7747 341.043 50.9478 338.085C48.1644 335.215 45.9898 331.779 44.4676 327.865C42.9454 323.994 42.2061 319.688 42.2061 315.078C42.2061 310.468 42.9889 306.163 44.5111 302.292C46.0333 298.378 48.2513 294.942 51.0348 292.115C53.8617 289.245 57.2975 286.983 61.2987 285.461C65.2129 283.939 69.5186 283.199 74.1286 283.199C78.7387 283.199 83.0444 283.982 86.9151 285.461C90.8293 286.983 94.2651 289.244 97.1355 292.071C100.006 294.942 102.224 298.378 103.746 302.292C105.268 306.163 106.051 310.468 106.051 315.078C106.051 319.688 105.268 323.994 103.79 327.865C102.268 331.779 100.049 335.215 97.2225 338.129C94.3521 341.043 90.9163 343.304 86.9586 344.826C83.0009 346.349 78.6952 347.131 74.0852 347.131ZM74.0852 304.597C70.7363 304.597 68.2138 305.51 66.3872 307.38C64.5171 309.294 63.6037 311.816 63.6037 315.078C63.6037 318.384 64.5171 320.95 66.4307 322.863C68.3008 324.777 70.7363 325.69 74.1286 325.69C78.3908 325.69 81.3482 324.777 82.9139 323.037C84.697 321.08 85.5234 318.471 85.5234 315.078C85.5234 311.686 84.6535 309.164 82.8269 307.293C81.0003 305.51 78.0864 304.597 74.0852 304.597Z" fill="#FFC124"/>
    <path d="M178.786 28.3613C177.047 28.3613 175.699 27.7959 174.785 26.7086C173.872 25.6213 173.394 24.4036 173.394 23.0988C173.394 21.7941 173.828 20.5763 174.698 19.489C175.568 18.4017 176.873 17.8364 178.656 17.8364H196.183C196.183 13.2698 196.4 8.87717 196.792 4.65851C197.183 0.439857 197.792 -3.3004 198.575 -6.51876C198.923 -7.99746 199.575 -9.08474 200.489 -9.69361C201.402 -10.3025 202.446 -10.6069 203.576 -10.6069C205.055 -10.6069 206.447 -10.0415 207.665 -8.91078C208.882 -7.78 209.274 -6.17083 208.839 -4.17023C208.143 -1.34329 207.621 1.96204 207.317 5.78927C207.012 9.61651 206.795 13.6177 206.708 17.8364H229.106C230.846 17.8364 232.194 18.4017 233.107 19.489C234.02 20.5763 234.499 21.7941 234.499 23.0988C234.499 24.4036 234.064 25.6213 233.194 26.7086C232.324 27.7959 231.02 28.3613 229.236 28.3613H206.838C207.012 32.5799 207.317 36.5811 207.752 40.3214C208.187 44.1051 208.752 47.3669 209.448 50.1939C209.883 52.1945 209.491 53.8037 208.274 54.9344C207.056 56.0652 205.664 56.6306 204.185 56.6306C203.055 56.6306 202.011 56.3262 201.097 55.7173C200.184 55.1084 199.532 54.0646 199.184 52.5424C198.488 49.3675 197.879 45.7143 197.357 41.4956C196.835 37.277 196.487 32.8844 196.313 28.3178H178.786V28.3613Z" fill="#FFC124"/>
    <path d="M204.185 62.1103C201.967 62.1103 199.923 61.5015 198.096 60.2837C196.661 59.3269 194.747 57.4133 193.921 53.847V53.8035C193.181 50.4982 192.529 46.6275 192.007 42.2348C191.659 39.4949 191.398 36.7114 191.181 33.841H178.829C174.567 33.841 172.001 31.8839 170.653 30.2747C168.913 28.2306 168 25.7516 168 23.1422C168 20.6197 168.87 18.1842 170.522 16.1401C171.871 14.4439 174.393 12.4433 178.699 12.4433H190.876C190.963 9.61637 191.137 6.87642 191.398 4.22345C191.833 -0.212662 192.442 -4.25735 193.312 -7.73666C194.138 -11.3029 196.052 -13.1731 197.487 -14.1734C199.314 -15.3911 201.358 -16 203.619 -16C206.49 -16 209.143 -14.9127 211.404 -12.8251C214.057 -10.3461 215.058 -6.86683 214.188 -2.95261L214.144 -2.77865C213.535 -0.256156 213.057 2.78823 212.796 6.26753C212.622 8.26813 212.492 10.3122 212.405 12.4433H229.149C233.411 12.4433 235.933 14.4004 237.325 16.0096C239.065 18.0972 239.978 20.5327 239.978 23.1422C239.978 25.6647 239.108 28.1002 237.456 30.1442C236.107 31.8404 233.585 33.841 229.279 33.841H212.579C212.753 35.8851 212.926 37.8422 213.144 39.7558C213.535 43.2786 214.101 46.3665 214.71 48.9325L214.753 49.1065C215.579 53.0207 214.623 56.5 211.97 58.979C209.752 61.0231 207.055 62.1103 204.185 62.1103Z" fill="#FFC124"/>
    <path d="M151.806 174.608C150.632 173.694 149.893 172.65 149.675 171.52C149.458 170.389 149.545 169.258 149.936 168.214C150.327 167.17 151.023 166.301 152.024 165.605C152.98 164.909 154.024 164.561 155.112 164.561C156.199 164.561 157.33 164.952 158.417 165.779L179.641 181.914C181.206 183.088 181.989 184.524 182.033 186.176C182.076 187.829 181.337 189.308 179.771 190.569L159.678 206.965C158.678 207.878 157.504 208.357 156.242 208.357C155.155 208.357 154.111 208.009 153.154 207.313C152.198 206.617 151.502 205.791 151.067 204.747C150.632 203.747 150.545 202.659 150.806 201.529C151.023 200.398 151.719 199.354 152.806 198.441L167.42 186.481L151.806 174.608Z" fill="#FFC124"/>
</svg>
