<svg width="355" height="294" viewBox="0 0 355 294" fill="none" xmlns="http://www.w3.org/2000/svg">
<path d="M323.814 73.0134V253.042C323.814 261.841 320.862 269.696 313.966 275.071C308.422 279.648 301.938 282.077 294.78 282.077C287.592 282.077 281.006 279.633 275.209 275.174L275.08 275.074L274.955 274.97C268.405 269.512 265.745 261.666 265.745 253.042V70.5627C250.74 69.7288 235.484 69.0192 219.977 68.434C201.804 67.7482 183.632 67.4053 165.459 67.4053C149.369 67.4053 133.805 67.7477 118.766 68.4313L118.671 68.4356L118.577 68.4378C106.197 68.7191 94.4041 69.1155 83.196 69.6266C82.7076 76.4733 82.2157 84.9456 81.7217 95.062C81.3807 108.746 81.2095 124.849 81.2095 143.379C81.2095 159.509 81.3809 177.54 81.7243 197.475C82.4096 216.979 83.4357 235.44 84.8011 252.859C85.6569 262.414 83.0486 271.136 75.5565 277.094C69.6967 282.012 62.8543 284.663 55.2788 284.663C48.3007 284.663 41.8887 282.526 36.3062 278.339C29.7259 273.404 26.6079 265.888 25.7684 257.493L25.7589 257.398L25.7516 257.303C24.3619 239.238 23.3214 219.978 22.6281 199.528L22.6257 199.456L22.6245 199.384C22.2791 178.657 22.1061 159.988 22.1061 143.379C22.1061 125.744 22.2789 110.323 22.6261 97.127L323.814 73.0134ZM323.814 73.0134C329.504 71.8752 334.53 69.0867 338.433 64.4033C342.869 59.0809 345.553 52.9741 346.036 46.2072L346.037 46.1875L346.039 46.1678C346.516 39.0099 344.553 32.328 340.435 26.3799C335.496 19.2454 327.79 16.0208 319.114 15.5605C265.854 11.413 215.152 9.33645 167.011 9.33645C144.489 9.33645 122.308 9.85568 100.467 10.8947C78.9736 11.589 57.3112 12.8027 35.4793 14.5354L35.3725 14.5439L35.266 14.5551C26.9024 15.4355 19.6643 18.9211 14.8889 25.729C10.8432 31.1718 8.65677 37.3461 8.65677 44.061C8.65677 50.3535 10.253 56.2408 13.5821 61.4723L13.8242 61.8528L14.106 62.205C16.7419 65.4999 20.0211 67.9414 23.7492 69.636C23.2678 77.4909 22.8945 86.6591 22.6261 97.1247L323.814 73.0134Z" fill="#FFC124" stroke="#FFC124" stroke-width="16.6865"/>
</svg>
