<svg viewBox="0 0 32 31" fill="none" xmlns="http://www.w3.org/2000/svg">
    <path d="M4.79026 14.8638L4.79027 7.08372C4.79027 5.83507 5.7988 4.82653 7.04746 4.82653L14.8275 4.82652C16.0762 4.82652 17.0848 5.83509 17.0848 7.08374L17.0847 14.8638C17.0847 16.1125 16.0762 17.121 14.8276 17.121L7.04748 17.121C5.84685 17.073 4.83829 16.0644 4.79026 14.8638Z" fill="#D23C50"/>
    <path d="M19.5558 25.976L19.5558 20.7543C19.5558 19.9163 20.2327 19.2394 21.0708 19.2394L26.2925 19.2394C27.1305 19.2394 27.8074 19.9163 27.8074 20.7543L27.8074 25.976C27.8074 26.8141 27.1305 27.491 26.2925 27.491L21.0708 27.491C20.265 27.4588 19.5881 26.7818 19.5558 25.976Z" fill="#FADDEA"/>
    <path d="M19.276 15.1113L19.276 9.95445C19.276 9.12681 19.9445 8.45832 20.7722 8.45832L25.929 8.45831C26.7567 8.45831 27.4252 9.12682 27.4252 9.95446L27.4252 15.1113C27.4252 15.939 26.7567 16.6075 25.929 16.6074L20.7722 16.6075C19.9764 16.5756 19.3079 15.9071 19.276 15.1113Z" fill="#5F73AA"/>
    <path d="M8.40883 25.9782L8.40884 20.8213C8.40884 19.9937 9.07732 19.3252 9.90497 19.3252L15.0618 19.3252C15.8895 19.3252 16.558 19.9937 16.558 20.8213L16.558 25.9782C16.558 26.8058 15.8895 27.4743 15.0618 27.4743L9.90498 27.4743C9.10917 27.4425 8.44066 26.774 8.40883 25.9782Z" fill="#FFE2A0"/>
</svg>
