<svg preserveAspectRatio="xMinYMin meet"
     width="100%"
     height="100%" viewBox="0 0 225 239" fill="none" xmlns="http://www.w3.org/2000/svg">
    <path d="M147.396 46.3999C143.694 36.9999 138.39 28.7999 131.586 21.8999C124.782 15.0999 116.576 9.79985 107.07 6.09985C97.7639 2.49985 87.4572 0.599854 76.45 0.599854C65.4428 0.599854 55.136 2.39985 45.7299 5.99985C36.1236 9.69985 27.8182 15.0999 21.1138 21.8999C14.4094 28.6999 9.20602 36.8999 5.5036 46.2999C1.90124 55.5999 0 65.7999 0 76.8999C0 87.9999 1.80118 98.1999 5.5036 107.5C9.20602 116.8 14.4094 125.1 21.0137 132C27.8182 139 36.1236 144.5 45.7299 148.2C55.036 151.8 65.4428 153.6 76.45 153.6C87.4572 153.6 97.7639 151.8 107.07 148.1C116.576 144.4 124.782 139 131.686 132C138.491 125.1 143.794 116.8 147.496 107.5C151.099 98.1999 153 87.8999 153 76.8999C152.9 65.8999 150.999 55.6999 147.396 46.3999ZM103.768 76.9998C103.768 85.0998 101.666 91.2999 97.4637 95.9998C93.6612 100.2 86.5566 102.4 76.45 102.4C68.3447 102.4 62.5409 100.3 58.0379 95.5999C53.535 90.8999 51.3335 84.7999 51.3335 76.8999C51.3335 68.9999 53.535 62.9999 58.0379 58.4999C62.4408 53.9999 68.5448 51.7999 76.55 51.7999C86.1563 51.7999 93.1609 53.9999 97.3636 58.2999C101.666 62.7999 103.768 68.8998 103.768 76.9998Z" fill="#E6EFFF"/>
    <path d="M166.5 238.6C198.809 238.6 225 212.409 225 180.1C225 147.791 198.809 121.6 166.5 121.6C134.191 121.6 108 147.791 108 180.1C108 212.409 134.191 238.6 166.5 238.6Z" fill="#FADDEA"/>
</svg>
