<svg preserveAspectRatio="xMinYMin meet"
     width="100%"
     height="100%" viewBox="0 0 212 184" fill="none" xmlns="http://www.w3.org/2000/svg">
    <path d="M187.1 117.8H184.9C172.4 116.8 158.4 116 143.5 115.3C115 114 85.7998 113.9 59.8998 115.1C47.4998 115.7 36.3998 116.4 26.9998 117.2H25.9998C19.5998 117.2 14.0998 115.4 9.39981 111.8C5.49981 108.8 0.799805 103.2 0.799805 93.0998C0.799805 87.6998 2.4998 82.5998 5.7998 77.8998C8.4998 74.0998 13.6998 69.4998 22.8998 68.4998H23.1998C35.8998 67.4998 48.6998 66.6998 61.2998 66.1998C73.9998 65.6998 86.9998 65.3998 99.9998 65.3998C127.9 65.3998 157.7 66.5998 188.6 68.9998C198.4 69.5998 203.8 74.4998 206.6 78.4998C210 83.3998 211.6 88.9998 211.2 94.5998C210.8 100.1 208.8 105.2 205.1 109.6C202 113.4 196.4 117.8 187.1 117.8Z" fill="#FFD880"/>
    <path d="M187.1 183.1H184.9C172.4 182.1 158.4 181.3 143.5 180.6C115 179.3 85.7998 179.2 59.8998 180.4C47.4998 181 36.3998 181.7 26.9998 182.5H25.9998C19.5998 182.5 14.0998 180.7 9.39981 177.1C5.49981 174.1 0.799805 168.5 0.799805 158.4C0.799805 153 2.4998 147.9 5.7998 143.2C8.4998 139.4 13.6998 134.8 22.8998 133.8H23.1998C35.8998 132.8 48.6998 132 61.2998 131.5C73.9998 131 86.9998 130.7 99.9998 130.7C127.9 130.7 157.7 131.9 188.6 134.3C198.4 134.9 203.8 139.8 206.6 143.8C210 148.7 211.6 154.3 211.2 159.9C210.8 165.4 208.8 170.5 205.1 174.9C202 178.7 196.4 183.1 187.1 183.1Z" fill="#FFD880"/>
    <path d="M187.1 52.6999H184.9C172.4 51.6999 158.4 50.8999 143.5 50.1999C115 48.8999 85.7998 48.7999 59.8998 49.9999C47.4998 50.5999 36.3998 51.2999 26.9998 52.0999H25.9998C19.5998 52.0999 14.0998 50.2999 9.39981 46.6999C5.49981 43.6999 0.799805 38.0999 0.799805 27.9999C0.799805 22.5999 2.4998 17.4999 5.7998 12.7999C8.4998 8.99987 13.6998 4.39986 22.8998 3.39986H23.1998C35.8998 2.39986 48.6998 1.59986 61.2998 1.09986C73.9998 0.599865 86.9998 0.299866 99.9998 0.299866C127.9 0.299866 157.7 1.49986 188.6 3.89986C198.4 4.49986 203.8 9.39986 206.6 13.3999C210 18.2999 211.6 23.8999 211.2 29.4999C210.8 34.9999 208.8 40.0999 205.1 44.4999C202 48.3999 196.4 52.6999 187.1 52.6999Z" fill="#FFD880"/>
</svg>
